<svg width="115" height="84" viewBox="0 0 115 84" fill="none" xmlns="http://www.w3.org/2000/svg">
<path d="M25.2686 75.24C25.9192 75.3787 26.4419 75.704 26.8366 76.216C27.2312 76.7173 27.4286 77.2933 27.4286 77.944C27.4286 78.8827 27.0979 79.6293 26.4366 80.184C25.7859 80.728 24.8739 81 23.7006 81H18.4686V69.768H23.5246C24.6659 69.768 25.5566 70.0293 26.1966 70.552C26.8472 71.0747 27.1726 71.784 27.1726 72.68C27.1726 73.3413 26.9966 73.8907 26.6446 74.328C26.3032 74.7653 25.8446 75.0693 25.2686 75.24ZM21.2046 74.312H22.9966C23.4446 74.312 23.7859 74.216 24.0206 74.024C24.2659 73.8213 24.3886 73.528 24.3886 73.144C24.3886 72.76 24.2659 72.4667 24.0206 72.264C23.7859 72.0613 23.4446 71.96 22.9966 71.96H21.2046V74.312ZM23.2206 78.792C23.6792 78.792 24.0312 78.6907 24.2766 78.488C24.5326 78.2747 24.6606 77.9707 24.6606 77.576C24.6606 77.1813 24.5272 76.872 24.2606 76.648C24.0046 76.424 23.6472 76.312 23.1886 76.312H21.2046V78.792H23.2206ZM31.7514 73.56C32.0714 73.0693 32.4714 72.6853 32.9514 72.408C33.4314 72.12 33.9648 71.976 34.5514 71.976V74.872H33.7994C33.1168 74.872 32.6048 75.0213 32.2634 75.32C31.9221 75.608 31.7514 76.12 31.7514 76.856V81H29.0154V72.072H31.7514V73.56ZM44.2752 76.392C44.2752 76.648 44.2592 76.9147 44.2272 77.192H38.0352C38.0779 77.7467 38.2539 78.1733 38.5632 78.472C38.8832 78.76 39.2725 78.904 39.7312 78.904C40.4139 78.904 40.8885 78.616 41.1552 78.04H44.0672C43.9179 78.6267 43.6459 79.1547 43.2512 79.624C42.8672 80.0933 42.3819 80.4613 41.7952 80.728C41.2085 80.9947 40.5525 81.128 39.8272 81.128C38.9525 81.128 38.1739 80.9413 37.4912 80.568C36.8085 80.1947 36.2752 79.6613 35.8912 78.968C35.5072 78.2747 35.3152 77.464 35.3152 76.536C35.3152 75.608 35.5019 74.7973 35.8752 74.104C36.2592 73.4107 36.7925 72.8773 37.4752 72.504C38.1579 72.1307 38.9419 71.944 39.8272 71.944C40.6912 71.944 41.4592 72.1253 42.1312 72.488C42.8032 72.8507 43.3259 73.368 43.6992 74.04C44.0832 74.712 44.2752 75.496 44.2752 76.392ZM41.4752 75.672C41.4752 75.2027 41.3152 74.8293 40.9952 74.552C40.6752 74.2747 40.2752 74.136 39.7952 74.136C39.3365 74.136 38.9472 74.2693 38.6272 74.536C38.3179 74.8027 38.1259 75.1813 38.0512 75.672H41.4752ZM45.1746 76.52C45.1746 75.6027 45.3452 74.7973 45.6866 74.104C46.0386 73.4107 46.5132 72.8773 47.1106 72.504C47.7079 72.1307 48.3746 71.944 49.1106 71.944C49.7399 71.944 50.2892 72.072 50.7586 72.328C51.2386 72.584 51.6066 72.92 51.8626 73.336V72.072H54.5986V81H51.8626V79.736C51.5959 80.152 51.2226 80.488 50.7426 80.744C50.2732 81 49.7239 81.128 49.0946 81.128C48.3692 81.128 47.7079 80.9413 47.1106 80.568C46.5132 80.184 46.0386 79.6453 45.6866 78.952C45.3452 78.248 45.1746 77.4373 45.1746 76.52ZM51.8626 76.536C51.8626 75.8533 51.6706 75.3147 51.2866 74.92C50.9132 74.5253 50.4546 74.328 49.9106 74.328C49.3666 74.328 48.9026 74.5253 48.5186 74.92C48.1452 75.304 47.9586 75.8373 47.9586 76.52C47.9586 77.2027 48.1452 77.7467 48.5186 78.152C48.9026 78.5467 49.3666 78.744 49.9106 78.744C50.4546 78.744 50.9132 78.5467 51.2866 78.152C51.6706 77.7573 51.8626 77.2187 51.8626 76.536ZM62.0339 81L59.3139 77.256V81H56.5779V69.16H59.3139V75.704L62.0179 72.072H65.3939L61.6819 76.552L65.4259 81H62.0339ZM70.9486 74.344H69.4766V81H66.7406V74.344H65.7486V72.072H66.7406V71.816C66.7406 70.7173 67.0552 69.8853 67.6846 69.32C68.3139 68.744 69.2366 68.456 70.4526 68.456C70.6552 68.456 70.8046 68.4613 70.9006 68.472V70.792C70.3779 70.76 70.0099 70.8347 69.7966 71.016C69.5832 71.1973 69.4766 71.5227 69.4766 71.992V72.072H70.9486V74.344ZM71.6902 76.52C71.6902 75.6027 71.8609 74.7973 72.2022 74.104C72.5542 73.4107 73.0289 72.8773 73.6262 72.504C74.2235 72.1307 74.8902 71.944 75.6262 71.944C76.2555 71.944 76.8049 72.072 77.2742 72.328C77.7542 72.584 78.1222 72.92 78.3782 73.336V72.072H81.1142V81H78.3782V79.736C78.1115 80.152 77.7382 80.488 77.2582 80.744C76.7889 81 76.2395 81.128 75.6102 81.128C74.8849 81.128 74.2235 80.9413 73.6262 80.568C73.0289 80.184 72.5542 79.6453 72.2022 78.952C71.8609 78.248 71.6902 77.4373 71.6902 76.52ZM78.3782 76.536C78.3782 75.8533 78.1862 75.3147 77.8022 74.92C77.4289 74.5253 76.9702 74.328 76.4262 74.328C75.8822 74.328 75.4182 74.5253 75.0342 74.92C74.6609 75.304 74.4742 75.8373 74.4742 76.52C74.4742 77.2027 74.6609 77.7467 75.0342 78.152C75.4182 78.5467 75.8822 78.744 76.4262 78.744C76.9702 78.744 77.4289 78.5467 77.8022 78.152C78.1862 77.7573 78.3782 77.2187 78.3782 76.536ZM86.7256 81.128C85.9469 81.128 85.2536 80.9947 84.6456 80.728C84.0376 80.4613 83.5576 80.0987 83.2056 79.64C82.8536 79.1707 82.6562 78.648 82.6136 78.072H85.3176C85.3496 78.3813 85.4936 78.632 85.7496 78.824C86.0056 79.016 86.3202 79.112 86.6936 79.112C87.0349 79.112 87.2962 79.048 87.4776 78.92C87.6696 78.7813 87.7656 78.6053 87.7656 78.392C87.7656 78.136 87.6322 77.9493 87.3656 77.832C87.0989 77.704 86.6669 77.5653 86.0696 77.416C85.4296 77.2667 84.8962 77.112 84.4696 76.952C84.0429 76.7813 83.6749 76.52 83.3656 76.168C83.0562 75.8053 82.9016 75.32 82.9016 74.712C82.9016 74.2 83.0402 73.736 83.3176 73.32C83.6056 72.8933 84.0216 72.5573 84.5656 72.312C85.1202 72.0667 85.7762 71.944 86.5336 71.944C87.6536 71.944 88.5336 72.2213 89.1736 72.776C89.8242 73.3307 90.1976 74.0667 90.2936 74.984H87.7656C87.7229 74.6747 87.5842 74.4293 87.3496 74.248C87.1256 74.0667 86.8269 73.976 86.4536 73.976C86.1336 73.976 85.8882 74.04 85.7176 74.168C85.5469 74.2853 85.4616 74.4507 85.4616 74.664C85.4616 74.92 85.5949 75.112 85.8616 75.24C86.1389 75.368 86.5656 75.496 87.1416 75.624C87.8029 75.7947 88.3416 75.9653 88.7576 76.136C89.1736 76.296 89.5362 76.5627 89.8456 76.936C90.1656 77.2987 90.3309 77.7893 90.3416 78.408C90.3416 78.9307 90.1922 79.4 89.8936 79.816C89.6056 80.2213 89.1842 80.5413 88.6296 80.776C88.0856 81.0107 87.4509 81.128 86.7256 81.128ZM96.9914 78.68V81H95.5994C94.6074 81 93.8341 80.76 93.2794 80.28C92.7248 79.7893 92.4474 78.9947 92.4474 77.896V74.344H91.3594V72.072H92.4474V69.896H95.1834V72.072H96.9754V74.344H95.1834V77.928C95.1834 78.1947 95.2474 78.3867 95.3754 78.504C95.5034 78.6213 95.7168 78.68 96.0154 78.68H96.9914Z" fill="black"/>
<circle cx="59" cy="32" r="32" fill="#092C4C"/>
<path d="M67.2953 43.3383C67.2953 43.3383 59.632 44.43 59.4461 44.6797C59.2867 44.8895 59.1486 45.0675 59.9561 45.774C60.7105 46.4328 63.6881 48.4568 69.9649 46.5576C73.5933 45.4606 75.3331 42.0022 74.7514 41.0167C74.1697 40.0312 73.2427 40.3792 73.2427 40.3792L67.2953 43.3383Z" fill="#828282"/>
<path d="M61.1434 43.888C61.1434 43.888 59.2097 43.8827 59.4142 44.7221C59.4886 45.0329 61.518 45.604 62.8806 45.689C64.2725 45.7766 66.602 45.7926 69.678 44.5733C72.2652 43.548 73.3516 42.6688 74.1113 41.4655C74.4778 40.8838 74.1405 40.156 74.1405 40.156L61.1434 43.888V43.888Z" fill="#C4C4C4"/>
<path d="M46.3242 32.4663C46.3242 32.4663 45.9151 32.7877 45.5353 34.0176C45.2511 34.934 44.7464 36.3285 45.453 37.8957C45.955 39.0087 48.5847 44.4779 60.2084 44.9427C72.4511 45.4315 75.7528 38.9741 76.1486 37.4441C76.7409 35.1412 75.8697 33.9565 75.4872 33.6776C75.0994 33.396 46.3242 32.4663 46.3242 32.4663V32.4663Z" fill="white"/>
<path d="M47.8941 31.6853C47.825 31.7889 45.9417 32.9762 45.9417 32.9762C45.9417 32.9762 44.9642 35.1039 46.7094 37.4069C48.4545 39.7098 52.2185 42.4298 60.2775 42.9531C68.3339 43.4764 74.5442 40.0578 75.5563 36.7455C76.5683 33.4331 74.5363 32.777 74.5363 32.777L47.8941 31.6853V31.6853Z" fill="#BDBDBD" fill-opacity="0.8"/>
<path d="M64.7055 38.8359C64.6709 39.2184 65.0269 40.2198 66.193 41.0459C67.0722 41.6702 67.8478 41.8959 67.9488 41.973C67.962 42.2598 68.0258 43.8058 67.8186 44.26C67.6088 44.7142 66.2063 44.9028 66.2063 44.9028H68.3684C68.3684 44.9028 69.7284 45.3916 69.7284 44.0661C69.7284 42.7406 70.0127 41.3275 70.2225 40.9105C70.3367 40.6847 71.2292 40.1986 71.8242 39.407C72.3289 38.7323 72.4936 38.0178 72.5547 37.7177C72.6158 37.4175 72.807 36.7641 72.3448 36.4613C71.8269 36.1266 64.7055 38.8359 64.7055 38.8359V38.8359Z" fill="#F5F3F3"/>
<path d="M46.2897 26.8031C46.2897 26.8031 44.9988 28.0941 45.1395 30.6042C45.2803 33.1144 48.1039 39.2902 60.4183 39.7072C72.5547 40.1189 76.3053 33.5713 76.741 31.6508C77.1394 29.895 76.64 28.5297 75.8378 27.4486C75.0356 26.3675 56.8244 25.5122 56.8244 25.5122L46.2897 26.8031Z" fill="white"/>
<path d="M47.2672 26.1045C47.2672 26.1045 45.5459 26.7553 45.6628 28.8962C45.8036 31.4781 49.8145 37.5476 60.9044 37.5104C70.775 37.4786 76.1831 32.105 76.2522 29.2787C76.3212 26.487 74.1245 26.3489 74.1245 26.3489L47.2672 26.1045Z" fill="#BDBDBD" fill-opacity="0.8"/>
<path d="M68.5437 31.5473L61.2178 32.5938C61.2178 32.5938 61.7517 33.9538 63.728 34.8968C65.9247 35.9433 67.7734 35.7335 67.8797 36.4321C67.9833 37.1307 68.0869 39.2079 68.0869 39.2079L68.9262 39.0485L71.0459 33.8077L72.1164 32.469C72.1164 32.469 72.7964 30.5724 72.0287 29.8765C71.2637 29.1752 68.5437 31.5473 68.5437 31.5473V31.5473Z" fill="#828282"/>
<path d="M50.9992 18.9194C50.8956 18.9194 48.173 19.3019 48.173 19.3019C48.173 19.3019 45.8594 20.5504 45.7664 23.9079C45.6602 27.6744 49.1505 32.8727 60.5564 32.9418C72.2413 33.0135 76.2123 28.4155 76.462 25.2333C76.7595 21.4429 74.6133 19.8943 74.6133 19.8943L50.9992 18.9194V18.9194Z" fill="white"/>
<path d="M46.7784 22.3724C46.8183 26.4179 51.1374 30.4288 60.9734 30.7794C70.5731 31.1194 75.8325 26.4551 75.798 22.5477C75.7661 18.9193 69.9755 15.3971 60.8008 15.3626C51.4853 15.328 46.7439 18.8157 46.7784 22.3724V22.3724Z" fill="#BDBDBD" fill-opacity="0.8"/>
<path d="M66.6764 34.1396C66.703 34.9498 68.642 35.2978 68.7589 35.9326C68.8758 36.5701 68.9342 39.1307 68.9342 39.1307C68.9342 39.1307 68.4056 39.3512 67.8186 39.4734C67.1545 39.6115 66.4294 39.6726 66.5383 40.0524C66.8066 40.9742 68.7748 41.447 68.7748 41.447C68.7748 41.447 68.8678 42.8734 68.8333 43.471C68.7536 44.8709 68.3684 45.1099 68.3684 45.1099L69.3353 45.8989L70.5492 44.3981C70.5492 44.3981 70.4908 43.0487 70.4722 42.6051C70.4536 42.1615 70.4137 41.2371 70.4137 41.2371C70.4137 41.2371 71.3859 40.5173 72.042 39.2529C72.5308 38.3099 72.5361 37.6326 71.9198 37.9221C71.3036 38.2117 70.3314 38.7482 70.3314 38.7482C70.3314 38.7482 70.2039 36.3789 70.4137 35.7626C70.6262 35.1464 72.3236 32.7743 72.0712 32.3679C71.8189 31.9615 70.2783 32.8487 69.3512 33.101C68.4295 33.3481 66.6551 33.5606 66.6764 34.1396V34.1396Z" fill="#828282"/>
<path d="M56.4313 15.3813C56.4313 15.3813 54.1177 15.6231 53.9025 17.1159C53.6847 18.6087 53.9742 18.8265 53.01 19.3817C52.0458 19.9368 49.3391 21.3765 49.193 21.9051C49.0469 22.4337 48.7441 23.9557 52.1653 24.3435C54.532 24.6118 55.2466 24.3143 56.6464 25.3263C58.0463 26.3384 58.3491 28.1845 60.6175 28.9707C62.1209 29.4913 63.1755 29.0663 64.4292 29.6693C65.683 30.2723 66.865 31.441 68.2489 31.1728C69.4177 30.947 70.1827 27.4381 70.1827 27.3637C70.1827 27.2893 70.3022 23.3182 70.3022 23.3182C70.3022 23.3182 69.7816 22.6196 70.1402 21.9104C70.3845 21.4243 72.212 20.1838 72.4777 19.4534C72.7273 18.7681 72.6184 18.0217 72.2811 17.756C71.9438 17.4904 68.31 18.1784 68.2383 18.0801C68.1666 17.9818 63.8528 17.0681 63.2259 16.8742C62.5991 16.6829 56.4313 15.3813 56.4313 15.3813Z" fill="#F5F3F3"/>
<path d="M69.3937 21.573C69.2211 23.1056 71.2027 23.164 71.2744 25.1881C71.3222 26.5853 70.358 27.43 69.9489 28.3915C69.5398 29.3558 68.9847 30.1978 68.0948 30.3917C67.2023 30.5856 65.6086 29.3 64.2353 28.7926C62.862 28.288 62.1077 29.0901 60.0544 27.9294C58.8431 27.2467 57.5177 24.4869 55.8787 24.0061C55.1323 23.7856 53.5041 23.8281 52.1414 23.6448C50.5131 23.4244 49.185 22.9489 49.1558 22.1998C49.0841 20.2236 53.8069 19.3576 54.2637 18.659C54.7206 17.9605 53.6555 15.7505 56.5295 15.2617C60.3598 14.6109 62.1687 16.2259 64.5514 16.6589C66.9341 17.0919 70.9981 16.6722 72.0208 17.477C73.8509 18.922 69.5637 20.0801 69.3937 21.573V21.573Z" fill="#828282"/>
<path d="M58.2986 22.0085C58.3597 22.2476 58.6466 23.9024 59.4673 24.184C60.2881 24.4629 62.0864 23.9741 63.627 23.6447C65.5581 23.2304 67.7522 22.8558 67.6831 22.3086C67.5795 21.4613 66.5808 20.5688 65.7334 19.3496C65.2181 18.6058 64.7241 17.4663 63.9245 17.6257C63.125 17.7851 58.2986 22.0085 58.2986 22.0085V22.0085Z" fill="#BDBDBD"/>
<path d="M51.2462 21.023C50.7761 21.1399 50.5158 22.1201 51.5464 22.6035C52.8666 23.2224 54.447 23.1427 54.548 22.4627C54.6489 21.7827 53.1083 21.9421 52.5877 21.5835C52.067 21.2223 51.8864 20.8637 51.2462 21.023V21.023Z" fill="#FDFFFC"/>
<path d="M55.3688 22.6621C55.0341 22.9729 55.3953 23.3235 55.831 23.4909C56.2666 23.6582 56.6119 23.6715 56.8085 23.4112C57.005 23.1535 56.6252 22.7498 56.24 22.6356C55.8549 22.5213 55.5706 22.4735 55.3688 22.6621Z" fill="#FDFFFC"/>
<path d="M56.9758 18.2978C56.9758 18.2978 57.1033 17.9153 57.7248 17.817C58.3464 17.7187 59.8897 17.7187 60.567 17.562C61.247 17.4053 62.3919 16.8262 62.9842 16.9537C63.5792 17.0812 64.1848 18.3748 64.3362 18.6165C64.9764 19.6286 65.4864 20.3458 65.5555 20.7283C65.6272 21.1108 62.4025 22.4548 62.2484 22.4548C62.0944 22.4548 59.8578 23.9955 59.2495 22.7523C58.6412 21.5092 57.0023 18.2553 56.9758 18.2978V18.2978Z" fill="white"/>
<path d="M61.9669 21.3658C61.2178 21.5225 59.2947 22.0458 59.2947 22.0458L58.9839 22.8506C58.9839 22.8506 59.1114 23.4881 59.5497 23.5147C59.988 23.5439 61.4091 23.1375 62.4955 22.8559C63.4863 22.5983 65.4917 22.1281 65.5767 21.9448C65.6617 21.7615 65.7547 20.6247 65.5024 20.5795C65.3483 20.5529 64.4877 20.784 64.0069 20.8983C63.3295 21.0576 62.7159 21.2117 61.9669 21.3658V21.3658Z" fill="#828282"/>
<path d="M56.7102 19.3312C56.7686 19.5118 57.2759 20.6035 57.685 21.2543C58.0941 21.9051 59.0716 23.4962 59.3531 23.5254C59.6108 23.5519 59.5842 23.111 59.6055 22.8268C59.6294 22.5001 59.6214 22.2026 59.5524 21.9768C59.4806 21.751 58.8724 20.7894 58.5483 20.2794C58.2242 19.7694 57.2759 18.088 57.0634 18.1571C56.8509 18.2288 56.6119 19.0204 56.7102 19.3312V19.3312Z" fill="#FDFFFC"/>
<path d="M59.462 25.4459C59.0105 25.6716 59.5603 26.9732 60.7902 27.539C62.02 28.1048 63.3269 28.0198 63.5473 27.3398C63.7466 26.7315 62.0811 26.7102 61.3984 26.3782C60.2961 25.8416 60.0703 25.1404 59.462 25.4459V25.4459Z" fill="#FDFFFC"/>
<path d="M53.1561 34.9393C53.0844 35.2076 53.2756 35.4546 54.0008 35.614C54.7286 35.7733 55.0181 35.7069 55.0978 35.4546C55.1775 35.2022 54.9384 34.9526 54.2903 34.7799C53.5705 34.5887 53.2092 34.7401 53.1561 34.9393Z" fill="white"/>
<path d="M58.033 35.9166C57.9267 36.2593 58.4155 36.748 59.9242 36.8012C61.4994 36.8569 62.3839 36.6551 62.3945 36.0999C62.4025 35.728 61.1913 35.8741 59.9747 35.8104C58.7608 35.744 58.1313 35.6005 58.033 35.9166Z" fill="white"/>
<path d="M48.768 38.0311C48.598 38.2224 48.7042 38.4216 49.007 38.6793C49.363 38.9821 49.8517 39.0883 50.0509 38.8519C50.2502 38.6155 49.7853 38.3499 49.5223 38.1507C49.2567 37.9515 48.9778 37.7921 48.768 38.0311Z" fill="white"/>
</svg>
