<svg width="115" height="84" viewBox="0 0 115 84" fill="none" xmlns="http://www.w3.org/2000/svg">
<path d="M24.0749 75.368C24.0749 74.2587 24.3149 73.272 24.7949 72.408C25.2749 71.5333 25.9415 70.856 26.7949 70.376C27.6589 69.8853 28.6349 69.64 29.7229 69.64C31.0562 69.64 32.1975 69.992 33.1469 70.696C34.0962 71.4 34.7309 72.36 35.0509 73.576H32.0429C31.8189 73.1067 31.4989 72.7493 31.0829 72.504C30.6775 72.2587 30.2135 72.136 29.6909 72.136C28.8482 72.136 28.1655 72.4293 27.6429 73.016C27.1202 73.6027 26.8589 74.3867 26.8589 75.368C26.8589 76.3493 27.1202 77.1333 27.6429 77.72C28.1655 78.3067 28.8482 78.6 29.6909 78.6C30.2135 78.6 30.6775 78.4773 31.0829 78.232C31.4989 77.9867 31.8189 77.6293 32.0429 77.16H35.0509C34.7309 78.376 34.0962 79.336 33.1469 80.04C32.1975 80.7333 31.0562 81.08 29.7229 81.08C28.6349 81.08 27.6589 80.84 26.7949 80.36C25.9415 79.8693 25.2749 79.192 24.7949 78.328C24.3149 77.464 24.0749 76.4773 24.0749 75.368ZM42.2144 71.976C43.2384 71.976 44.0597 72.3173 44.6784 73C45.297 73.672 45.6064 74.6 45.6064 75.784V81H42.8864V76.152C42.8864 75.5547 42.7317 75.0907 42.4224 74.76C42.113 74.4293 41.697 74.264 41.1744 74.264C40.6517 74.264 40.2357 74.4293 39.9264 74.76C39.617 75.0907 39.4624 75.5547 39.4624 76.152V81H36.7264V69.16H39.4624V73.272C39.7397 72.8773 40.1184 72.5627 40.5984 72.328C41.0784 72.0933 41.617 71.976 42.2144 71.976ZM48.8836 71.144C48.4036 71.144 48.009 71.0053 47.6996 70.728C47.401 70.44 47.2516 70.088 47.2516 69.672C47.2516 69.2453 47.401 68.8933 47.6996 68.616C48.009 68.328 48.4036 68.184 48.8836 68.184C49.353 68.184 49.737 68.328 50.0356 68.616C50.345 68.8933 50.4996 69.2453 50.4996 69.672C50.4996 70.088 50.345 70.44 50.0356 70.728C49.737 71.0053 49.353 71.144 48.8836 71.144ZM50.2436 72.072V81H47.5076V72.072H50.2436ZM51.6824 76.536C51.6824 75.608 51.869 74.7973 52.2424 74.104C52.6264 73.4107 53.1544 72.8773 53.8264 72.504C54.509 72.1307 55.2877 71.944 56.1624 71.944C57.2824 71.944 58.2157 72.2373 58.9624 72.824C59.7197 73.4107 60.2157 74.2373 60.4504 75.304H57.5384C57.293 74.6213 56.8184 74.28 56.1144 74.28C55.613 74.28 55.213 74.4773 54.9144 74.872C54.6157 75.256 54.4664 75.8107 54.4664 76.536C54.4664 77.2613 54.6157 77.8213 54.9144 78.216C55.213 78.6 55.613 78.792 56.1144 78.792C56.8184 78.792 57.293 78.4507 57.5384 77.768H60.4504C60.2157 78.8133 59.7197 79.6347 58.9624 80.232C58.205 80.8293 57.2717 81.128 56.1624 81.128C55.2877 81.128 54.509 80.9413 53.8264 80.568C53.1544 80.1947 52.6264 79.6613 52.2424 78.968C51.869 78.2747 51.6824 77.464 51.6824 76.536ZM67.3699 81L64.6499 77.256V81H61.9139V69.16H64.6499V75.704L67.3539 72.072H70.7299L67.0179 76.552L70.7619 81H67.3699ZM80.2205 76.392C80.2205 76.648 80.2045 76.9147 80.1725 77.192H73.9805C74.0232 77.7467 74.1992 78.1733 74.5085 78.472C74.8285 78.76 75.2178 78.904 75.6765 78.904C76.3592 78.904 76.8338 78.616 77.1005 78.04H80.0125C79.8632 78.6267 79.5912 79.1547 79.1965 79.624C78.8125 80.0933 78.3272 80.4613 77.7405 80.728C77.1538 80.9947 76.4978 81.128 75.7725 81.128C74.8978 81.128 74.1192 80.9413 73.4365 80.568C72.7538 80.1947 72.2205 79.6613 71.8365 78.968C71.4525 78.2747 71.2605 77.464 71.2605 76.536C71.2605 75.608 71.4472 74.7973 71.8205 74.104C72.2045 73.4107 72.7378 72.8773 73.4205 72.504C74.1032 72.1307 74.8872 71.944 75.7725 71.944C76.6365 71.944 77.4045 72.1253 78.0765 72.488C78.7485 72.8507 79.2712 73.368 79.6445 74.04C80.0285 74.712 80.2205 75.496 80.2205 76.392ZM77.4205 75.672C77.4205 75.2027 77.2605 74.8293 76.9405 74.552C76.6205 74.2747 76.2205 74.136 75.7405 74.136C75.2818 74.136 74.8925 74.2693 74.5725 74.536C74.2632 74.8027 74.0712 75.1813 73.9965 75.672H77.4205ZM87.1039 71.976C88.1492 71.976 88.9812 72.3173 89.5999 73C90.2292 73.672 90.5439 74.6 90.5439 75.784V81H87.8239V76.152C87.8239 75.5547 87.6692 75.0907 87.3599 74.76C87.0505 74.4293 86.6345 74.264 86.1119 74.264C85.5892 74.264 85.1732 74.4293 84.8639 74.76C84.5545 75.0907 84.3999 75.5547 84.3999 76.152V81H81.6639V72.072H84.3999V73.256C84.6772 72.8613 85.0505 72.552 85.5199 72.328C85.9892 72.0933 86.5172 71.976 87.1039 71.976Z" fill="black"/>
<circle cx="59" cy="32" r="32" fill="#092C4C"/>
<path fill-rule="evenodd" clip-rule="evenodd" d="M57.4583 42.75H64.1875V44.1667H57.4583V42.75Z" fill="white"/>
<path fill-rule="evenodd" clip-rule="evenodd" d="M61.7083 39.9165C61.8962 39.9165 62.0764 39.9911 62.2092 40.124C62.342 40.2568 62.4167 40.437 62.4167 40.6248V43.4582C62.4167 43.646 62.342 43.8262 62.2092 43.959C62.0764 44.0919 61.8962 44.1665 61.7083 44.1665C61.5205 44.1665 61.3403 44.0919 61.2075 43.959C61.0746 43.8262 61 43.646 61 43.4582V40.6248C61 40.437 61.0746 40.2568 61.2075 40.124C61.3403 39.9911 61.5205 39.9165 61.7083 39.9165Z" fill="white"/>
<path fill-rule="evenodd" clip-rule="evenodd" d="M61.1417 41.3331C64.0147 41.3331 66.6313 40.2536 68.6025 38.4821C67.4207 38.9636 66.1564 39.2102 64.8803 39.2081C59.6336 39.2081 55.3333 35.1111 55.3333 29.9998C55.3333 29.8119 55.408 29.6318 55.5408 29.4989C55.6736 29.3661 55.8538 29.2915 56.0417 29.2915C56.2295 29.2915 56.4097 29.3661 56.5425 29.4989C56.6754 29.6318 56.75 29.8119 56.75 29.9998C56.75 34.2774 60.3639 37.7915 64.8803 37.7915C67.3771 37.7915 69.6048 36.7141 71.0938 35.0254C71.1398 34.9723 71.1929 34.9284 71.2496 34.893C71.6038 34.1209 71.8708 33.3006 72.038 32.4457C72.2993 31.1055 72.6854 29.7653 73.5099 28.6773C73.852 28.2261 73.4674 27.5893 72.9092 27.6814L63.6194 29.2135C62.8952 29.333 62.1518 29.2245 61.492 28.9031C60.8321 28.5817 60.2884 28.0632 59.9361 27.4193L56.7033 21.5118C56.3812 20.9246 55.8558 20.4751 55.2257 20.2479C54.5956 20.0207 53.9043 20.0314 53.2816 20.278C52.6588 20.5246 52.1476 20.9902 51.8439 21.5871C51.5402 22.1841 51.465 22.8714 51.6323 23.52L51.8788 24.4712C52.1319 25.4485 52.1278 26.4746 51.8668 27.4498L51.3277 29.4629C50.703 31.7954 50.5238 34.3589 51.859 36.3712C52.876 37.9009 54.2562 39.1547 55.8762 40.0205C57.4962 40.8864 59.3055 41.3374 61.1424 41.3331H61.1417ZM53.9167 22.9165C54.1045 22.9165 54.2847 22.8418 54.4175 22.709C54.5504 22.5762 54.625 22.396 54.625 22.2081C54.625 22.0203 54.5504 21.8401 54.4175 21.7073C54.2847 21.5744 54.1045 21.4998 53.9167 21.4998C53.7288 21.4998 53.5486 21.5744 53.4158 21.7073C53.283 21.8401 53.2083 22.0203 53.2083 22.2081C53.2083 22.396 53.283 22.5762 53.4158 22.709C53.5486 22.8418 53.7288 22.9165 53.9167 22.9165V22.9165Z" fill="white"/>
<path fill-rule="evenodd" clip-rule="evenodd" d="M54.6859 17.2499C55.5784 16.3574 57.1042 16.9892 57.1042 18.2515V19.3749H58.0746C59.3772 19.3749 59.9892 20.9849 59.0153 21.8505L57.2203 23.4457C57.0793 23.5663 56.8966 23.6268 56.7115 23.6141C56.5263 23.6014 56.3535 23.5166 56.2303 23.3778C56.1071 23.2391 56.0432 23.0575 56.0524 22.8722C56.0617 22.6869 56.1433 22.5125 56.2797 22.3867L58.0746 20.7916H57.1042C56.7284 20.7916 56.3681 20.6423 56.1024 20.3766C55.8368 20.1109 55.6875 19.7506 55.6875 19.3749V18.2515L49.6058 24.3332H52.1458C52.3337 24.3332 52.5139 24.4079 52.6467 24.5407C52.7795 24.6735 52.8542 24.8537 52.8542 25.0416C52.8542 25.2294 52.7795 25.4096 52.6467 25.5424C52.5139 25.6753 52.3337 25.7499 52.1458 25.7499H49.6058C48.3435 25.7499 47.7117 24.2241 48.6042 23.3316L54.6859 17.2499Z" fill="white"/>
</svg>
