<svg width="115" height="84" viewBox="0 0 115 84" fill="none" xmlns="http://www.w3.org/2000/svg">
<circle cx="59" cy="32" r="32" fill="#092C4C"/>
<path d="M73.3466 36.8707C69.5062 36.8707 66.367 33.9227 64.1512 30.8898C64.6994 31.0861 65.2774 31.1864 65.8597 31.1863H65.8602C67.5576 31.1863 68.7677 30.3464 68.8182 30.3108L70.072 29.4257H68.543C66.213 29.4257 64.2707 27.7411 62.8433 25.9051C63.0754 25.9524 63.3108 25.9843 63.5519 25.9843H63.5525C64.7334 25.9843 65.5802 25.3967 65.6164 25.3712L66.8701 24.4862H65.3412C63.6146 24.4862 62.2042 23.0619 61.1895 21.5425L61.7802 21.8575L61.5337 20.4014L61.2373 18.653L62.4932 17.4142L63.5387 16.383L62.0937 16.1705L60.3586 15.915L59.5819 14.3239L58.9375 13L58.2915 14.3244L57.5159 15.9155L55.7808 16.171L54.3363 16.3835L55.3818 17.4147L56.6377 18.653L56.3407 20.4014L56.0937 21.8575L56.6861 21.542C55.6719 23.0608 54.2609 24.4862 52.5343 24.4862H51.0049L52.2597 25.3712C52.2916 25.3935 52.9774 25.8648 53.9693 25.9636C53.479 26.0977 53.0465 26.3893 52.7384 26.7935C52.4302 27.1976 52.2635 27.6919 52.2639 28.2001C52.2639 28.3021 52.2809 28.3999 52.2937 28.4987C51.3969 29.065 50.4067 29.4257 49.3325 29.4257H47.8036L49.0578 30.3108C49.1083 30.3464 50.3185 31.1863 52.0158 31.1863C52.5983 31.1866 53.1765 31.0863 53.7249 30.8898C51.509 33.9227 48.3704 36.8707 44.5295 36.8707H43L44.2543 37.7547C44.3276 37.8073 46.0823 39.0249 48.5532 39.0249C49.6677 39.0249 50.7414 38.7747 51.7662 38.288C51.8777 38.3868 51.9983 38.474 52.1274 38.5494C51.5748 39.7775 51.0008 40.9958 50.4056 42.2039L50.1097 42.8153L50.7791 42.9035C50.7791 42.9035 50.854 42.9136 50.9911 42.9136C51.8225 42.9136 54.5308 42.5625 56.6595 38.3497C56.8178 38.8363 56.8019 43.8125 56.8019 43.8125H61.0742C61.0742 43.8125 61.0572 38.8363 61.216 38.3491C63.3453 42.563 66.0531 42.9136 66.885 42.9136C67.0221 42.9136 67.0964 42.9035 67.0964 42.9035L67.7717 42.8148L67.4704 42.2039C67.0585 41.3683 66.657 40.5276 66.2661 39.682C66.6886 39.4727 67.037 39.139 67.2643 38.7258C67.9332 38.9207 68.619 39.0249 69.3224 39.0249C71.7938 39.0249 73.5485 37.8073 73.6223 37.7547L74.875 36.8707H73.3466ZM63.7304 29.1718C63.7304 30.0526 63.0249 30.7671 62.1532 30.7671C61.2824 30.7671 60.5764 30.0526 60.5764 29.1718C60.5764 28.2904 61.2824 27.5754 62.1532 27.5754C63.0249 27.5759 63.7304 28.2904 63.7304 29.1718ZM58.9375 32.286C59.8087 32.286 60.5142 33.0005 60.5142 33.8824C60.5142 34.7637 59.8087 35.4783 58.9375 35.4783C58.0657 35.4783 57.3607 34.7637 57.3607 33.8824C57.3607 33 58.0657 32.286 58.9375 32.286ZM57.3607 24.5435C57.3607 23.6622 58.0657 22.9477 58.9375 22.9477C59.8087 22.9477 60.5142 23.6622 60.5142 24.5435C60.5142 25.4243 59.8087 26.1389 58.9375 26.1389C58.0657 26.1383 57.3607 25.4238 57.3607 24.5435ZM55.8844 16.8925L57.994 16.5822L58.9375 14.6469L59.8815 16.5822L61.9911 16.8925L60.4643 18.3986L60.8245 20.5246L58.9375 19.5211L57.0505 20.5246L57.4118 18.3986L55.8844 16.8925V16.8925ZM52.9838 28.1996C52.9838 27.3183 53.6903 26.6037 54.5611 26.6037C55.4323 26.6037 56.1378 27.3183 56.1378 28.1996C56.1378 29.0804 55.4323 29.7949 54.5611 29.7949C53.6903 29.7949 52.9838 29.0809 52.9838 28.1996ZM54.8479 36.5455C54.8479 37.4263 54.1414 38.1409 53.2712 38.1409C52.3999 38.1409 51.6944 37.4263 51.6944 36.5455C51.6944 35.6637 52.3999 34.9491 53.2712 34.9491C54.1414 34.9491 54.8479 35.6637 54.8479 36.5455ZM65.2679 39.1928C64.3966 39.1928 63.6911 38.4787 63.6911 37.5974C63.6911 36.7161 64.3966 36.0021 65.2679 36.0021C66.1397 36.0021 66.8452 36.7161 66.8452 37.5974C66.8452 38.4787 66.1397 39.1928 65.2679 39.1928Z" fill="white"/>
<path d="M14.6921 75.368C14.6921 74.2587 14.9321 73.272 15.4121 72.408C15.8921 71.5333 16.5587 70.856 17.4121 70.376C18.2761 69.8853 19.2521 69.64 20.3401 69.64C21.6734 69.64 22.8147 69.992 23.7641 70.696C24.7134 71.4 25.3481 72.36 25.6681 73.576H22.6601C22.4361 73.1067 22.1161 72.7493 21.7001 72.504C21.2947 72.2587 20.8307 72.136 20.3081 72.136C19.4654 72.136 18.7827 72.4293 18.2601 73.016C17.7374 73.6027 17.4761 74.3867 17.4761 75.368C17.4761 76.3493 17.7374 77.1333 18.2601 77.72C18.7827 78.3067 19.4654 78.6 20.3081 78.6C20.8307 78.6 21.2947 78.4773 21.7001 78.232C22.1161 77.9867 22.4361 77.6293 22.6601 77.16H25.6681C25.3481 78.376 24.7134 79.336 23.7641 80.04C22.8147 80.7333 21.6734 81.08 20.3401 81.08C19.2521 81.08 18.2761 80.84 17.4121 80.36C16.5587 79.8693 15.8921 79.192 15.4121 78.328C14.9321 77.464 14.6921 76.4773 14.6921 75.368ZM32.8316 71.976C33.8556 71.976 34.6769 72.3173 35.2956 73C35.9142 73.672 36.2236 74.6 36.2236 75.784V81H33.5036V76.152C33.5036 75.5547 33.3489 75.0907 33.0396 74.76C32.7302 74.4293 32.3142 74.264 31.7916 74.264C31.2689 74.264 30.8529 74.4293 30.5436 74.76C30.2342 75.0907 30.0796 75.5547 30.0796 76.152V81H27.3436V69.16H30.0796V73.272C30.3569 72.8773 30.7356 72.5627 31.2156 72.328C31.6956 72.0933 32.2342 71.976 32.8316 71.976ZM40.8608 73.56C41.1808 73.0693 41.5808 72.6853 42.0608 72.408C42.5408 72.12 43.0741 71.976 43.6608 71.976V74.872H42.9088C42.2261 74.872 41.7141 75.0213 41.3728 75.32C41.0315 75.608 40.8608 76.12 40.8608 76.856V81H38.1248V72.072H40.8608V73.56ZM46.3446 71.144C45.8646 71.144 45.4699 71.0053 45.1606 70.728C44.8619 70.44 44.7126 70.088 44.7126 69.672C44.7126 69.2453 44.8619 68.8933 45.1606 68.616C45.4699 68.328 45.8646 68.184 46.3446 68.184C46.8139 68.184 47.1979 68.328 47.4966 68.616C47.8059 68.8933 47.9606 69.2453 47.9606 69.672C47.9606 70.088 47.8059 70.44 47.4966 70.728C47.1979 71.0053 46.8139 71.144 46.3446 71.144ZM47.7046 72.072V81H44.9686V72.072H47.7046ZM53.3193 81.128C52.5406 81.128 51.8473 80.9947 51.2393 80.728C50.6313 80.4613 50.1513 80.0987 49.7993 79.64C49.4473 79.1707 49.25 78.648 49.2073 78.072H51.9113C51.9433 78.3813 52.0873 78.632 52.3433 78.824C52.5993 79.016 52.914 79.112 53.2873 79.112C53.6286 79.112 53.89 79.048 54.0713 78.92C54.2633 78.7813 54.3593 78.6053 54.3593 78.392C54.3593 78.136 54.226 77.9493 53.9593 77.832C53.6926 77.704 53.2606 77.5653 52.6633 77.416C52.0233 77.2667 51.49 77.112 51.0633 76.952C50.6366 76.7813 50.2686 76.52 49.9593 76.168C49.65 75.8053 49.4953 75.32 49.4953 74.712C49.4953 74.2 49.634 73.736 49.9113 73.32C50.1993 72.8933 50.6153 72.5573 51.1593 72.312C51.714 72.0667 52.37 71.944 53.1273 71.944C54.2473 71.944 55.1273 72.2213 55.7673 72.776C56.418 73.3307 56.7913 74.0667 56.8873 74.984H54.3593C54.3166 74.6747 54.178 74.4293 53.9433 74.248C53.7193 74.0667 53.4206 73.976 53.0473 73.976C52.7273 73.976 52.482 74.04 52.3113 74.168C52.1406 74.2853 52.0553 74.4507 52.0553 74.664C52.0553 74.92 52.1886 75.112 52.4553 75.24C52.7326 75.368 53.1593 75.496 53.7353 75.624C54.3966 75.7947 54.9353 75.9653 55.3513 76.136C55.7673 76.296 56.13 76.5627 56.4393 76.936C56.7593 77.2987 56.9246 77.7893 56.9353 78.408C56.9353 78.9307 56.786 79.4 56.4873 79.816C56.1993 80.2213 55.778 80.5413 55.2233 80.776C54.6793 81.0107 54.0446 81.128 53.3193 81.128ZM63.5852 78.68V81H62.1932C61.2012 81 60.4279 80.76 59.8732 80.28C59.3185 79.7893 59.0412 78.9947 59.0412 77.896V74.344H57.9532V72.072H59.0412V69.896H61.7772V72.072H63.5692V74.344H61.7772V77.928C61.7772 78.1947 61.8412 78.3867 61.9692 78.504C62.0972 78.6213 62.3105 78.68 62.6092 78.68H63.5852ZM76.5012 71.976C77.6105 71.976 78.4905 72.312 79.1412 72.984C79.8025 73.656 80.1332 74.5893 80.1332 75.784V81H77.4132V76.152C77.4132 75.576 77.2585 75.1333 76.9492 74.824C76.6505 74.504 76.2345 74.344 75.7012 74.344C75.1679 74.344 74.7465 74.504 74.4372 74.824C74.1385 75.1333 73.9892 75.576 73.9892 76.152V81H71.2692V76.152C71.2692 75.576 71.1145 75.1333 70.8052 74.824C70.5065 74.504 70.0905 74.344 69.5572 74.344C69.0239 74.344 68.6025 74.504 68.2932 74.824C67.9945 75.1333 67.8452 75.576 67.8452 76.152V81H65.1092V72.072H67.8452V73.192C68.1225 72.8187 68.4852 72.5253 68.9332 72.312C69.3812 72.088 69.8879 71.976 70.4532 71.976C71.1252 71.976 71.7225 72.12 72.2452 72.408C72.7785 72.696 73.1945 73.1067 73.4932 73.64C73.8025 73.1493 74.2239 72.7493 74.7572 72.44C75.2905 72.1307 75.8719 71.976 76.5012 71.976ZM81.5027 76.52C81.5027 75.6027 81.6734 74.7973 82.0147 74.104C82.3667 73.4107 82.8414 72.8773 83.4387 72.504C84.036 72.1307 84.7027 71.944 85.4387 71.944C86.068 71.944 86.6174 72.072 87.0867 72.328C87.5667 72.584 87.9347 72.92 88.1907 73.336V72.072H90.9267V81H88.1907V79.736C87.924 80.152 87.5507 80.488 87.0707 80.744C86.6014 81 86.052 81.128 85.4227 81.128C84.6974 81.128 84.036 80.9413 83.4387 80.568C82.8414 80.184 82.3667 79.6453 82.0147 78.952C81.6734 78.248 81.5027 77.4373 81.5027 76.52ZM88.1907 76.536C88.1907 75.8533 87.9987 75.3147 87.6147 74.92C87.2414 74.5253 86.7827 74.328 86.2387 74.328C85.6947 74.328 85.2307 74.5253 84.8467 74.92C84.4734 75.304 84.2867 75.8373 84.2867 76.52C84.2867 77.2027 84.4734 77.7467 84.8467 78.152C85.2307 78.5467 85.6947 78.744 86.2387 78.744C86.7827 78.744 87.2414 78.5467 87.6147 78.152C87.9987 77.7573 88.1907 77.2187 88.1907 76.536ZM96.5381 81.128C95.7594 81.128 95.0661 80.9947 94.4581 80.728C93.8501 80.4613 93.3701 80.0987 93.0181 79.64C92.6661 79.1707 92.4687 78.648 92.4261 78.072H95.1301C95.1621 78.3813 95.3061 78.632 95.5621 78.824C95.8181 79.016 96.1327 79.112 96.5061 79.112C96.8474 79.112 97.1087 79.048 97.2901 78.92C97.4821 78.7813 97.5781 78.6053 97.5781 78.392C97.5781 78.136 97.4447 77.9493 97.1781 77.832C96.9114 77.704 96.4794 77.5653 95.8821 77.416C95.2421 77.2667 94.7087 77.112 94.2821 76.952C93.8554 76.7813 93.4874 76.52 93.1781 76.168C92.8687 75.8053 92.7141 75.32 92.7141 74.712C92.7141 74.2 92.8527 73.736 93.1301 73.32C93.4181 72.8933 93.8341 72.5573 94.3781 72.312C94.9327 72.0667 95.5887 71.944 96.3461 71.944C97.4661 71.944 98.3461 72.2213 98.9861 72.776C99.6367 73.3307 100.01 74.0667 100.106 74.984H97.5781C97.5354 74.6747 97.3967 74.4293 97.1621 74.248C96.9381 74.0667 96.6394 73.976 96.2661 73.976C95.9461 73.976 95.7007 74.04 95.5301 74.168C95.3594 74.2853 95.2741 74.4507 95.2741 74.664C95.2741 74.92 95.4074 75.112 95.6741 75.24C95.9514 75.368 96.3781 75.496 96.9541 75.624C97.6154 75.7947 98.1541 75.9653 98.5701 76.136C98.9861 76.296 99.3487 76.5627 99.6581 76.936C99.9781 77.2987 100.143 77.7893 100.154 78.408C100.154 78.9307 100.005 79.4 99.7061 79.816C99.4181 80.2213 98.9967 80.5413 98.4421 80.776C97.8981 81.0107 97.2634 81.128 96.5381 81.128Z" fill="black"/>
</svg>
