<svg width="115" height="84" viewBox="0 0 115 84" fill="none" xmlns="http://www.w3.org/2000/svg">
<path d="M31.4344 69.768C32.6184 69.768 33.653 70.0027 34.5384 70.472C35.4237 70.9413 36.1064 71.6027 36.5864 72.456C37.077 73.2987 37.3224 74.2747 37.3224 75.384C37.3224 76.4827 37.077 77.4587 36.5864 78.312C36.1064 79.1653 35.4184 79.8267 34.5224 80.296C33.637 80.7653 32.6077 81 31.4344 81H27.2264V69.768H31.4344ZM31.2584 78.632C32.293 78.632 33.0984 78.3493 33.6744 77.784C34.2504 77.2187 34.5384 76.4187 34.5384 75.384C34.5384 74.3493 34.2504 73.544 33.6744 72.968C33.0984 72.392 32.293 72.104 31.2584 72.104H29.9624V78.632H31.2584ZM47.2674 76.392C47.2674 76.648 47.2514 76.9147 47.2194 77.192H41.0274C41.07 77.7467 41.246 78.1733 41.5554 78.472C41.8754 78.76 42.2647 78.904 42.7234 78.904C43.406 78.904 43.8807 78.616 44.1474 78.04H47.0594C46.91 78.6267 46.638 79.1547 46.2434 79.624C45.8594 80.0933 45.374 80.4613 44.7874 80.728C44.2007 80.9947 43.5447 81.128 42.8194 81.128C41.9447 81.128 41.166 80.9413 40.4834 80.568C39.8007 80.1947 39.2674 79.6613 38.8834 78.968C38.4994 78.2747 38.3074 77.464 38.3074 76.536C38.3074 75.608 38.494 74.7973 38.8674 74.104C39.2514 73.4107 39.7847 72.8773 40.4674 72.504C41.15 72.1307 41.934 71.944 42.8194 71.944C43.6834 71.944 44.4514 72.1253 45.1234 72.488C45.7954 72.8507 46.318 73.368 46.6914 74.04C47.0754 74.712 47.2674 75.496 47.2674 76.392ZM44.4674 75.672C44.4674 75.2027 44.3074 74.8293 43.9874 74.552C43.6674 74.2747 43.2674 74.136 42.7874 74.136C42.3287 74.136 41.9394 74.2693 41.6194 74.536C41.31 74.8027 41.118 75.1813 41.0434 75.672H44.4674ZM52.3428 81.128C51.5641 81.128 50.8708 80.9947 50.2628 80.728C49.6548 80.4613 49.1748 80.0987 48.8228 79.64C48.4708 79.1707 48.2734 78.648 48.2308 78.072H50.9348C50.9668 78.3813 51.1108 78.632 51.3668 78.824C51.6228 79.016 51.9374 79.112 52.3108 79.112C52.6521 79.112 52.9134 79.048 53.0948 78.92C53.2868 78.7813 53.3828 78.6053 53.3828 78.392C53.3828 78.136 53.2494 77.9493 52.9828 77.832C52.7161 77.704 52.2841 77.5653 51.6868 77.416C51.0468 77.2667 50.5134 77.112 50.0868 76.952C49.6601 76.7813 49.2921 76.52 48.9828 76.168C48.6734 75.8053 48.5188 75.32 48.5188 74.712C48.5188 74.2 48.6574 73.736 48.9348 73.32C49.2228 72.8933 49.6388 72.5573 50.1828 72.312C50.7374 72.0667 51.3934 71.944 52.1508 71.944C53.2708 71.944 54.1508 72.2213 54.7908 72.776C55.4414 73.3307 55.8148 74.0667 55.9108 74.984H53.3828C53.3401 74.6747 53.2014 74.4293 52.9668 74.248C52.7428 74.0667 52.4441 73.976 52.0708 73.976C51.7508 73.976 51.5054 74.04 51.3348 74.168C51.1641 74.2853 51.0788 74.4507 51.0788 74.664C51.0788 74.92 51.2121 75.112 51.4788 75.24C51.7561 75.368 52.1828 75.496 52.7588 75.624C53.4201 75.7947 53.9588 75.9653 54.3748 76.136C54.7908 76.296 55.1534 76.5627 55.4628 76.936C55.7828 77.2987 55.9481 77.7893 55.9588 78.408C55.9588 78.9307 55.8094 79.4 55.5108 79.816C55.2228 80.2213 54.8014 80.5413 54.2468 80.776C53.7028 81.0107 53.0681 81.128 52.3428 81.128ZM61.2646 81.128C60.486 81.128 59.7926 80.9947 59.1846 80.728C58.5766 80.4613 58.0966 80.0987 57.7446 79.64C57.3926 79.1707 57.1953 78.648 57.1526 78.072H59.8566C59.8886 78.3813 60.0326 78.632 60.2886 78.824C60.5446 79.016 60.8593 79.112 61.2326 79.112C61.574 79.112 61.8353 79.048 62.0166 78.92C62.2086 78.7813 62.3046 78.6053 62.3046 78.392C62.3046 78.136 62.1713 77.9493 61.9046 77.832C61.638 77.704 61.206 77.5653 60.6086 77.416C59.9686 77.2667 59.4353 77.112 59.0086 76.952C58.582 76.7813 58.214 76.52 57.9046 76.168C57.5953 75.8053 57.4406 75.32 57.4406 74.712C57.4406 74.2 57.5793 73.736 57.8566 73.32C58.1446 72.8933 58.5606 72.5573 59.1046 72.312C59.6593 72.0667 60.3153 71.944 61.0726 71.944C62.1926 71.944 63.0726 72.2213 63.7126 72.776C64.3633 73.3307 64.7366 74.0667 64.8326 74.984H62.3046C62.262 74.6747 62.1233 74.4293 61.8886 74.248C61.6646 74.0667 61.366 73.976 60.9926 73.976C60.6726 73.976 60.4273 74.04 60.2566 74.168C60.086 74.2853 60.0006 74.4507 60.0006 74.664C60.0006 74.92 60.134 75.112 60.4006 75.24C60.678 75.368 61.1046 75.496 61.6806 75.624C62.342 75.7947 62.8806 75.9653 63.2966 76.136C63.7126 76.296 64.0753 76.5627 64.3846 76.936C64.7046 77.2987 64.87 77.7893 64.8806 78.408C64.8806 78.9307 64.7313 79.4 64.4326 79.816C64.1446 80.2213 63.7233 80.5413 63.1686 80.776C62.6246 81.0107 61.99 81.128 61.2646 81.128ZM74.9705 76.392C74.9705 76.648 74.9545 76.9147 74.9225 77.192H68.7305C68.7732 77.7467 68.9492 78.1733 69.2585 78.472C69.5785 78.76 69.9678 78.904 70.4265 78.904C71.1092 78.904 71.5838 78.616 71.8505 78.04H74.7625C74.6132 78.6267 74.3412 79.1547 73.9465 79.624C73.5625 80.0933 73.0772 80.4613 72.4905 80.728C71.9038 80.9947 71.2478 81.128 70.5225 81.128C69.6478 81.128 68.8692 80.9413 68.1865 80.568C67.5038 80.1947 66.9705 79.6613 66.5865 78.968C66.2025 78.2747 66.0105 77.464 66.0105 76.536C66.0105 75.608 66.1972 74.7973 66.5705 74.104C66.9545 73.4107 67.4878 72.8773 68.1705 72.504C68.8532 72.1307 69.6372 71.944 70.5225 71.944C71.3865 71.944 72.1545 72.1253 72.8265 72.488C73.4985 72.8507 74.0212 73.368 74.3945 74.04C74.7785 74.712 74.9705 75.496 74.9705 76.392ZM72.1705 75.672C72.1705 75.2027 72.0105 74.8293 71.6905 74.552C71.3705 74.2747 70.9705 74.136 70.4905 74.136C70.0318 74.136 69.6425 74.2693 69.3225 74.536C69.0132 74.8027 68.8212 75.1813 68.7465 75.672H72.1705ZM79.1499 73.56C79.4699 73.0693 79.8699 72.6853 80.3499 72.408C80.8299 72.12 81.3632 71.976 81.9499 71.976V74.872H81.1979C80.5152 74.872 80.0032 75.0213 79.6619 75.32C79.3205 75.608 79.1499 76.12 79.1499 76.856V81H76.4139V72.072H79.1499V73.56ZM88.2336 78.68V81H86.8416C85.8496 81 85.0763 80.76 84.5216 80.28C83.967 79.7893 83.6896 78.9947 83.6896 77.896V74.344H82.6016V72.072H83.6896V69.896H86.4256V72.072H88.2176V74.344H86.4256V77.928C86.4256 78.1947 86.4896 78.3867 86.6176 78.504C86.7456 78.6213 86.959 78.68 87.2576 78.68H88.2336Z" fill="black"/>
<circle cx="59" cy="32" r="32" fill="#092C4C"/>
<path d="M61.1016 19.606C61.983 21.5306 61.468 24.3297 59.6374 25.5117C57.628 26.8092 54.9472 26.2321 53.6498 24.2228C53.5132 24.0107 53.3953 23.7872 53.2975 23.5547L42 28.5118V38.8595H71.8786V29.7884C71.3743 29.4204 70.8975 28.8009 70.7224 27.8874C70.1547 27.5201 69.7387 26.9603 69.5509 26.3108C68.5952 26.1033 67.811 25.4195 67.4826 24.5056C66.3908 24.3038 65.5121 23.4815 65.2446 22.4121C64.3521 22.1602 63.7798 21.6252 63.4814 20.7659C62.7091 20.8028 61.8538 20.4624 61.1016 19.606V19.606ZM69.9324 36.5063H43.8692V34.9142H69.9324V36.5063ZM69.9324 31.2011H43.8692V29.543H69.9324V31.2011V31.2011ZM59.1758 19.3164C58.8612 19.1132 58.5853 18.9732 58.2407 18.8902C58.1468 18.4783 58.0489 18.0717 57.9948 17.8041C57.6324 16.0121 56.8196 14.2671 55.198 13.3121C54.446 12.8654 53.434 13.3343 53.3159 14.2094C53.2167 14.9448 53.7001 15.3199 54.2761 15.6087C55.4666 16.2055 56.1526 17.3437 56.6098 18.5788C56.6414 18.6642 56.672 18.7689 56.705 18.8814C55.912 19.0623 55.186 19.5404 54.7099 20.2778C53.7422 21.7764 54.1726 23.7759 55.6713 24.7436C57.17 25.7114 59.1695 25.281 60.1372 23.7823C61.1049 22.2836 60.6745 20.2841 59.1758 19.3163V19.3164ZM58.3937 21.5646C57.9473 21.5646 57.5855 21.2027 57.5855 20.7564C57.5855 20.31 57.9473 19.9481 58.3936 19.9481C58.84 19.9481 59.2019 20.31 59.2019 20.7563C59.2019 21.2027 58.84 21.5645 58.3937 21.5645V21.5646ZM74.4013 29.69V38.8594H72.681V29.4328C72.0727 29.0493 71.6682 28.3719 71.6682 27.5996L71.6683 27.5949C70.8246 27.3535 70.1916 26.6134 70.1086 25.7138C69.0527 25.6885 68.1667 24.9084 68.0053 23.8917C66.8505 23.8917 65.8896 22.9882 65.8257 21.8493C64.9112 21.766 64.1614 21.1142 63.9318 20.2504C63.8427 20.2616 63.753 20.2674 63.6632 20.2676C62.4669 20.2676 61.4972 19.2979 61.4972 18.1016C61.4972 16.9054 62.4669 15.9357 63.6632 15.9357C64.6666 15.9357 65.5103 16.6181 65.7563 17.5441C65.8453 17.5329 65.935 17.5271 66.0247 17.5269C67.1795 17.5269 68.1231 18.4309 68.1869 19.5697C69.1761 19.6599 69.9903 20.4143 70.1441 21.3837C71.2723 21.3837 72.2162 22.246 72.3178 23.3478C73.4895 23.3759 74.4309 24.3339 74.4309 25.5124L74.4308 25.5176C75.3367 25.7767 76 26.6105 76 27.5996C76 28.5995 75.3223 29.4407 74.4013 29.69V29.69Z" fill="white"/>
</svg>
