<svg width="115" height="84" viewBox="0 0 115 84" fill="none" xmlns="http://www.w3.org/2000/svg">
<circle cx="58" cy="32" r="32" fill="#092C4C"/>
<path d="M44.7083 32.7124C44.5205 32.7124 44.3403 32.787 44.2075 32.9199C44.0746 33.0527 44 33.2329 44 33.4207C44 33.6086 44.0746 33.7888 44.2075 33.9216C44.3403 34.0544 44.5205 34.1291 44.7083 34.1291H46.8333C46.8333 35.632 47.4304 37.0733 48.4931 38.136C49.5558 39.1987 50.9971 39.7957 52.5 39.7957H63.8333C65.3362 39.7957 66.7776 39.1987 67.8403 38.136C68.903 37.0733 69.5 35.632 69.5 34.1291H71.625C71.8129 34.1291 71.993 34.0544 72.1259 33.9216C72.2587 33.7888 72.3333 33.6086 72.3333 33.4207C72.3333 33.2329 72.2587 33.0527 72.1259 32.9199C71.993 32.787 71.8129 32.7124 71.625 32.7124H44.7083Z" fill="white"/>
<path fill-rule="evenodd" clip-rule="evenodd" d="M57.5327 20L58.1667 20.3166L58.8006 20.6332L58.7992 20.6354L58.7907 20.6531L58.7553 20.731C58.566 21.1536 58.4235 21.5956 58.3303 22.0492C58.1631 22.8843 58.2248 23.6231 58.6675 24.0658C59.6414 25.0398 59.5798 26.426 59.3928 27.3617C59.2708 27.9577 59.0792 28.5373 58.8219 29.0886L58.8077 29.1191L58.8028 29.1283L58.8013 29.1318L58.8006 29.1325L58.1667 28.8166L57.5327 28.5L57.5341 28.4979L57.5426 28.4802L57.578 28.4023C57.7673 27.9796 57.9098 27.5376 58.003 27.084C58.1702 26.2489 58.1086 25.5101 57.6659 25.0674C56.6919 24.0935 56.7535 22.7072 56.9405 21.7715C57.0625 21.1755 57.2542 20.5959 57.5115 20.0446L57.5256 20.0142L57.5306 20.005L57.532 20.0021L57.5327 20.0007V20Z" fill="white"/>
<path fill-rule="evenodd" clip-rule="evenodd" d="M51.9121 21.6914L52.5 22.0881C53.0872 22.484 53.0879 22.4833 53.0879 22.4833V22.4826V22.4833L53.0787 22.4975C53.0165 22.5966 52.9584 22.6982 52.9045 22.8021C52.7705 23.0563 52.6637 23.3238 52.5857 23.6004C52.4157 24.2322 52.4766 24.7309 52.9215 25.0595C54.0704 25.9109 54.0095 27.1838 53.7814 28.0274C53.6771 28.4023 53.5335 28.7651 53.3528 29.1098C53.2738 29.2616 53.1881 29.4098 53.0957 29.5539L53.09 29.5624L53.0886 29.5652L53.0879 29.5659C53.0879 29.5659 53.0872 29.5674 52.5 29.1707C51.9128 28.774 51.9121 28.7747 51.9121 28.7747L51.9213 28.7613L51.9595 28.7004C51.9928 28.6444 52.041 28.5615 52.0955 28.4567C52.2053 28.2456 52.3314 27.9623 52.4143 27.6577C52.5843 27.0259 52.5234 26.5279 52.0785 26.1985C50.9296 25.3471 50.9905 24.0749 51.2186 23.2306C51.3355 22.7971 51.5083 22.416 51.6472 22.1483C51.7262 21.9967 51.812 21.8488 51.9043 21.7049L51.9093 21.6964L51.9114 21.6928L51.9128 21.6914H51.9121Z" fill="white"/>
<path fill-rule="evenodd" clip-rule="evenodd" d="M63.9537 21.6914L64.5417 22.0881C65.1289 22.484 65.1296 22.4833 65.1296 22.4833V22.4826V22.4833L65.1204 22.4975C65.0582 22.5966 65.0001 22.6982 64.9461 22.8021C64.8122 23.0563 64.7054 23.3238 64.6274 23.6004C64.4574 24.2322 64.5183 24.7309 64.9631 25.0595C66.112 25.9109 66.0511 27.1838 65.823 28.0274C65.7188 28.4023 65.5751 28.7651 65.3945 29.1098C65.3157 29.2616 65.2302 29.4098 65.1381 29.5539L65.1324 29.5624L65.1303 29.5652L65.1296 29.5659C65.1296 29.5659 65.1289 29.5674 64.5417 29.1707C63.9545 28.774 63.9537 28.7747 63.9537 28.7747L63.963 28.7613L64.0012 28.7004C64.0345 28.6444 64.0827 28.5615 64.1372 28.4567C64.247 28.2456 64.3731 27.9623 64.456 27.6577C64.626 27.0259 64.565 26.5279 64.1202 26.1985C62.9713 25.3471 63.0322 24.0749 63.2603 23.2306C63.3772 22.7971 63.55 22.416 63.6888 22.1483C63.7677 21.9967 63.8532 21.8488 63.9452 21.7049L63.9509 21.6964L63.953 21.6928L63.9545 21.6914H63.9537Z" fill="white"/>
<path d="M35.3953 69.768C36.5793 69.768 37.614 70.0027 38.4993 70.472C39.3846 70.9413 40.0673 71.6027 40.5473 72.456C41.038 73.2987 41.2833 74.2747 41.2833 75.384C41.2833 76.4827 41.038 77.4587 40.5473 78.312C40.0673 79.1653 39.3793 79.8267 38.4833 80.296C37.598 80.7653 36.5686 81 35.3953 81H31.1873V69.768H35.3953ZM35.2193 78.632C36.254 78.632 37.0593 78.3493 37.6353 77.784C38.2113 77.2187 38.4993 76.4187 38.4993 75.384C38.4993 74.3493 38.2113 73.544 37.6353 72.968C37.0593 72.392 36.254 72.104 35.2193 72.104H33.9233V78.632H35.2193ZM44.1883 71.144C43.7083 71.144 43.3136 71.0053 43.0043 70.728C42.7056 70.44 42.5563 70.088 42.5563 69.672C42.5563 69.2453 42.7056 68.8933 43.0043 68.616C43.3136 68.328 43.7083 68.184 44.1883 68.184C44.6576 68.184 45.0416 68.328 45.3403 68.616C45.6496 68.8933 45.8043 69.2453 45.8043 69.672C45.8043 70.088 45.6496 70.44 45.3403 70.728C45.0416 71.0053 44.6576 71.144 44.1883 71.144ZM45.5483 72.072V81H42.8123V72.072H45.5483ZM52.9711 71.976C54.0164 71.976 54.8484 72.3173 55.4671 73C56.0964 73.672 56.4111 74.6 56.4111 75.784V81H53.6911V76.152C53.6911 75.5547 53.5364 75.0907 53.2271 74.76C52.9177 74.4293 52.5017 74.264 51.9791 74.264C51.4564 74.264 51.0404 74.4293 50.7311 74.76C50.4217 75.0907 50.2671 75.5547 50.2671 76.152V81H47.5311V72.072H50.2671V73.256C50.5444 72.8613 50.9177 72.552 51.3871 72.328C51.8564 72.0933 52.3844 71.976 52.9711 71.976ZM63.7523 71.976C64.7976 71.976 65.6296 72.3173 66.2483 73C66.8776 73.672 67.1923 74.6 67.1923 75.784V81H64.4723V76.152C64.4723 75.5547 64.3176 75.0907 64.0083 74.76C63.699 74.4293 63.283 74.264 62.7603 74.264C62.2376 74.264 61.8216 74.4293 61.5123 74.76C61.203 75.0907 61.0483 75.5547 61.0483 76.152V81H58.3123V72.072H61.0483V73.256C61.3256 72.8613 61.699 72.552 62.1683 72.328C62.6376 72.0933 63.1656 71.976 63.7523 71.976ZM77.5096 76.392C77.5096 76.648 77.4936 76.9147 77.4616 77.192H71.2696C71.3122 77.7467 71.4882 78.1733 71.7976 78.472C72.1176 78.76 72.5069 78.904 72.9656 78.904C73.6482 78.904 74.1229 78.616 74.3896 78.04H77.3016C77.1522 78.6267 76.8802 79.1547 76.4856 79.624C76.1016 80.0933 75.6162 80.4613 75.0296 80.728C74.4429 80.9947 73.7869 81.128 73.0616 81.128C72.1869 81.128 71.4082 80.9413 70.7256 80.568C70.0429 80.1947 69.5096 79.6613 69.1256 78.968C68.7416 78.2747 68.5496 77.464 68.5496 76.536C68.5496 75.608 68.7362 74.7973 69.1096 74.104C69.4936 73.4107 70.0269 72.8773 70.7096 72.504C71.3922 72.1307 72.1762 71.944 73.0616 71.944C73.9256 71.944 74.6936 72.1253 75.3656 72.488C76.0376 72.8507 76.5602 73.368 76.9336 74.04C77.3176 74.712 77.5096 75.496 77.5096 76.392ZM74.7096 75.672C74.7096 75.2027 74.5496 74.8293 74.2296 74.552C73.9096 74.2747 73.5096 74.136 73.0296 74.136C72.5709 74.136 72.1816 74.2693 71.8616 74.536C71.5522 74.8027 71.3602 75.1813 71.2856 75.672H74.7096ZM81.6889 73.56C82.0089 73.0693 82.4089 72.6853 82.8889 72.408C83.3689 72.12 83.9023 71.976 84.4889 71.976V74.872H83.7369C83.0543 74.872 82.5423 75.0213 82.2009 75.32C81.8596 75.608 81.6889 76.12 81.6889 76.856V81H78.9529V72.072H81.6889V73.56Z" fill="black"/>
</svg>
