<svg width="115" height="84" viewBox="0 0 115 84" fill="none" xmlns="http://www.w3.org/2000/svg">
<path d="M49.2181 69.768V71.96H44.6421V74.328H48.0661V76.456H44.6421V81H41.9061V69.768H49.2181ZM52.0321 71.144C51.5521 71.144 51.1574 71.0053 50.8481 70.728C50.5494 70.44 50.4001 70.088 50.4001 69.672C50.4001 69.2453 50.5494 68.8933 50.8481 68.616C51.1574 68.328 51.5521 68.184 52.0321 68.184C52.5014 68.184 52.8854 68.328 53.1841 68.616C53.4934 68.8933 53.6481 69.2453 53.6481 69.672C53.6481 70.088 53.4934 70.44 53.1841 70.728C52.8854 71.0053 52.5014 71.144 52.0321 71.144ZM53.3921 72.072V81H50.6561V72.072H53.3921ZM59.0068 81.128C58.2281 81.128 57.5348 80.9947 56.9268 80.728C56.3188 80.4613 55.8388 80.0987 55.4868 79.64C55.1348 79.1707 54.9375 78.648 54.8948 78.072H57.5988C57.6308 78.3813 57.7748 78.632 58.0308 78.824C58.2868 79.016 58.6015 79.112 58.9748 79.112C59.3161 79.112 59.5775 79.048 59.7588 78.92C59.9508 78.7813 60.0468 78.6053 60.0468 78.392C60.0468 78.136 59.9135 77.9493 59.6468 77.832C59.3801 77.704 58.9481 77.5653 58.3508 77.416C57.7108 77.2667 57.1775 77.112 56.7508 76.952C56.3241 76.7813 55.9561 76.52 55.6468 76.168C55.3375 75.8053 55.1828 75.32 55.1828 74.712C55.1828 74.2 55.3215 73.736 55.5988 73.32C55.8868 72.8933 56.3028 72.5573 56.8468 72.312C57.4015 72.0667 58.0575 71.944 58.8148 71.944C59.9348 71.944 60.8148 72.2213 61.4548 72.776C62.1055 73.3307 62.4788 74.0667 62.5748 74.984H60.0468C60.0041 74.6747 59.8655 74.4293 59.6308 74.248C59.4068 74.0667 59.1081 73.976 58.7348 73.976C58.4148 73.976 58.1695 74.04 57.9988 74.168C57.8281 74.2853 57.7428 74.4507 57.7428 74.664C57.7428 74.92 57.8761 75.112 58.1428 75.24C58.4201 75.368 58.8468 75.496 59.4228 75.624C60.0841 75.7947 60.6228 75.9653 61.0388 76.136C61.4548 76.296 61.8175 76.5627 62.1268 76.936C62.4468 77.2987 62.6121 77.7893 62.6228 78.408C62.6228 78.9307 62.4735 79.4 62.1748 79.816C61.8868 80.2213 61.4655 80.5413 60.9108 80.776C60.3668 81.0107 59.7321 81.128 59.0068 81.128ZM69.7847 71.976C70.8087 71.976 71.63 72.3173 72.2487 73C72.8674 73.672 73.1767 74.6 73.1767 75.784V81H70.4567V76.152C70.4567 75.5547 70.302 75.0907 69.9927 74.76C69.6834 74.4293 69.2674 74.264 68.7447 74.264C68.222 74.264 67.806 74.4293 67.4967 74.76C67.1874 75.0907 67.0327 75.5547 67.0327 76.152V81H64.2967V69.16H67.0327V73.272C67.31 72.8773 67.6887 72.5627 68.1687 72.328C68.6487 72.0933 69.1874 71.976 69.7847 71.976Z" fill="black"/>
<circle cx="58" cy="32" r="32" fill="#092C4C"/>
<path d="M61.7402 19C56.5856 19 52.0842 22.958 49.5789 26.3444L44.5756 21.5712C43.8806 20.9078 42.8431 21.6146 43.0207 22.6306L44.406 30.5625L43.0201 38.4951C42.8425 39.5112 43.8801 40.2172 44.575 39.5545L49.5783 34.7814C52.0837 38.167 56.5856 42.125 61.7402 42.125C69.6155 42.125 76.0001 32.875 76.0001 30.5625C76.0001 28.25 69.6155 19 61.7402 19ZM66.7492 32.2969C65.9901 32.2969 65.3742 31.52 65.3742 30.5625C65.3742 29.6043 65.9901 28.8281 66.7492 28.8281C67.5089 28.8281 68.1242 29.6043 68.1242 30.5625C68.1242 31.52 67.5083 32.2969 66.7492 32.2969Z" fill="white"/>
</svg>
