<svg width="115" height="84" viewBox="0 0 115 84" fill="none" xmlns="http://www.w3.org/2000/svg">
<circle cx="59" cy="32" r="32" fill="#092C4C"/>
<path d="M25.4466 69.768V81H22.7106V76.376H18.4546V81H15.7186V69.768H18.4546V74.168H22.7106V69.768H25.4466ZM26.8777 76.52C26.8777 75.6027 27.0484 74.7973 27.3897 74.104C27.7417 73.4107 28.2164 72.8773 28.8137 72.504C29.411 72.1307 30.0777 71.944 30.8137 71.944C31.443 71.944 31.9924 72.072 32.4617 72.328C32.9417 72.584 33.3097 72.92 33.5657 73.336V72.072H36.3017V81H33.5657V79.736C33.299 80.152 32.9257 80.488 32.4457 80.744C31.9764 81 31.427 81.128 30.7977 81.128C30.0724 81.128 29.411 80.9413 28.8137 80.568C28.2164 80.184 27.7417 79.6453 27.3897 78.952C27.0484 78.248 26.8777 77.4373 26.8777 76.52ZM33.5657 76.536C33.5657 75.8533 33.3737 75.3147 32.9897 74.92C32.6164 74.5253 32.1577 74.328 31.6137 74.328C31.0697 74.328 30.6057 74.5253 30.2217 74.92C29.8484 75.304 29.6617 75.8373 29.6617 76.52C29.6617 77.2027 29.8484 77.7467 30.2217 78.152C30.6057 78.5467 31.0697 78.744 31.6137 78.744C32.1577 78.744 32.6164 78.5467 32.9897 78.152C33.3737 77.7573 33.5657 77.2187 33.5657 76.536ZM43.7211 71.976C44.7664 71.976 45.5984 72.3173 46.2171 73C46.8464 73.672 47.1611 74.6 47.1611 75.784V81H44.4411V76.152C44.4411 75.5547 44.2864 75.0907 43.9771 74.76C43.6677 74.4293 43.2517 74.264 42.7291 74.264C42.2064 74.264 41.7904 74.4293 41.4811 74.76C41.1717 75.0907 41.0171 75.5547 41.0171 76.152V81H38.2811V72.072H41.0171V73.256C41.2944 72.8613 41.6677 72.552 42.1371 72.328C42.6064 72.0933 43.1344 71.976 43.7211 71.976ZM57.8783 72.072V81H55.1423V79.784C54.865 80.1787 54.4863 80.4987 54.0063 80.744C53.537 80.9787 53.0143 81.096 52.4383 81.096C51.7556 81.096 51.153 80.9467 50.6303 80.648C50.1076 80.3387 49.7023 79.896 49.4143 79.32C49.1263 78.744 48.9823 78.0667 48.9823 77.288V72.072H51.7023V76.92C51.7023 77.5173 51.857 77.9813 52.1663 78.312C52.4756 78.6427 52.8916 78.808 53.4143 78.808C53.9476 78.808 54.369 78.6427 54.6783 78.312C54.9876 77.9813 55.1423 77.5173 55.1423 76.92V72.072H57.8783ZM65.2996 81L62.5796 77.256V81H59.8436V69.16H62.5796V75.704L65.2836 72.072H68.6596L64.9476 76.552L68.6916 81H65.2996ZM75.1902 81L72.4702 77.256V81H69.7342V69.16H72.4702V75.704L75.1742 72.072H78.5502L74.8382 76.552L78.5822 81H75.1902ZM79.0808 76.52C79.0808 75.6027 79.2515 74.7973 79.5928 74.104C79.9448 73.4107 80.4195 72.8773 81.0168 72.504C81.6141 72.1307 82.2808 71.944 83.0168 71.944C83.6461 71.944 84.1955 72.072 84.6648 72.328C85.1448 72.584 85.5128 72.92 85.7688 73.336V72.072H88.5048V81H85.7688V79.736C85.5021 80.152 85.1288 80.488 84.6488 80.744C84.1795 81 83.6301 81.128 83.0008 81.128C82.2755 81.128 81.6141 80.9413 81.0168 80.568C80.4195 80.184 79.9448 79.6453 79.5928 78.952C79.2515 78.248 79.0808 77.4373 79.0808 76.52ZM85.7688 76.536C85.7688 75.8533 85.5768 75.3147 85.1928 74.92C84.8195 74.5253 84.3608 74.328 83.8168 74.328C83.2728 74.328 82.8088 74.5253 82.4248 74.92C82.0515 75.304 81.8648 75.8373 81.8648 76.52C81.8648 77.2027 82.0515 77.7467 82.4248 78.152C82.8088 78.5467 83.2728 78.744 83.8168 78.744C84.3608 78.744 84.8195 78.5467 85.1928 78.152C85.5768 77.7573 85.7688 77.2187 85.7688 76.536ZM95.9722 71.976C96.9962 71.976 97.8175 72.3173 98.4362 73C99.0549 73.672 99.3642 74.6 99.3642 75.784V81H96.6442V76.152C96.6442 75.5547 96.4895 75.0907 96.1802 74.76C95.8709 74.4293 95.4549 74.264 94.9322 74.264C94.4095 74.264 93.9935 74.4293 93.6842 74.76C93.3749 75.0907 93.2202 75.5547 93.2202 76.152V81H90.4842V69.16H93.2202V73.272C93.4975 72.8773 93.8762 72.5627 94.3562 72.328C94.8362 72.0933 95.3749 71.976 95.9722 71.976Z" fill="black"/>
<path d="M46.25 19.3125C46.25 19.3125 45.1875 21.4545 45.1875 22.5C45.1875 23.0844 45.6656 23.5625 46.25 23.5625C46.8344 23.5625 47.3125 23.0844 47.3125 22.5C47.3125 21.5034 46.25 19.3125 46.25 19.3125ZM50.5 19.3125C50.5 19.3125 49.4375 21.4545 49.4375 22.5C49.4375 23.0844 49.9156 23.5625 50.5 23.5625C51.0844 23.5625 51.5625 23.0844 51.5625 22.5C51.5625 21.5034 50.5 19.3125 50.5 19.3125ZM54.75 19.3125C54.75 19.3125 53.6875 21.4545 53.6875 22.5C53.6875 23.0844 54.1656 23.5625 54.75 23.5625C55.3344 23.5625 55.8125 23.0844 55.8125 22.5C55.8125 21.5034 54.75 19.3125 54.75 19.3125ZM59 19.3125C59 19.3125 57.9375 21.4545 57.9375 22.5C57.9375 23.0844 58.4156 23.5625 59 23.5625C59.5844 23.5625 60.0625 23.0844 60.0625 22.5C60.0625 21.5034 59 19.3125 59 19.3125ZM63.25 19.3125C63.25 19.3125 62.1875 21.4545 62.1875 22.5C62.1875 23.0844 62.6656 23.5625 63.25 23.5625C63.8344 23.5625 64.3125 23.0844 64.3125 22.5C64.3125 21.5034 63.25 19.3125 63.25 19.3125ZM67.5 19.3125C67.5 19.3125 66.4375 21.4545 66.4375 22.5C66.4375 23.0844 66.9156 23.5625 67.5 23.5625C68.0844 23.5625 68.5625 23.0844 68.5625 22.5C68.5625 21.5034 67.5 19.3125 67.5 19.3125ZM71.75 19.3125C71.75 19.3125 70.6875 21.4545 70.6875 22.5C70.6875 23.0844 71.1656 23.5625 71.75 23.5625C72.3344 23.5625 72.8125 23.0844 72.8125 22.5C72.8125 21.5034 71.75 19.3125 71.75 19.3125ZM45.1875 24.625C45.1875 31.8553 50.84 37.8149 57.9375 38.3716V40.5625H52.625V42.6875H65.375V40.5625H60.0625V38.3706C67.16 37.8149 72.8125 31.8553 72.8125 24.625H70.6875C70.6875 30.7014 66.0019 35.7069 60.0625 36.2466V34.1216C64.8193 33.5819 68.5625 29.5178 68.5625 24.625H66.4375C66.4375 28.3608 63.6569 31.4441 60.0625 31.9626V29.8376C62.4744 29.3393 64.3125 27.1771 64.3125 24.625H62.1875C62.1875 26.0062 61.2908 27.1697 60.0625 27.6138V24.625H57.9375V27.6138C56.7092 27.1697 55.8125 26.0073 55.8125 24.625H53.6875C53.6875 27.1771 55.5256 29.3404 57.9375 29.8376V31.9626C54.3431 31.4441 51.5625 28.3608 51.5625 24.625H49.4375C49.4375 29.5178 53.1807 33.5819 57.9375 34.1216V36.2466C51.9981 35.7069 47.3125 30.7004 47.3125 24.625H45.1875Z" fill="white"/>
</svg>
