<svg width="138" height="84" viewBox="0 0 138 84" fill="none" xmlns="http://www.w3.org/2000/svg">
<path d="M101 32C101 40.4869 97.6286 48.6263 91.6274 54.6274C85.6263 60.6286 77.4869 64 69 64C60.5131 64 52.3737 60.6286 46.3726 54.6274C40.3714 48.6263 37 40.4869 37 32C37 23.5131 40.3714 15.3737 46.3726 9.37258C52.3737 3.37142 60.5131 0 69 0C77.4869 0 85.6263 3.37142 91.6274 9.37258C97.6286 15.3737 101 23.5131 101 32V32ZM69 14C69 13.4696 68.7893 12.9609 68.4142 12.5858C68.0391 12.2107 67.5304 12 67 12C66.4696 12 65.9609 12.2107 65.5858 12.5858C65.2107 12.9609 65 13.4696 65 14V36C65.0001 36.3525 65.0934 36.6988 65.2704 37.0036C65.4474 37.3085 65.7019 37.5611 66.008 37.736L80.008 45.736C80.4674 45.9843 81.0058 46.043 81.5079 45.8997C82.0101 45.7563 82.4363 45.4222 82.6954 44.9688C82.9545 44.5154 83.026 43.9786 82.8945 43.4732C82.7631 42.9677 82.4392 42.5338 81.992 42.264L69 34.84V14Z" fill="#092C4C"/>
<path d="M77.3782 27.4545H76.0774L74.457 28.4805V29.7077L75.956 28.7681H75.9943V34H77.3782V27.4545ZM79.3997 34.0831C79.8088 34.0831 80.1635 33.7411 80.1667 33.3161C80.1635 32.8974 79.8088 32.5554 79.3997 32.5554C78.9778 32.5554 78.6294 32.8974 78.6326 33.3161C78.6294 33.7411 78.9778 34.0831 79.3997 34.0831ZM83.6096 34.0895C85.067 34.0895 86.0578 33.1403 86.0546 31.8171C86.0578 30.5643 85.1821 29.663 84.0028 29.663C83.4275 29.663 82.9321 29.9027 82.702 30.2255H82.6636L82.833 28.5859H85.6934V27.4545H81.692L81.382 30.9062L82.6125 31.1268C82.8138 30.8551 83.2037 30.6857 83.5905 30.6857C84.2488 30.6889 84.7219 31.1651 84.7219 31.8523C84.7219 32.533 84.2584 33.0028 83.6096 33.0028C83.0599 33.0028 82.6157 32.6577 82.5837 32.1495H81.2414C81.267 33.2809 82.2545 34.0895 83.6096 34.0895Z" fill="white"/>
<path d="M23.5436 73.864V71.32H27.9756V83H25.1276V73.864H23.5436ZM38.3578 73.976C39.3818 73.976 40.2031 74.3173 40.8218 75C41.4405 75.672 41.7498 76.6 41.7498 77.784V83H39.0298V78.152C39.0298 77.5547 38.8751 77.0907 38.5658 76.76C38.2565 76.4293 37.8405 76.264 37.3178 76.264C36.7951 76.264 36.3791 76.4293 36.0698 76.76C35.7605 77.0907 35.6058 77.5547 35.6058 78.152V83H32.8698V71.16H35.6058V75.272C35.8831 74.8773 36.2618 74.5627 36.7418 74.328C37.2218 74.0933 37.7605 73.976 38.3578 73.976ZM46.0671 75.56C46.3871 75.0693 46.7871 74.6853 47.2671 74.408C47.7471 74.12 48.2804 73.976 48.8671 73.976V76.872H48.1151C47.4324 76.872 46.9204 77.0213 46.5791 77.32C46.2377 77.608 46.0671 78.12 46.0671 78.856V83H43.3311V74.072H46.0671V75.56ZM52.7494 74.616C52.7921 73.4747 53.1654 72.5947 53.8694 71.976C54.5734 71.3573 55.5281 71.048 56.7334 71.048C57.5334 71.048 58.2161 71.1867 58.7814 71.464C59.3574 71.7413 59.7894 72.12 60.0774 72.6C60.3761 73.08 60.5254 73.6187 60.5254 74.216C60.5254 74.92 60.3494 75.496 59.9974 75.944C59.6454 76.3813 59.2348 76.68 58.7654 76.84V76.904C59.3734 77.1067 59.8534 77.4427 60.2054 77.912C60.5574 78.3813 60.7334 78.984 60.7334 79.72C60.7334 80.3813 60.5788 80.968 60.2694 81.48C59.9708 81.9813 59.5281 82.376 58.9414 82.664C58.3654 82.952 57.6774 83.096 56.8774 83.096C55.5974 83.096 54.5734 82.7813 53.8054 82.152C53.0481 81.5227 52.6481 80.5733 52.6054 79.304H55.2614C55.2721 79.7733 55.4054 80.1467 55.6614 80.424C55.9174 80.6907 56.2908 80.824 56.7814 80.824C57.1974 80.824 57.5174 80.7067 57.7414 80.472C57.9761 80.2267 58.0934 79.9067 58.0934 79.512C58.0934 79 57.9281 78.632 57.5974 78.408C57.2774 78.1733 56.7601 78.056 56.0454 78.056H55.5334V75.832H56.0454C56.5894 75.832 57.0268 75.7413 57.3574 75.56C57.6988 75.368 57.8694 75.032 57.8694 74.552C57.8694 74.168 57.7628 73.8693 57.5494 73.656C57.3361 73.4427 57.0428 73.336 56.6694 73.336C56.2641 73.336 55.9601 73.4587 55.7574 73.704C55.5654 73.9493 55.4534 74.2533 55.4214 74.616H52.7494ZM62.0209 77C62.0209 75.1653 62.3729 73.72 63.0769 72.664C63.7916 71.608 64.9383 71.08 66.5169 71.08C68.0956 71.08 69.2369 71.608 69.9409 72.664C70.6556 73.72 71.0129 75.1653 71.0129 77C71.0129 78.856 70.6556 80.312 69.9409 81.368C69.2369 82.424 68.0956 82.952 66.5169 82.952C64.9383 82.952 63.7916 82.424 63.0769 81.368C62.3729 80.312 62.0209 78.856 62.0209 77ZM68.3249 77C68.3249 75.9227 68.2076 75.096 67.9729 74.52C67.7383 73.9333 67.2529 73.64 66.5169 73.64C65.7809 73.64 65.2956 73.9333 65.0609 74.52C64.8263 75.096 64.7089 75.9227 64.7089 77C64.7089 77.7253 64.7516 78.328 64.8369 78.808C64.9223 79.2773 65.0929 79.6613 65.3489 79.96C65.6156 80.248 66.0049 80.392 66.5169 80.392C67.0289 80.392 67.4129 80.248 67.6689 79.96C67.9356 79.6613 68.1116 79.2773 68.1969 78.808C68.2823 78.328 68.3249 77.7253 68.3249 77ZM86.8731 73.976C87.9824 73.976 88.8624 74.312 89.5131 74.984C90.1744 75.656 90.5051 76.5893 90.5051 77.784V83H87.7851V78.152C87.7851 77.576 87.6304 77.1333 87.3211 76.824C87.0224 76.504 86.6064 76.344 86.0731 76.344C85.5397 76.344 85.1184 76.504 84.8091 76.824C84.5104 77.1333 84.3611 77.576 84.3611 78.152V83H81.6411V78.152C81.6411 77.576 81.4864 77.1333 81.1771 76.824C80.8784 76.504 80.4624 76.344 79.9291 76.344C79.3957 76.344 78.9744 76.504 78.6651 76.824C78.3664 77.1333 78.2171 77.576 78.2171 78.152V83H75.4811V74.072H78.2171V75.192C78.4944 74.8187 78.8571 74.5253 79.3051 74.312C79.7531 74.088 80.2597 73.976 80.8251 73.976C81.4971 73.976 82.0944 74.12 82.6171 74.408C83.1504 74.696 83.5664 75.1067 83.8651 75.64C84.1744 75.1493 84.5957 74.7493 85.1291 74.44C85.6624 74.1307 86.2437 73.976 86.8731 73.976ZM93.4746 73.144C92.9946 73.144 92.5999 73.0053 92.2906 72.728C91.9919 72.44 91.8426 72.088 91.8426 71.672C91.8426 71.2453 91.9919 70.8933 92.2906 70.616C92.5999 70.328 92.9946 70.184 93.4746 70.184C93.9439 70.184 94.3279 70.328 94.6266 70.616C94.9359 70.8933 95.0906 71.2453 95.0906 71.672C95.0906 72.088 94.9359 72.44 94.6266 72.728C94.3279 73.0053 93.9439 73.144 93.4746 73.144ZM94.8346 74.072V83H92.0986V74.072H94.8346ZM101.937 73.976C102.983 73.976 103.815 74.3173 104.433 75C105.063 75.672 105.377 76.6 105.377 77.784V83H102.657V78.152C102.657 77.5547 102.503 77.0907 102.193 76.76C101.884 76.4293 101.468 76.264 100.945 76.264C100.423 76.264 100.007 76.4293 99.6973 76.76C99.388 77.0907 99.2333 77.5547 99.2333 78.152V83H96.4973V74.072H99.2333V75.256C99.5106 74.8613 99.884 74.552 100.353 74.328C100.823 74.0933 101.351 73.976 101.937 73.976ZM110.591 83.128C109.812 83.128 109.119 82.9947 108.511 82.728C107.903 82.4613 107.423 82.0987 107.071 81.64C106.719 81.1707 106.521 80.648 106.479 80.072H109.183C109.215 80.3813 109.359 80.632 109.615 80.824C109.871 81.016 110.185 81.112 110.559 81.112C110.9 81.112 111.161 81.048 111.343 80.92C111.535 80.7813 111.631 80.6053 111.631 80.392C111.631 80.136 111.497 79.9493 111.231 79.832C110.964 79.704 110.532 79.5653 109.935 79.416C109.295 79.2667 108.761 79.112 108.335 78.952C107.908 78.7813 107.54 78.52 107.231 78.168C106.921 77.8053 106.767 77.32 106.767 76.712C106.767 76.2 106.905 75.736 107.183 75.32C107.471 74.8933 107.887 74.5573 108.431 74.312C108.985 74.0667 109.641 73.944 110.399 73.944C111.519 73.944 112.399 74.2213 113.039 74.776C113.689 75.3307 114.063 76.0667 114.159 76.984H111.631C111.588 76.6747 111.449 76.4293 111.215 76.248C110.991 76.0667 110.692 75.976 110.319 75.976C109.999 75.976 109.753 76.04 109.583 76.168C109.412 76.2853 109.327 76.4507 109.327 76.664C109.327 76.92 109.46 77.112 109.727 77.24C110.004 77.368 110.431 77.496 111.007 77.624C111.668 77.7947 112.207 77.9653 112.623 78.136C113.039 78.296 113.401 78.5627 113.711 78.936C114.031 79.2987 114.196 79.7893 114.207 80.408C114.207 80.9307 114.057 81.4 113.759 81.816C113.471 82.2213 113.049 82.5413 112.495 82.776C111.951 83.0107 111.316 83.128 110.591 83.128Z" fill="black"/>
</svg>
