<svg width="115" height="84" viewBox="0 0 115 84" fill="none" xmlns="http://www.w3.org/2000/svg">
<path d="M36.3999 78.888H39.9839V81H33.6639V69.768H36.3999V78.888ZM50.1049 72.072V81H47.3689V79.784C47.0915 80.1787 46.7129 80.4987 46.2329 80.744C45.7635 80.9787 45.2409 81.096 44.6649 81.096C43.9822 81.096 43.3795 80.9467 42.8569 80.648C42.3342 80.3387 41.9289 79.896 41.6409 79.32C41.3529 78.744 41.2089 78.0667 41.2089 77.288V72.072H43.9289V76.92C43.9289 77.5173 44.0835 77.9813 44.3929 78.312C44.7022 78.6427 45.1182 78.808 45.6409 78.808C46.1742 78.808 46.5955 78.6427 46.9049 78.312C47.2142 77.9813 47.3689 77.5173 47.3689 76.92V72.072H50.1049ZM57.5101 71.976C58.5555 71.976 59.3875 72.3173 60.0061 73C60.6355 73.672 60.9501 74.6 60.9501 75.784V81H58.2301V76.152C58.2301 75.5547 58.0755 75.0907 57.7661 74.76C57.4568 74.4293 57.0408 74.264 56.5181 74.264C55.9955 74.264 55.5795 74.4293 55.2701 74.76C54.9608 75.0907 54.8061 75.5547 54.8061 76.152V81H52.0701V72.072H54.8061V73.256C55.0835 72.8613 55.4568 72.552 55.9261 72.328C56.3955 72.0933 56.9235 71.976 57.5101 71.976ZM62.3074 76.536C62.3074 75.608 62.494 74.7973 62.8674 74.104C63.2514 73.4107 63.7794 72.8773 64.4514 72.504C65.134 72.1307 65.9127 71.944 66.7874 71.944C67.9074 71.944 68.8407 72.2373 69.5874 72.824C70.3447 73.4107 70.8407 74.2373 71.0754 75.304H68.1634C67.918 74.6213 67.4434 74.28 66.7394 74.28C66.238 74.28 65.838 74.4773 65.5394 74.872C65.2407 75.256 65.0914 75.8107 65.0914 76.536C65.0914 77.2613 65.2407 77.8213 65.5394 78.216C65.838 78.6 66.238 78.792 66.7394 78.792C67.4434 78.792 67.918 78.4507 68.1634 77.768H71.0754C70.8407 78.8133 70.3447 79.6347 69.5874 80.232C68.83 80.8293 67.8967 81.128 66.7874 81.128C65.9127 81.128 65.134 80.9413 64.4514 80.568C63.7794 80.1947 63.2514 79.6613 62.8674 78.968C62.494 78.2747 62.3074 77.464 62.3074 76.536ZM78.0269 71.976C79.0509 71.976 79.8722 72.3173 80.4909 73C81.1095 73.672 81.4189 74.6 81.4189 75.784V81H78.6989V76.152C78.6989 75.5547 78.5442 75.0907 78.2349 74.76C77.9255 74.4293 77.5095 74.264 76.9869 74.264C76.4642 74.264 76.0482 74.4293 75.7389 74.76C75.4295 75.0907 75.2749 75.5547 75.2749 76.152V81H72.5389V69.16H75.2749V73.272C75.5522 72.8773 75.9309 72.5627 76.4109 72.328C76.8909 72.0933 77.4295 71.976 78.0269 71.976Z" fill="black"/>
<circle cx="59" cy="32" r="32" fill="#092C4C"/>
<path d="M52.2675 45.6945L52.6292 45.9509C52.8715 46.1431 53.1737 46.2626 53.5066 46.2626C53.7634 46.262 54.0151 46.1913 54.2346 46.0581C54.4541 45.925 54.6331 45.7344 54.7523 45.5071C55.1547 46.2357 55.7431 45.193 57.2631 44.632C57.3972 44.8847 57.8992 45.3663 59.2455 45.9457L59.4609 45.5302C59.4623 45.5307 59.6441 45.6128 59.7404 45.6388C59.7551 45.6435 59.7692 45.6487 59.7843 45.653C59.8896 45.678 59.9987 45.6945 60.1121 45.6945C60.2221 45.6934 60.3316 45.6794 60.4384 45.653C60.4969 45.6388 60.5541 45.6213 60.6098 45.6001C60.6334 45.5911 60.6575 45.584 60.6811 45.5736C60.7865 45.5268 60.8854 45.4665 60.9753 45.3942C60.9928 45.38 61.0102 45.3659 61.0272 45.3508C61.1627 45.2355 61.2742 45.0967 61.3578 44.9385L61.3587 44.939C61.5004 45.1954 61.6855 45.4206 61.9089 45.6076C61.9941 45.6808 62.0846 45.7477 62.1794 45.8079C62.3084 45.888 62.4449 45.9552 62.587 46.0086C62.7207 46.0599 62.8588 46.0988 62.9997 46.1247C63.1352 46.1493 63.2736 46.1667 63.4167 46.1667H63.4176C63.5621 46.1667 63.7009 46.1493 63.8374 46.1243C63.9797 46.0981 64.1191 46.0586 64.2539 46.0062C64.3035 45.9878 64.3521 45.9689 64.4003 45.9467C64.5581 45.8728 64.7073 45.7817 64.8451 45.6752C64.8749 45.6516 64.9032 45.6279 64.9325 45.6034C65.1517 45.4183 65.3353 45.1947 65.4741 44.9437L65.4774 44.939C65.5709 45.1154 65.7008 45.2699 65.8585 45.3923C65.9492 45.4647 66.0485 45.5256 66.1541 45.5736C66.1778 45.584 66.2028 45.5911 66.2278 45.6006C66.3859 45.6602 66.5532 45.692 66.7222 45.6945H66.7232C66.8105 45.6945 66.8936 45.6841 66.9758 45.669C67.0607 45.6534 67.1439 45.6297 67.2242 45.5982C67.2464 45.5902 67.2691 45.584 67.2903 45.5746C67.4187 45.5167 67.5378 45.44 67.6435 45.347C67.7739 45.2341 67.8825 45.0991 67.9646 44.9461C67.9665 44.9437 67.9684 44.9413 67.9694 44.939C68.111 45.1959 68.2971 45.4216 68.5209 45.6081C68.606 45.6808 68.6959 45.7475 68.7901 45.8079C68.9189 45.8871 69.0549 45.9541 69.1962 46.0081C69.3303 46.0599 69.4689 46.0989 69.6103 46.1247C69.7459 46.1493 69.8842 46.1667 70.0278 46.1667H70.0287C70.1742 46.1667 70.3144 46.1493 70.4518 46.1243C70.4816 46.1186 70.5104 46.1143 70.5397 46.1077C70.6624 46.0799 70.7824 46.043 70.8971 45.9972C70.9396 45.9802 70.9802 45.9609 71.0218 45.9415C71.2285 45.843 71.4202 45.7159 71.5913 45.5637C71.6999 45.4674 71.7977 45.3607 71.8874 45.2464C71.8968 45.2336 71.9082 45.2223 71.9181 45.2096C72.0314 45.295 72.1495 45.3678 72.2722 45.4301L72.2883 45.4386C72.419 45.5038 72.5556 45.5565 72.6963 45.5958C72.8111 45.6279 72.9263 45.6525 73.0439 45.6667C73.0736 45.6704 73.1034 45.6728 73.1336 45.6756C73.2394 45.6846 73.3442 45.6889 73.45 45.6841C73.4958 45.6818 73.5411 45.6752 73.5869 45.6704C73.6785 45.661 73.7697 45.6501 73.8599 45.6298C73.9222 45.6161 73.9826 45.5944 74.044 45.5751C74.1182 45.5519 74.1923 45.5311 74.2646 45.5004C74.3444 45.4669 74.419 45.4221 74.4955 45.3791C74.5474 45.3498 74.6012 45.3262 74.6508 45.2922C74.7755 45.2091 74.895 45.1137 75.005 45.0032C75.253 44.755 75.4426 44.4547 75.56 44.1241C75.6774 43.7935 75.7196 43.4409 75.6837 43.0919C75.6477 42.7429 75.5345 42.4063 75.3521 42.1065C75.1698 41.8068 74.923 41.5515 74.6296 41.3591C74.7259 41.2882 74.8223 41.2174 74.9096 41.1305C75.352 40.6875 75.6004 40.0869 75.6003 39.4609C75.6002 38.8348 75.3516 38.2343 74.9091 37.7914C74.7791 37.6631 74.6344 37.5506 74.478 37.4561C74.3913 37.4031 74.3012 37.3558 74.2084 37.3145C73.9666 37.204 73.707 37.1378 73.4419 37.119C73.1552 37.0943 72.8663 37.1223 72.5896 37.2016L72.5849 37.203C72.6585 36.9638 72.6677 36.7093 72.6113 36.4654C72.6089 36.456 72.6052 36.4475 72.6028 36.438C72.5765 36.3369 72.5392 36.2391 72.4914 36.1462C72.4786 36.1221 72.4668 36.098 72.4531 36.0739C72.3937 35.9698 72.3214 35.8737 72.2378 35.7878L72.2373 35.7873L72.2359 35.7864C72.1508 35.7034 72.0556 35.6315 71.9526 35.5724C71.9275 35.5583 71.9025 35.546 71.877 35.5328C71.7856 35.4858 71.6893 35.4491 71.5899 35.4232C71.579 35.4204 71.5691 35.4161 71.5583 35.4138C71.3154 35.3579 71.0621 35.367 70.8239 35.4402L70.8225 35.4407C70.9035 35.1609 70.9319 34.8685 70.9061 34.5784C70.8973 34.4667 70.8808 34.3558 70.8565 34.2464C70.7998 33.9988 70.7025 33.7624 70.5685 33.5466C70.4747 33.3908 70.363 33.2466 70.2356 33.1169H70.2341V33.1159C70.1339 33.0175 70.0248 32.9285 69.9083 32.8501C69.729 32.7259 69.5328 32.6282 69.3256 32.5601C69.1818 32.51 69.0332 32.4749 68.8822 32.4553L68.8444 32.4515C68.531 32.4143 68.2134 32.4405 67.9103 32.5285C67.9659 32.3472 67.9843 32.1566 67.9646 31.9681C67.9449 31.7796 67.8874 31.5969 67.7956 31.4311C67.7861 31.4155 67.7795 31.3999 67.7706 31.3843C67.7128 31.2858 67.6432 31.1948 67.5632 31.1132C67.5278 31.0778 67.6969 30.6311 67.6577 30.6032C67.2837 30.2991 66.8091 30.2722 66.3544 30.3482C61.1061 31.2313 61.9518 26.7594 62.0987 26.2744C62.2333 25.8291 61.9731 24.5857 61.685 24.0412L61.3412 23.9515C61.3257 23.9227 61.2633 24.2783 61.2468 24.25C61.2137 24.1947 61.1831 24.1395 61.1453 24.0856C61.0686 23.9716 60.9815 23.8649 60.8851 23.7669C60.7837 23.6677 60.6736 23.5779 60.5559 23.4987C60.4365 23.4158 60.3094 23.3446 60.1763 23.2862C60.1328 23.2673 60.0899 23.2479 60.0455 23.2314C59.8792 23.1694 59.7063 23.1271 59.5303 23.1053C59.4911 23.1006 59.4519 23.0977 59.4122 23.0944C59.1273 23.0704 58.8404 23.0986 58.5655 23.1776L58.5608 23.1785C58.6347 22.9396 58.6439 22.6854 58.5873 22.4418C58.5854 22.4324 58.5811 22.4225 58.5778 22.4116C58.5522 22.3123 58.5156 22.2162 58.4687 22.125C58.4555 22.099 58.4432 22.074 58.4286 22.0485C58.3703 21.947 58.2995 21.8533 58.218 21.7694C58.2166 21.7675 58.2156 21.7651 58.2137 21.7632C58.2118 21.7609 58.209 21.7599 58.2071 21.7581C58.1237 21.6776 58.0305 21.6078 57.9299 21.5503C57.9039 21.5342 57.8775 21.5215 57.8506 21.5078C57.7615 21.4623 57.6678 21.4265 57.571 21.4011C57.5578 21.3977 57.5455 21.3926 57.5323 21.3892C57.2913 21.3343 57.0401 21.3434 56.8037 21.4157C56.8018 21.4157 56.7999 21.4157 56.798 21.4166C57.0294 20.6176 56.8405 19.7223 56.2106 19.0924C55.9914 18.8731 55.7311 18.6991 55.4447 18.5804C55.1583 18.4618 54.8513 18.4007 54.5412 18.4007C54.2312 18.4007 53.9242 18.4618 53.6378 18.5804C53.3514 18.6991 53.0911 18.8731 52.8719 19.0924C52.7884 19.1796 52.7118 19.2732 52.6429 19.3724C52.4505 19.079 52.1952 18.8323 51.8955 18.65C51.5958 18.4677 51.2592 18.3545 50.9102 18.3186C50.5613 18.2826 50.2087 18.3249 49.8781 18.4424C49.5476 18.5598 49.2473 18.7494 48.9992 18.9974C48.8915 19.1058 48.7945 19.2244 48.7098 19.3516C48.6777 19.3993 48.655 19.4508 48.6271 19.4994C48.5823 19.5783 48.536 19.6567 48.5006 19.7402C48.4718 19.8082 48.4519 19.8781 48.4297 19.949C48.4094 20.0141 48.3863 20.0788 48.3717 20.1449C48.3538 20.231 48.3407 20.3181 48.3325 20.4056C48.3273 20.4561 48.3197 20.5057 48.3183 20.5567C48.3131 20.6578 48.3174 20.7588 48.3259 20.8604C48.3292 20.8948 48.3315 20.9293 48.3353 20.9633C48.3495 21.0766 48.3731 21.1881 48.4043 21.2986L48.4217 21.3581C48.4616 21.4883 48.5129 21.6147 48.5752 21.7359C48.6366 21.8558 48.7069 21.9706 48.7896 22.0806L48.7919 22.0834C48.5473 22.2667 48.34 22.4951 48.1814 22.7563C48.1374 22.8278 48.0974 22.9016 48.0614 22.9773C48.0411 23.0198 48.0213 23.0614 48.0038 23.1053C47.9578 23.2206 47.9211 23.3393 47.8938 23.4604C47.8872 23.4902 47.8824 23.5204 47.8772 23.5501C47.8504 23.6893 47.8362 23.8306 47.8347 23.9723C47.8364 24.1547 47.8592 24.3363 47.9027 24.5135C47.9409 24.6728 47.9955 24.8277 48.0657 24.9758C48.1044 25.0561 48.1459 25.1349 48.1932 25.21C48.2528 25.3043 48.319 25.3943 48.3915 25.4792C48.5794 25.7035 48.8056 25.89 49.0625 26.0317C48.8867 26.1252 48.7325 26.2547 48.6101 26.4118C48.5373 26.5027 48.4761 26.6023 48.4279 26.7084C48.4175 26.732 48.4104 26.7579 48.4005 26.783C48.3703 26.8619 48.3476 26.9435 48.3325 27.0266C48.3169 27.1083 48.307 27.1919 48.307 27.2779C48.3076 27.3881 48.3215 27.4978 48.3485 27.6046C48.3627 27.6622 48.3797 27.718 48.4005 27.7727C48.4099 27.7978 48.4175 27.8233 48.4283 27.8474C48.4845 27.9717 48.5584 28.0872 48.6479 28.1902C48.7636 28.3267 48.9039 28.4391 49.063 28.5241C48.5464 28.8088 48.2451 29.0322 48.0553 29.5974C48.0449 29.6272 47.6138 29.3948 47.6053 29.4251C47.5448 29.6314 47.5122 29.8501 47.5122 30.0767C47.5122 30.9683 48.2857 32.5422 49.0144 32.9445C48.6933 33.115 49.2538 33.3181 49.1249 33.9924C49.0743 34.2587 48.2616 35.1508 48.2616 35.1508C48.2616 35.1508 48.9563 35.197 48.9053 35.2306C48.6111 35.4226 48.3637 35.6782 48.1814 35.9786C48.1355 36.0528 48.0939 36.1296 48.0567 36.2085C48.034 36.2581 48.0137 36.3077 47.9948 36.3582C47.9523 36.4668 47.916 36.5783 47.89 36.6944C47.8853 36.7181 47.8824 36.7421 47.8782 36.7662C47.8503 36.9073 47.8358 37.0507 47.8347 37.1945C47.8347 37.3386 47.8522 37.4774 47.8772 37.6134C47.9029 37.7546 47.9418 37.8931 47.9934 38.0271C48.047 38.1685 48.114 38.3045 48.1936 38.4332C48.2357 38.5007 48.2819 38.5635 48.3306 38.6268C48.3504 38.6527 48.3717 38.6778 48.3929 38.7023C48.5803 38.926 48.8075 39.113 49.063 39.2539C48.8872 39.3474 48.733 39.4769 48.6106 39.634C48.5378 39.7249 48.4765 39.8245 48.4283 39.9306C48.4175 39.9542 48.4104 39.9802 48.4005 40.0052C48.3703 40.0841 48.3476 40.1657 48.3325 40.2489C48.3169 40.3306 48.307 40.4141 48.307 40.5001C48.3076 40.6103 48.3215 40.72 48.3485 40.8269C48.3627 40.8849 48.3797 40.9402 48.4005 40.995C48.4099 41.02 48.4175 41.0455 48.4283 41.0696C48.4845 41.1939 48.5584 41.3094 48.6479 41.4124C48.7636 41.5489 48.9039 41.6613 49.0635 41.7463C48.8061 41.8879 48.5809 42.0735 48.3939 42.2974C48.3209 42.3823 48.2541 42.4724 48.1941 42.567C48.1137 42.6955 48.0465 42.8317 47.9934 42.9736C47.9417 43.1073 47.9028 43.2457 47.8772 43.3868C47.8522 43.5237 47.8347 43.6616 47.8347 43.8056C47.835 44.4318 48.0838 45.0322 48.5266 45.4749C48.9693 45.9177 49.5697 46.1665 50.1959 46.1667C50.3399 46.1667 50.4787 46.1493 50.6147 46.1243C50.7566 46.0984 50.8957 46.0594 51.0303 46.0076C51.1718 45.954 51.3078 45.8868 51.4364 45.8069C51.5315 45.7461 51.622 45.6786 51.7074 45.6048C51.9289 45.4192 52.2684 45.6945 52.2684 45.6945" fill="#4F4F4F"/>
<path d="M55.1754 45.8228C55.0698 45.865 54.9569 45.8859 54.8432 45.8845C54.7294 45.883 54.6171 45.8591 54.5126 45.8142C54.4081 45.7693 54.3134 45.7043 54.2341 45.6228C54.1547 45.5412 54.0922 45.4449 54.0501 45.3392L53.823 44.8509L53.3966 45.045L48.9105 33.8151L49.3681 33.6796L48.748 32.0693C48.7057 31.9636 48.6846 31.8506 48.686 31.7367C48.6873 31.6229 48.7111 31.5104 48.7559 31.4058C48.8007 31.3011 48.8657 31.2063 48.9471 31.1267C49.0286 31.0472 49.1249 30.9844 49.2306 30.9421L49.1527 30.4652L60.3378 26.0088L60.5352 26.4433L62.502 25.6405C62.7155 25.5554 62.9541 25.5585 63.1653 25.6493C63.3765 25.7401 63.543 25.911 63.6282 26.1245L65.8788 31.7864L66.3284 31.6802L68.9865 38.3343C69.1641 38.7786 68.8902 40.3431 68.4458 40.5207L58.0749 45.2892L57.8992 44.8514L55.1754 45.8233V45.8228Z" fill="#C4C4C4"/>
<path d="M73.1836 41.2948L72.5386 40.6498L53.3508 21.462L52.7048 20.816C52.5119 20.719 52.2992 20.6679 52.0833 20.6667C51.7076 20.6667 51.3473 20.816 51.0816 21.0817C50.8159 21.3474 50.6667 21.7077 50.6667 22.0834V42.389C50.6667 42.6395 50.7662 42.8797 50.9433 43.0568C51.1204 43.2339 51.3606 43.3334 51.6111 43.3334H71.9167C72.2924 43.3334 72.6527 43.1842 72.9184 42.9185C73.1841 42.6528 73.3333 42.2925 73.3333 41.9167C73.3333 41.6924 73.2767 41.4832 73.1836 41.2948Z" fill="white"/>
<path d="M73.1836 41.2948L72.5386 40.6498L53.3508 21.462L52.7048 20.816C52.5119 20.719 52.2992 20.6679 52.0833 20.6667C51.7076 20.6667 51.3473 20.816 51.0816 21.0817C50.8159 21.3474 50.6667 21.7077 50.6667 22.0834V42.389C50.6667 42.6395 50.7662 42.8797 50.9433 43.0568C51.1204 43.2339 51.3606 43.3334 51.6111 43.3334H71.9167C72.2924 43.3334 72.6527 43.1842 72.9184 42.9185C73.1841 42.6528 73.3333 42.2925 73.3333 41.9167C73.3333 41.6924 73.2767 41.4832 73.1836 41.2948Z" stroke="black" stroke-width="0.944444" stroke-miterlimit="10" stroke-linecap="round" stroke-linejoin="round"/>
<path d="M55.8611 40.0279L60.5833 35.3057" stroke="black" stroke-width="0.944444" stroke-miterlimit="10" stroke-linecap="round" stroke-linejoin="round"/>
<path d="M53.5 37.6666L58.2222 32.9443" stroke="black" stroke-width="0.944444" stroke-miterlimit="10" stroke-linecap="round" stroke-linejoin="round"/>
<path d="M53.0278 33.4166L56.3333 30.1111" stroke="black" stroke-width="0.944444" stroke-miterlimit="10" stroke-linecap="round" stroke-linejoin="round"/>
<path d="M60.1111 40.9723L63.4167 37.6667" stroke="black" stroke-width="0.944444" stroke-miterlimit="10" stroke-linecap="round" stroke-linejoin="round"/>
<path d="M61.2983 24.3349C61.1892 24.1257 61.0491 23.9341 60.8827 23.7668C60.2532 23.1369 59.3584 22.9475 58.5589 23.1784C58.6355 22.9333 58.6436 22.6719 58.5824 22.4225C58.5213 22.173 58.3931 21.9451 58.2118 21.7632C58.0299 21.5821 57.802 21.4541 57.5527 21.393C57.3033 21.3319 57.0421 21.3401 56.7971 21.4165C57.028 20.6175 56.8386 19.7222 56.2087 19.0923C55.9895 18.873 55.7292 18.699 55.4428 18.5803C55.1564 18.4617 54.8494 18.4006 54.5394 18.4006C54.2293 18.4006 53.9223 18.4617 53.6359 18.5803C53.3495 18.699 53.0892 18.873 52.8701 19.0923C52.7866 19.1796 52.7102 19.2734 52.6415 19.3728C52.4493 19.0792 52.194 18.8321 51.8943 18.6496C51.5945 18.4672 51.2578 18.3538 50.9088 18.3178C50.5597 18.2819 50.207 18.3242 49.8763 18.4418C49.5457 18.5593 49.2454 18.7491 48.9974 18.9974C48.1535 19.8412 48.0907 21.1578 48.7905 22.0833C48.4943 22.3013 48.2533 22.5857 48.087 22.9138C47.9208 23.2419 47.8339 23.6044 47.8333 23.9722C47.8333 24.8633 48.3325 25.6297 49.0611 26.0316C48.6134 26.2696 48.3056 26.7352 48.3056 27.2778C48.3056 27.8204 48.6134 28.286 49.0611 28.524C48.6212 28.7671 48.2691 29.1427 48.0548 29.5973" stroke="black" stroke-width="0.944444" stroke-miterlimit="10" stroke-linecap="round" stroke-linejoin="round"/>
<path d="M67.9297 32.4046C68.0255 31.9522 67.9131 31.4649 67.5613 31.1126C67.4981 31.0488 67.4249 31.004 67.3531 30.9558" stroke="black" stroke-width="0.944444" stroke-miterlimit="10" stroke-linecap="round" stroke-linejoin="round"/>
<path d="M48.6626 35.417C48.1577 35.8477 47.8333 36.4785 47.8333 37.1944C47.8333 38.086 48.3325 38.8519 49.0611 39.2538C48.6134 39.4918 48.3056 39.9574 48.3056 40.5C48.3056 41.0426 48.6134 41.5082 49.0611 41.7462C48.3325 42.148 47.8333 42.9145 47.8333 43.8055C47.8333 44.4318 48.0821 45.0323 48.5249 45.4751C48.9677 45.9179 49.5682 46.1667 50.1944 46.1667C51.0855 46.1667 51.8519 45.667 52.2538 44.9389C52.3454 45.1117 52.4724 45.2628 52.6235 45.3847" stroke="black" stroke-width="0.944444" stroke-miterlimit="10" stroke-linecap="round" stroke-linejoin="round"/>
<path d="M59.4594 45.5296C59.6535 45.6334 59.8741 45.6944 60.1111 45.6944C60.3679 45.6938 60.6197 45.6231 60.8393 45.49C61.059 45.3568 61.238 45.1663 61.3573 44.9388C61.7587 45.667 62.5256 46.1666 63.4167 46.1666C64.3077 46.1666 65.0742 45.667 65.476 44.9388C65.714 45.3865 66.1796 45.6944 66.7222 45.6944C66.979 45.6938 67.2308 45.6231 67.4505 45.49C67.6701 45.3568 67.8492 45.1663 67.9684 44.9388C68.3703 45.6665 69.1353 46.1666 70.0278 46.1666C70.8036 46.1666 71.486 45.7869 71.9167 45.2094C72.8417 45.9088 74.1597 45.8469 75.0036 45.003C75.2516 44.7548 75.4412 44.4544 75.5586 44.1237C75.676 43.793 75.7182 43.4403 75.6821 43.0912C75.6461 42.7422 75.5327 42.4055 75.3502 42.1058C75.1677 41.806 74.9208 41.5507 74.6272 41.3584C74.724 41.2876 74.8208 41.2168 74.9077 41.1299C75.3504 40.6871 75.599 40.0866 75.599 39.4606C75.599 38.8345 75.3504 38.234 74.9077 37.7913C74.2768 37.1608 73.3824 36.9719 72.5825 37.2029C72.6591 36.9577 72.6673 36.6963 72.6062 36.4468C72.5451 36.1973 72.4171 35.9692 72.2359 35.7871C72.0538 35.6062 71.8259 35.4784 71.5766 35.4173C71.3274 35.3562 71.0662 35.3643 70.8211 35.4405C71.0516 34.6411 70.8636 33.7462 70.2327 33.1158C69.6188 32.5019 68.7547 32.3102 67.9727 32.5137" stroke="black" stroke-width="0.944444" stroke-miterlimit="10" stroke-linecap="round" stroke-linejoin="round"/>
<path d="M63.6282 26.1245L65.8788 31.7865L63.6282 26.1245Z" stroke="black" stroke-width="0.944444" stroke-miterlimit="10" stroke-linecap="round" stroke-linejoin="round"/>
<path d="M60.5352 26.4433L62.5279 25.6509C62.6313 25.6096 62.7417 25.5892 62.853 25.5907C62.9642 25.5921 63.0741 25.6155 63.1763 25.6595C63.2785 25.7035 63.371 25.7672 63.4486 25.847C63.5261 25.9268 63.5872 26.0211 63.6282 26.1245L65.8788 31.7865" stroke="black" stroke-width="0.944444" stroke-miterlimit="10" stroke-linecap="round" stroke-linejoin="round"/>
<path d="M53.823 44.8511L54.0662 45.4635C54.1492 45.6721 54.3116 45.8392 54.5178 45.928C54.7239 46.0169 54.9569 46.0204 55.1655 45.9377L57.8997 44.8511" stroke="black" stroke-width="0.944444" stroke-miterlimit="10" stroke-linecap="round" stroke-linejoin="round"/>
<path d="M49.3681 30.8784L49.1933 30.9474C48.9847 31.0306 48.8177 31.1932 48.7289 31.3995C48.6401 31.6058 48.6368 31.8389 48.7197 32.0476L49.3681 33.6796" stroke="black" stroke-width="0.944444" stroke-miterlimit="10" stroke-linecap="round" stroke-linejoin="round"/>
</svg>
