<svg width="115" height="84" viewBox="0 0 115 84" fill="none" xmlns="http://www.w3.org/2000/svg">
<path d="M19.6026 69.768V81H16.8666V74.264L14.3546 81H12.1466L9.61863 74.248V81H6.88263V69.768H10.1146L13.2666 77.544L16.3866 69.768H19.6026ZM21.0261 76.52C21.0261 75.6027 21.1968 74.7973 21.5381 74.104C21.8901 73.4107 22.3648 72.8773 22.9621 72.504C23.5595 72.1307 24.2261 71.944 24.9621 71.944C25.5915 71.944 26.1408 72.072 26.6101 72.328C27.0901 72.584 27.4581 72.92 27.7141 73.336V72.072H30.4501V81H27.7141V79.736C27.4475 80.152 27.0741 80.488 26.5941 80.744C26.1248 81 25.5755 81.128 24.9461 81.128C24.2208 81.128 23.5595 80.9413 22.9621 80.568C22.3648 80.184 21.8901 79.6453 21.5381 78.952C21.1968 78.248 21.0261 77.4373 21.0261 76.52ZM27.7141 76.536C27.7141 75.8533 27.5221 75.3147 27.1381 74.92C26.7648 74.5253 26.3061 74.328 25.7621 74.328C25.2181 74.328 24.7541 74.5253 24.3701 74.92C23.9968 75.304 23.8101 75.8373 23.8101 76.52C23.8101 77.2027 23.9968 77.7467 24.3701 78.152C24.7541 78.5467 25.2181 78.744 25.7621 78.744C26.3061 78.744 26.7648 78.5467 27.1381 78.152C27.5221 77.7573 27.7141 77.2187 27.7141 76.536ZM33.8055 71.144C33.3255 71.144 32.9308 71.0053 32.6215 70.728C32.3228 70.44 32.1735 70.088 32.1735 69.672C32.1735 69.2453 32.3228 68.8933 32.6215 68.616C32.9308 68.328 33.3255 68.184 33.8055 68.184C34.2748 68.184 34.6588 68.328 34.9575 68.616C35.2668 68.8933 35.4215 69.2453 35.4215 69.672C35.4215 70.088 35.2668 70.44 34.9575 70.728C34.6588 71.0053 34.2748 71.144 33.8055 71.144ZM35.1655 72.072V81H32.4295V72.072H35.1655ZM42.5883 71.976C43.6336 71.976 44.4656 72.3173 45.0843 73C45.7136 73.672 46.0283 74.6 46.0283 75.784V81H43.3083V76.152C43.3083 75.5547 43.1536 75.0907 42.8443 74.76C42.5349 74.4293 42.1189 74.264 41.5963 74.264C41.0736 74.264 40.6576 74.4293 40.3483 74.76C40.0389 75.0907 39.8843 75.5547 39.8843 76.152V81H37.1483V72.072H39.8843V73.256C40.1616 72.8613 40.5349 72.552 41.0043 72.328C41.4736 72.0933 42.0016 71.976 42.5883 71.976ZM50.8561 75.368C50.8561 74.2587 51.0961 73.272 51.5761 72.408C52.0561 71.5333 52.7228 70.856 53.5761 70.376C54.4401 69.8853 55.4161 69.64 56.5041 69.64C57.8375 69.64 58.9788 69.992 59.9281 70.696C60.8775 71.4 61.5121 72.36 61.8321 73.576H58.8241C58.6001 73.1067 58.2801 72.7493 57.8641 72.504C57.4588 72.2587 56.9948 72.136 56.4721 72.136C55.6295 72.136 54.9468 72.4293 54.4241 73.016C53.9015 73.6027 53.6401 74.3867 53.6401 75.368C53.6401 76.3493 53.9015 77.1333 54.4241 77.72C54.9468 78.3067 55.6295 78.6 56.4721 78.6C56.9948 78.6 57.4588 78.4773 57.8641 78.232C58.2801 77.9867 58.6001 77.6293 58.8241 77.16H61.8321C61.5121 78.376 60.8775 79.336 59.9281 80.04C58.9788 80.7333 57.8375 81.08 56.5041 81.08C55.4161 81.08 54.4401 80.84 53.5761 80.36C52.7228 79.8693 52.0561 79.192 51.5761 78.328C51.0961 77.464 50.8561 76.4773 50.8561 75.368ZM67.5716 81.128C66.697 81.128 65.9076 80.9413 65.2036 80.568C64.5103 80.1947 63.961 79.6613 63.5556 78.968C63.161 78.2747 62.9636 77.464 62.9636 76.536C62.9636 75.6187 63.1663 74.8133 63.5716 74.12C63.977 73.416 64.5316 72.8773 65.2356 72.504C65.9396 72.1307 66.729 71.944 67.6036 71.944C68.4783 71.944 69.2676 72.1307 69.9716 72.504C70.6756 72.8773 71.2303 73.416 71.6356 74.12C72.041 74.8133 72.2436 75.6187 72.2436 76.536C72.2436 77.4533 72.0356 78.264 71.6196 78.968C71.2143 79.6613 70.6543 80.1947 69.9396 80.568C69.2356 80.9413 68.4463 81.128 67.5716 81.128ZM67.5716 78.76C68.0943 78.76 68.537 78.568 68.8996 78.184C69.273 77.8 69.4596 77.2507 69.4596 76.536C69.4596 75.8213 69.2783 75.272 68.9156 74.888C68.5636 74.504 68.1263 74.312 67.6036 74.312C67.0703 74.312 66.6276 74.504 66.2756 74.888C65.9236 75.2613 65.7476 75.8107 65.7476 76.536C65.7476 77.2507 65.9183 77.8 66.2596 78.184C66.6116 78.568 67.049 78.76 67.5716 78.76ZM82.5111 72.072V81H79.7751V79.784C79.4978 80.1787 79.1191 80.4987 78.6391 80.744C78.1698 80.9787 77.6471 81.096 77.0711 81.096C76.3885 81.096 75.7858 80.9467 75.2631 80.648C74.7405 80.3387 74.3351 79.896 74.0471 79.32C73.7591 78.744 73.6151 78.0667 73.6151 77.288V72.072H76.3351V76.92C76.3351 77.5173 76.4898 77.9813 76.7991 78.312C77.1085 78.6427 77.5245 78.808 78.0471 78.808C78.5805 78.808 79.0018 78.6427 79.3111 78.312C79.6205 77.9813 79.7751 77.5173 79.7751 76.92V72.072H82.5111ZM87.2124 73.56C87.5324 73.0693 87.9324 72.6853 88.4124 72.408C88.8924 72.12 89.4257 71.976 90.0124 71.976V74.872H89.2604C88.5777 74.872 88.0657 75.0213 87.7244 75.32C87.383 75.608 87.2124 76.12 87.2124 76.856V81H84.4764V72.072H87.2124V73.56ZM94.9521 81.128C94.1735 81.128 93.4801 80.9947 92.8721 80.728C92.2641 80.4613 91.7841 80.0987 91.4321 79.64C91.0801 79.1707 90.8828 78.648 90.8401 78.072H93.5441C93.5761 78.3813 93.7201 78.632 93.9761 78.824C94.2321 79.016 94.5468 79.112 94.9201 79.112C95.2615 79.112 95.5228 79.048 95.7041 78.92C95.8961 78.7813 95.9921 78.6053 95.9921 78.392C95.9921 78.136 95.8588 77.9493 95.5921 77.832C95.3255 77.704 94.8935 77.5653 94.2961 77.416C93.6561 77.2667 93.1228 77.112 92.6961 76.952C92.2695 76.7813 91.9015 76.52 91.5921 76.168C91.2828 75.8053 91.1281 75.32 91.1281 74.712C91.1281 74.2 91.2668 73.736 91.5441 73.32C91.8321 72.8933 92.2481 72.5573 92.7921 72.312C93.3468 72.0667 94.0028 71.944 94.7601 71.944C95.8801 71.944 96.7601 72.2213 97.4001 72.776C98.0508 73.3307 98.4241 74.0667 98.5201 74.984H95.9921C95.9495 74.6747 95.8108 74.4293 95.5761 74.248C95.3521 74.0667 95.0535 73.976 94.6801 73.976C94.3601 73.976 94.1148 74.04 93.9441 74.168C93.7735 74.2853 93.6881 74.4507 93.6881 74.664C93.6881 74.92 93.8215 75.112 94.0881 75.24C94.3655 75.368 94.7921 75.496 95.3681 75.624C96.0295 75.7947 96.5681 75.9653 96.9841 76.136C97.4001 76.296 97.7628 76.5627 98.0721 76.936C98.3921 77.2987 98.5575 77.7893 98.5681 78.408C98.5681 78.9307 98.4188 79.4 98.1201 79.816C97.8321 80.2213 97.4108 80.5413 96.8561 80.776C96.3121 81.0107 95.6775 81.128 94.9521 81.128ZM108.658 76.392C108.658 76.648 108.642 76.9147 108.61 77.192H102.418C102.461 77.7467 102.637 78.1733 102.946 78.472C103.266 78.76 103.655 78.904 104.114 78.904C104.797 78.904 105.271 78.616 105.538 78.04H108.45C108.301 78.6267 108.029 79.1547 107.634 79.624C107.25 80.0933 106.765 80.4613 106.178 80.728C105.591 80.9947 104.935 81.128 104.21 81.128C103.335 81.128 102.557 80.9413 101.874 80.568C101.191 80.1947 100.658 79.6613 100.274 78.968C99.89 78.2747 99.698 77.464 99.698 76.536C99.698 75.608 99.8847 74.7973 100.258 74.104C100.642 73.4107 101.175 72.8773 101.858 72.504C102.541 72.1307 103.325 71.944 104.21 71.944C105.074 71.944 105.842 72.1253 106.514 72.488C107.186 72.8507 107.709 73.368 108.082 74.04C108.466 74.712 108.658 75.496 108.658 76.392ZM105.858 75.672C105.858 75.2027 105.698 74.8293 105.378 74.552C105.058 74.2747 104.658 74.136 104.178 74.136C103.719 74.136 103.33 74.2693 103.01 74.536C102.701 74.8027 102.509 75.1813 102.434 75.672H105.858Z" fill="black"/>
<circle cx="58" cy="32" r="32" fill="#092C4C"/>
<path fill-rule="evenodd" clip-rule="evenodd" d="M74.0034 36.6616H42.1688C41.5929 36.6616 41.1296 37.1015 41.1296 37.6412C41.1296 38.1852 41.595 38.6251 42.1688 38.6251H74.0034C74.5793 38.6251 75.0446 38.1852 75.0446 37.6412C75.0446 37.1015 74.5771 36.6616 74.0034 36.6616Z" fill="white"/>
<path fill-rule="evenodd" clip-rule="evenodd" d="M58.0999 19.9272C49.942 19.9272 43.3311 26.3192 43.3311 34.203H72.8686C72.8708 26.3192 66.2556 19.9272 58.0999 19.9272V19.9272Z" fill="white"/>
<path fill-rule="evenodd" clip-rule="evenodd" d="M56.0025 17.375H60.1866V21.5591H56.0025V17.375Z" fill="white"/>
</svg>
