<svg width="115" height="84" viewBox="0 0 115 84" fill="none" xmlns="http://www.w3.org/2000/svg">
<path d="M50.2589 69.768V81H47.5229V74.264L45.0109 81H42.8029L40.2749 74.248V81H37.5389V69.768H40.7709L43.9229 77.544L47.0429 69.768H50.2589ZM60.6424 76.392C60.6424 76.648 60.6264 76.9147 60.5944 77.192H54.4024C54.445 77.7467 54.621 78.1733 54.9304 78.472C55.2504 78.76 55.6397 78.904 56.0984 78.904C56.781 78.904 57.2557 78.616 57.5224 78.04H60.4344C60.285 78.6267 60.013 79.1547 59.6184 79.624C59.2344 80.0933 58.749 80.4613 58.1624 80.728C57.5757 80.9947 56.9197 81.128 56.1944 81.128C55.3197 81.128 54.541 80.9413 53.8584 80.568C53.1757 80.1947 52.6424 79.6613 52.2584 78.968C51.8744 78.2747 51.6824 77.464 51.6824 76.536C51.6824 75.608 51.869 74.7973 52.2424 74.104C52.6264 73.4107 53.1597 72.8773 53.8424 72.504C54.525 72.1307 55.309 71.944 56.1944 71.944C57.0584 71.944 57.8264 72.1253 58.4984 72.488C59.1704 72.8507 59.693 73.368 60.0664 74.04C60.4504 74.712 60.6424 75.496 60.6424 76.392ZM57.8424 75.672C57.8424 75.2027 57.6824 74.8293 57.3624 74.552C57.0424 74.2747 56.6424 74.136 56.1624 74.136C55.7037 74.136 55.3144 74.2693 54.9944 74.536C54.685 74.8027 54.493 75.1813 54.4184 75.672H57.8424ZM61.5418 76.52C61.5418 75.6027 61.7124 74.7973 62.0538 74.104C62.4058 73.4107 62.8804 72.8773 63.4778 72.504C64.0751 72.1307 64.7418 71.944 65.4778 71.944C66.1071 71.944 66.6564 72.072 67.1258 72.328C67.6058 72.584 67.9738 72.92 68.2298 73.336V72.072H70.9658V81H68.2298V79.736C67.9631 80.152 67.5898 80.488 67.1098 80.744C66.6404 81 66.0911 81.128 65.4618 81.128C64.7364 81.128 64.0751 80.9413 63.4778 80.568C62.8804 80.184 62.4058 79.6453 62.0538 78.952C61.7124 78.248 61.5418 77.4373 61.5418 76.52ZM68.2298 76.536C68.2298 75.8533 68.0378 75.3147 67.6538 74.92C67.2804 74.5253 66.8218 74.328 66.2778 74.328C65.7338 74.328 65.2698 74.5253 64.8858 74.92C64.5124 75.304 64.3258 75.8373 64.3258 76.52C64.3258 77.2027 64.5124 77.7467 64.8858 78.152C65.2698 78.5467 65.7338 78.744 66.2778 78.744C66.8218 78.744 67.2804 78.5467 67.6538 78.152C68.0378 77.7573 68.2298 77.2187 68.2298 76.536ZM77.9211 78.68V81H76.5291C75.5371 81 74.7638 80.76 74.2091 80.28C73.6545 79.7893 73.3771 78.9947 73.3771 77.896V74.344H72.2891V72.072H73.3771V69.896H76.1131V72.072H77.9051V74.344H76.1131V77.928C76.1131 78.1947 76.1771 78.3867 76.3051 78.504C76.4331 78.6213 76.6465 78.68 76.9451 78.68H77.9211Z" fill="black"/>
<circle cx="59" cy="32" r="32" fill="#092C4C"/>
<path fill-rule="evenodd" clip-rule="evenodd" d="M67.8124 40.2966C70.3784 40.2966 71.8124 38.6266 71.8124 37.2966C71.8124 35.9666 70.3784 34.2966 67.8124 34.2966C65.2464 34.2966 63.8124 35.9666 63.8124 37.2966C63.8124 38.6266 65.2464 40.2966 67.8124 40.2966ZM67.8124 42.2966C71.1264 42.2966 73.8124 40.0576 73.8124 37.2966C73.8124 34.5356 71.1264 32.2966 67.8124 32.2966C64.4984 32.2966 61.8124 34.5356 61.8124 37.2966C61.8124 40.0576 64.4984 42.2966 67.8124 42.2966Z" fill="white"/>
<path d="M50.5394 21.4227C51.2094 21.2527 51.8844 20.9807 52.3694 20.6227C53.6394 19.6887 54.3764 17.8097 52.7514 18.0157C52.2784 18.0757 51.9374 18.0877 51.6584 18.0977C50.9804 18.1207 50.6784 18.1317 49.7784 18.7947C49.4349 19.0457 49.1164 19.3293 48.8274 19.6417C47.4284 18.6017 45.5674 18.1367 42.3124 18.2967C42.1798 18.2967 42.0527 18.3493 41.9589 18.4431C41.8651 18.5369 41.8124 18.664 41.8124 18.7967C41.8124 18.9293 41.8651 19.0564 41.9589 19.1502C42.0527 19.244 42.1798 19.2967 42.3124 19.2967H44.0494C44.3354 19.4807 44.5794 19.6527 44.7964 19.8167L41.2124 24.2967H41.0004C40.6886 24.2966 40.381 24.3694 40.1024 24.5094C39.8237 24.6494 39.5816 24.8526 39.3955 25.1027C39.2093 25.3529 39.0842 25.6432 39.0302 25.9503C38.9762 26.2575 38.9948 26.573 39.0844 26.8717L39.3844 27.8717C39.5081 28.2836 39.7613 28.6448 40.1064 28.9015C40.4516 29.1582 40.8703 29.2967 41.3004 29.2967H44.6624C45.0851 29.2969 45.4968 29.4309 45.8384 29.6797L48.0284 31.2717C48.0944 31.3197 48.1624 31.3637 48.2314 31.4017C49.7984 35.4417 51.4514 38.5877 53.3014 40.1707L53.6464 44.3107C53.3993 44.3524 53.1768 44.4855 53.0232 44.6836C52.8695 44.8816 52.7958 45.1301 52.8167 45.3799C52.8375 45.6297 52.9515 45.8626 53.1359 46.0324C53.3203 46.2021 53.5618 46.2965 53.8124 46.2967H56.8124V37.2967H66.6224C68.1024 38.7377 69.7624 39.8677 72.3124 40.2967L72.6464 44.3107C72.3993 44.3524 72.1768 44.4855 72.0232 44.6836C71.8695 44.8816 71.7958 45.1301 71.8167 45.3799C71.8375 45.6297 71.9515 45.8626 72.1359 46.0324C72.3203 46.2021 72.5618 46.2965 72.8124 46.2967H75.8124V28.2967C75.8172 26.9391 75.3704 25.6185 74.5424 24.5427C75.1674 24.7107 75.6044 24.9557 75.9124 25.2527C76.4694 25.7877 76.8124 26.6887 76.8124 28.2967L77.1994 33.7167C76.9644 34.0817 76.8124 34.6537 76.8124 35.2967C76.8124 36.4017 77.2604 37.2967 77.8124 37.2967C78.3644 37.2967 78.8124 36.4017 78.8124 35.2967C78.8124 34.6537 78.6604 34.0817 78.4254 33.7167L78.8124 28.2967C78.8124 26.4627 78.4294 24.8967 77.2984 23.8097C76.1814 22.7367 74.5424 22.3327 72.5254 22.2987C72.4494 22.2967 70.3684 22.2967 70.3124 22.2967V22.3037C70.2198 22.2991 70.1271 22.2967 70.0344 22.2967H55.3124C53.3784 22.2967 51.9174 22.0087 50.6924 21.6287L50.5394 21.4227V21.4227Z" fill="white"/>
<path d="M62.8864 38.0647L61.1384 38.7797L61.8964 40.6307L63.6434 39.9167L62.8864 38.0647V38.0647Z" fill="white"/>
<path d="M63.6884 42.1546L64.7474 40.1846L66.5094 41.1326L65.4504 43.1026L63.6884 42.1546Z" fill="white"/>
<path d="M67.8224 41.2147L68.2464 43.4107L70.2104 43.0307L69.7854 40.8347L67.8214 41.2147H67.8224Z" fill="white"/>
</svg>
