<svg width="115" height="84" viewBox="0 0 115 84" fill="none" xmlns="http://www.w3.org/2000/svg">
<circle cx="59" cy="32" r="32" fill="#092C4C"/>
<path d="M29.8213 81H27.0853L22.5093 74.072V81H19.7733V69.768H22.5093L27.0853 76.728V69.768H29.8213V81ZM40.2205 76.392C40.2205 76.648 40.2045 76.9147 40.1725 77.192H33.9805C34.0232 77.7467 34.1992 78.1733 34.5085 78.472C34.8285 78.76 35.2178 78.904 35.6765 78.904C36.3592 78.904 36.8338 78.616 37.1005 78.04H40.0125C39.8632 78.6267 39.5912 79.1547 39.1965 79.624C38.8125 80.0933 38.3272 80.4613 37.7405 80.728C37.1538 80.9947 36.4978 81.128 35.7725 81.128C34.8978 81.128 34.1192 80.9413 33.4365 80.568C32.7538 80.1947 32.2205 79.6613 31.8365 78.968C31.4525 78.2747 31.2605 77.464 31.2605 76.536C31.2605 75.608 31.4472 74.7973 31.8205 74.104C32.2045 73.4107 32.7378 72.8773 33.4205 72.504C34.1032 72.1307 34.8872 71.944 35.7725 71.944C36.6365 71.944 37.4045 72.1253 38.0765 72.488C38.7485 72.8507 39.2712 73.368 39.6445 74.04C40.0285 74.712 40.2205 75.496 40.2205 76.392ZM37.4205 75.672C37.4205 75.2027 37.2605 74.8293 36.9405 74.552C36.6205 74.2747 36.2205 74.136 35.7405 74.136C35.2818 74.136 34.8925 74.2693 34.5725 74.536C34.2632 74.8027 34.0712 75.1813 33.9965 75.672H37.4205ZM54.4799 72.072L52.0639 81H49.0399L47.6319 75.208L46.1759 81H43.1679L40.7359 72.072H43.4719L44.7359 78.456L46.2399 72.072H49.1359L50.6559 78.424L51.9039 72.072H54.4799ZM68.5459 69.768L64.6579 77.288V81H61.9219V77.288L58.0339 69.768H61.1379L63.3139 74.472L65.4739 69.768H68.5459ZM78.0642 76.392C78.0642 76.648 78.0483 76.9147 78.0163 77.192H71.8243C71.8669 77.7467 72.0429 78.1733 72.3523 78.472C72.6723 78.76 73.0616 78.904 73.5203 78.904C74.2029 78.904 74.6776 78.616 74.9443 78.04H77.8563C77.7069 78.6267 77.4349 79.1547 77.0403 79.624C76.6563 80.0933 76.1709 80.4613 75.5843 80.728C74.9976 80.9947 74.3416 81.128 73.6163 81.128C72.7416 81.128 71.9629 80.9413 71.2803 80.568C70.5976 80.1947 70.0643 79.6613 69.6803 78.968C69.2963 78.2747 69.1043 77.464 69.1043 76.536C69.1043 75.608 69.2909 74.7973 69.6643 74.104C70.0483 73.4107 70.5816 72.8773 71.2643 72.504C71.9469 72.1307 72.7309 71.944 73.6163 71.944C74.4803 71.944 75.2483 72.1253 75.9203 72.488C76.5923 72.8507 77.1149 73.368 77.4883 74.04C77.8723 74.712 78.0642 75.496 78.0642 76.392ZM75.2643 75.672C75.2643 75.2027 75.1043 74.8293 74.7843 74.552C74.4643 74.2747 74.0643 74.136 73.5843 74.136C73.1256 74.136 72.7363 74.2693 72.4163 74.536C72.1069 74.8027 71.9149 75.1813 71.8403 75.672H75.2643ZM78.9636 76.52C78.9636 75.6027 79.1343 74.7973 79.4756 74.104C79.8276 73.4107 80.3023 72.8773 80.8996 72.504C81.497 72.1307 82.1636 71.944 82.8996 71.944C83.529 71.944 84.0783 72.072 84.5476 72.328C85.0276 72.584 85.3956 72.92 85.6516 73.336V72.072H88.3876V81H85.6516V79.736C85.385 80.152 85.0116 80.488 84.5316 80.744C84.0623 81 83.513 81.128 82.8836 81.128C82.1583 81.128 81.497 80.9413 80.8996 80.568C80.3023 80.184 79.8276 79.6453 79.4756 78.952C79.1343 78.248 78.9636 77.4373 78.9636 76.52ZM85.6516 76.536C85.6516 75.8533 85.4596 75.3147 85.0756 74.92C84.7023 74.5253 84.2436 74.328 83.6996 74.328C83.1556 74.328 82.6916 74.5253 82.3076 74.92C81.9343 75.304 81.7476 75.8373 81.7476 76.52C81.7476 77.2027 81.9343 77.7467 82.3076 78.152C82.6916 78.5467 83.1556 78.744 83.6996 78.744C84.2436 78.744 84.7023 78.5467 85.0756 78.152C85.4596 77.7573 85.6516 77.2187 85.6516 76.536ZM93.103 73.56C93.423 73.0693 93.823 72.6853 94.303 72.408C94.783 72.12 95.3163 71.976 95.903 71.976V74.872H95.151C94.4683 74.872 93.9563 75.0213 93.615 75.32C93.2737 75.608 93.103 76.12 93.103 76.856V81H90.367V72.072H93.103V73.56Z" fill="black"/>
<g clip-path="url(#clip0_49_1884)">
<path d="M50.5731 18.7686L59.5769 22.2713C57.9005 25.5255 56.213 28.7754 54.7642 30.5946C53.3111 32.4252 52.0786 32.8051 50.856 34.6082C49.6221 36.4069 48.3868 39.6243 48.461 41.3851C48.5465 43.1501 49.9217 43.4768 50.5509 43.8257C51.1689 44.1703 51.021 44.5555 50.8775 44.9294L41.8737 41.4266C42.0172 41.0528 42.1651 40.6676 42.8527 40.8309C43.5515 40.9986 44.7875 41.6877 46.03 40.4393C47.2613 39.1865 48.4966 35.9691 48.7851 33.8026C49.0849 31.6405 48.4265 30.525 48.5741 28.1865C48.7173 25.8593 49.6396 22.3118 50.5731 18.7686ZM51.9541 21.91C51.5849 23.1076 51.2225 24.3208 50.9193 25.4138L54.881 26.955C55.3868 25.9408 55.9292 24.7977 56.456 23.6614L51.9541 21.91Z" fill="white"/>
</g>
<g clip-path="url(#clip1_49_1884)">
<path d="M60.6749 22.7664L70.0216 20.3389C70.5404 23.9672 71.0475 27.5985 70.9215 29.9267C70.7985 32.2666 70.0161 33.2977 70.0646 35.4802C70.1014 37.6657 70.9575 41.0057 72.0361 42.3939C73.1263 43.779 74.4333 43.2388 75.1468 43.1539C75.8485 43.072 75.951 43.4719 76.0505 43.86L66.7038 46.2874C66.6043 45.8993 66.5018 45.4995 67.1553 45.2294C67.8205 44.9563 69.224 44.7925 69.5124 43.0493C69.7892 41.3092 68.9331 37.9692 67.9148 36.0385C66.9083 34.1048 65.7279 33.5835 64.4956 31.5956C63.2664 29.6194 61.9648 26.1944 60.6749 22.7664ZM63.6145 24.5116C64.0067 25.7017 64.4137 26.9005 64.7992 27.9669L68.9117 26.8988C68.7366 25.7778 68.5165 24.5304 68.2878 23.2979L63.6145 24.5116Z" fill="white"/>
</g>
<defs>
<clipPath id="clip0_49_1884">
<rect width="28.9833" height="29.1249" fill="white" transform="matrix(0.93196 0.362561 -0.358432 0.933556 42.4393 13)"/>
</clipPath>
<clipPath id="clip1_49_1884">
<rect width="28.9704" height="29.1377" fill="white" transform="matrix(0.96789 -0.251376 0.248292 0.968685 50.7253 22.8418)"/>
</clipPath>
</defs>
</svg>
