<svg width="93" height="85" viewBox="0 0 93 85" fill="none" xmlns="http://www.w3.org/2000/svg">
<path d="M78 32C78 40.4869 74.6286 48.6263 68.6274 54.6274C62.6263 60.6286 54.4869 64 46 64C37.5131 64 29.3737 60.6286 23.3726 54.6274C17.3714 48.6263 14 40.4869 14 32C14 23.5131 17.3714 15.3737 23.3726 9.37258C29.3737 3.37142 37.5131 0 46 0C54.4869 0 62.6263 3.37142 68.6274 9.37258C74.6286 15.3737 78 23.5131 78 32V32ZM46 14C46 13.4696 45.7893 12.9609 45.4142 12.5858C45.0391 12.2107 44.5304 12 44 12C43.4696 12 42.9609 12.2107 42.5858 12.5858C42.2107 12.9609 42 13.4696 42 14V36C42.0001 36.3525 42.0934 36.6988 42.2704 37.0036C42.4474 37.3085 42.7019 37.5611 43.008 37.736L57.008 45.736C57.4674 45.9843 58.0058 46.043 58.5079 45.8997C59.0101 45.7563 59.4363 45.4222 59.6954 44.9688C59.9545 44.5154 60.026 43.9786 59.8945 43.4732C59.7631 42.9677 59.4392 42.5338 58.992 42.264L46 34.84V14Z" fill="#092C4C"/>
<path d="M52.3782 27.4545H51.0774L49.457 28.4805V29.7077L50.956 28.7681H50.9943V34H52.3782V27.4545ZM55.3081 31.1619C55.3113 30.5291 55.6981 30.1584 56.2542 30.1584C56.8071 30.1584 57.1331 30.5131 57.1299 31.1172V34H58.4914V30.8743C58.4946 29.7237 57.817 29.027 56.7943 29.027C56.0496 29.027 55.551 29.3786 55.3273 29.957H55.2698V27.4545H53.9466V34H55.3081V31.1619ZM59.5629 34H60.9244V31.2227C60.9244 30.6186 61.3654 30.2031 61.9663 30.2031C62.1548 30.2031 62.4137 30.2351 62.5415 30.2766V29.0685C62.4201 29.0398 62.2507 29.0206 62.1133 29.0206C61.5636 29.0206 61.1129 29.3402 60.9339 29.9474H60.8828V29.0909H59.5629V34Z" fill="white"/>
<path d="M22.932 74.864V72.32H27.364V84H24.516V74.864H22.932ZM38.3863 74.976C39.4103 74.976 40.2316 75.3173 40.8503 76C41.4689 76.672 41.7783 77.6 41.7783 78.784V84H39.0583V79.152C39.0583 78.5547 38.9036 78.0907 38.5943 77.76C38.2849 77.4293 37.8689 77.264 37.3463 77.264C36.8236 77.264 36.4076 77.4293 36.0983 77.76C35.7889 78.0907 35.6343 78.5547 35.6343 79.152V84H32.8983V72.16H35.6343V76.272C35.9116 75.8773 36.2903 75.5627 36.7703 75.328C37.2503 75.0933 37.7889 74.976 38.3863 74.976ZM47.7435 84.128C46.8688 84.128 46.0795 83.9413 45.3755 83.568C44.6822 83.1947 44.1328 82.6613 43.7275 81.968C43.3328 81.2747 43.1355 80.464 43.1355 79.536C43.1355 78.6187 43.3382 77.8133 43.7435 77.12C44.1488 76.416 44.7035 75.8773 45.4075 75.504C46.1115 75.1307 46.9008 74.944 47.7755 74.944C48.6502 74.944 49.4395 75.1307 50.1435 75.504C50.8475 75.8773 51.4022 76.416 51.8075 77.12C52.2128 77.8133 52.4155 78.6187 52.4155 79.536C52.4155 80.4533 52.2075 81.264 51.7915 81.968C51.3862 82.6613 50.8262 83.1947 50.1115 83.568C49.4075 83.9413 48.6182 84.128 47.7435 84.128ZM47.7435 81.76C48.2662 81.76 48.7088 81.568 49.0715 81.184C49.4448 80.8 49.6315 80.2507 49.6315 79.536C49.6315 78.8213 49.4502 78.272 49.0875 77.888C48.7355 77.504 48.2982 77.312 47.7755 77.312C47.2422 77.312 46.7995 77.504 46.4475 77.888C46.0955 78.2613 45.9195 78.8107 45.9195 79.536C45.9195 80.2507 46.0902 80.8 46.4315 81.184C46.7835 81.568 47.2208 81.76 47.7435 81.76ZM62.683 75.072V84H59.947V82.784C59.6697 83.1787 59.291 83.4987 58.811 83.744C58.3417 83.9787 57.819 84.096 57.243 84.096C56.5603 84.096 55.9577 83.9467 55.435 83.648C54.9123 83.3387 54.507 82.896 54.219 82.32C53.931 81.744 53.787 81.0667 53.787 80.288V75.072H56.507V79.92C56.507 80.5173 56.6617 80.9813 56.971 81.312C57.2803 81.6427 57.6963 81.808 58.219 81.808C58.7523 81.808 59.1737 81.6427 59.483 81.312C59.7923 80.9813 59.947 80.5173 59.947 79.92V75.072H62.683ZM67.3843 76.56C67.7043 76.0693 68.1043 75.6853 68.5843 75.408C69.0643 75.12 69.5976 74.976 70.1843 74.976V77.872H69.4323C68.7496 77.872 68.2376 78.0213 67.8963 78.32C67.5549 78.608 67.3843 79.12 67.3843 79.856V84H64.6483V75.072H67.3843V76.56Z" fill="black"/>
</svg>
