<svg width="115" height="84" viewBox="0 0 115 84" fill="none" xmlns="http://www.w3.org/2000/svg">
<path d="M38.9857 81.112C38.1644 81.112 37.4284 80.9787 36.7777 80.712C36.127 80.4453 35.6044 80.0507 35.2097 79.528C34.8257 79.0053 34.623 78.376 34.6017 77.64H37.5137C37.5564 78.056 37.7004 78.376 37.9457 78.6C38.191 78.8133 38.511 78.92 38.9057 78.92C39.311 78.92 39.631 78.8293 39.8657 78.648C40.1004 78.456 40.2177 78.1947 40.2177 77.864C40.2177 77.5867 40.1217 77.3573 39.9297 77.176C39.7484 76.9947 39.519 76.8453 39.2417 76.728C38.975 76.6107 38.591 76.4773 38.0897 76.328C37.3644 76.104 36.7724 75.88 36.3137 75.656C35.855 75.432 35.4604 75.1013 35.1297 74.664C34.799 74.2267 34.6337 73.656 34.6337 72.952C34.6337 71.9067 35.0124 71.0907 35.7697 70.504C36.527 69.9067 37.5137 69.608 38.7297 69.608C39.967 69.608 40.9644 69.9067 41.7217 70.504C42.479 71.0907 42.8844 71.912 42.9377 72.968H39.9777C39.9564 72.6053 39.823 72.3227 39.5777 72.12C39.3324 71.9067 39.0177 71.8 38.6337 71.8C38.303 71.8 38.0364 71.8907 37.8337 72.072C37.631 72.2427 37.5297 72.4933 37.5297 72.824C37.5297 73.1867 37.7004 73.4693 38.0417 73.672C38.383 73.8747 38.9164 74.0933 39.6417 74.328C40.367 74.5733 40.9537 74.808 41.4017 75.032C41.8604 75.256 42.255 75.5813 42.5857 76.008C42.9164 76.4347 43.0817 76.984 43.0817 77.656C43.0817 78.296 42.9164 78.8773 42.5857 79.4C42.2657 79.9227 41.7964 80.3387 41.1777 80.648C40.559 80.9573 39.8284 81.112 38.9857 81.112ZM44.2214 76.52C44.2214 75.6027 44.3921 74.7973 44.7334 74.104C45.0854 73.4107 45.5601 72.8773 46.1574 72.504C46.7548 72.1307 47.4214 71.944 48.1574 71.944C48.7868 71.944 49.3361 72.072 49.8054 72.328C50.2854 72.584 50.6534 72.92 50.9094 73.336V72.072H53.6454V81H50.9094V79.736C50.6428 80.152 50.2694 80.488 49.7894 80.744C49.3201 81 48.7708 81.128 48.1414 81.128C47.4161 81.128 46.7548 80.9413 46.1574 80.568C45.5601 80.184 45.0854 79.6453 44.7334 78.952C44.3921 78.248 44.2214 77.4373 44.2214 76.52ZM50.9094 76.536C50.9094 75.8533 50.7174 75.3147 50.3334 74.92C49.9601 74.5253 49.5014 74.328 48.9574 74.328C48.4134 74.328 47.9494 74.5253 47.5654 74.92C47.1921 75.304 47.0054 75.8373 47.0054 76.52C47.0054 77.2027 47.1921 77.7467 47.5654 78.152C47.9494 78.5467 48.4134 78.744 48.9574 78.744C49.5014 78.744 49.9601 78.5467 50.3334 78.152C50.7174 77.7573 50.9094 77.2187 50.9094 76.536ZM58.3608 69.16V81H55.6248V69.16H58.3608ZM59.7996 76.52C59.7996 75.6027 59.9702 74.7973 60.3116 74.104C60.6636 73.4107 61.1382 72.8773 61.7356 72.504C62.3329 72.1307 62.9996 71.944 63.7356 71.944C64.3649 71.944 64.9142 72.072 65.3836 72.328C65.8636 72.584 66.2316 72.92 66.4876 73.336V72.072H69.2236V81H66.4876V79.736C66.2209 80.152 65.8476 80.488 65.3676 80.744C64.8982 81 64.3489 81.128 63.7196 81.128C62.9942 81.128 62.3329 80.9413 61.7356 80.568C61.1382 80.184 60.6636 79.6453 60.3116 78.952C59.9702 78.248 59.7996 77.4373 59.7996 76.52ZM66.4876 76.536C66.4876 75.8533 66.2956 75.3147 65.9116 74.92C65.5382 74.5253 65.0796 74.328 64.5356 74.328C63.9916 74.328 63.5276 74.5253 63.1436 74.92C62.7702 75.304 62.5836 75.8373 62.5836 76.52C62.5836 77.2027 62.7702 77.7467 63.1436 78.152C63.5276 78.5467 63.9916 78.744 64.5356 78.744C65.0796 78.744 65.5382 78.5467 65.9116 78.152C66.2956 77.7573 66.4876 77.2187 66.4876 76.536ZM70.6589 76.52C70.6589 75.6027 70.8296 74.7973 71.1709 74.104C71.5229 73.4107 71.9976 72.8773 72.5949 72.504C73.1923 72.1307 73.8589 71.944 74.5949 71.944C75.1816 71.944 75.7149 72.0667 76.1949 72.312C76.6856 72.5573 77.0696 72.888 77.3469 73.304V69.16H80.0829V81H77.3469V79.72C77.0909 80.1467 76.7229 80.488 76.2429 80.744C75.7736 81 75.2243 81.128 74.5949 81.128C73.8589 81.128 73.1923 80.9413 72.5949 80.568C71.9976 80.184 71.5229 79.6453 71.1709 78.952C70.8296 78.248 70.6589 77.4373 70.6589 76.52ZM77.3469 76.536C77.3469 75.8533 77.1549 75.3147 76.7709 74.92C76.3976 74.5253 75.9389 74.328 75.3949 74.328C74.8509 74.328 74.3869 74.5253 74.0029 74.92C73.6296 75.304 73.4429 75.8373 73.4429 76.52C73.4429 77.2027 73.6296 77.7467 74.0029 78.152C74.3869 78.5467 74.8509 78.744 75.3949 78.744C75.9389 78.744 76.3976 78.5467 76.7709 78.152C77.1549 77.7573 77.3469 77.2187 77.3469 76.536Z" fill="black"/>
<circle cx="59" cy="32" r="32" fill="#092C4C"/>
<path d="M63.1661 28.0243C62.8569 27.1042 62.3851 26.7748 61.8395 26.7748C61.1744 26.7748 60.3988 27.263 59.6694 27.7688C59.2353 28.0705 57.555 29.9262 56.6386 29.9262C56.5336 29.929 56.4304 29.8985 56.3438 29.8391C55.4491 29.2058 56.5701 26.4465 56.5701 25.1232C56.5701 23.8423 56.3374 23.353 55.9809 23.353C54.9954 23.353 53.0649 27.1052 52.5267 28.1879C52.3748 28.4934 52.1628 28.614 51.9168 28.614C51.0568 28.614 49.7775 27.1345 49.1899 26.9076C49.1023 26.872 49.0088 26.853 48.9142 26.8513C47.9325 26.8513 47.9537 29.2935 47.9686 29.9416C48.5052 29.795 49.0083 29.7047 49.4481 29.7047C50.5569 29.7047 51.2618 30.2789 51.078 31.9646C51.0366 32.3434 50.797 33.5504 51.189 33.8165C51.252 33.8575 51.326 33.878 51.401 33.8755C51.8531 33.8755 52.5692 33.3182 52.8354 33.1482C53.1934 32.9187 53.569 32.7508 53.8867 32.7508C54.2692 32.7508 54.5678 32.9936 54.6533 33.6657C54.7043 34.0636 54.5094 35.5776 54.8993 35.8193C54.9565 35.8538 55.0222 35.8716 55.0889 35.8709C55.8088 35.8709 57.0376 34.0721 57.5938 33.8659C57.8549 33.7692 58.1313 33.7201 58.4098 33.7209C59.1498 33.7209 59.8537 34.0476 60.5736 34.3239C60.6947 34.3706 60.7935 34.3908 60.8737 34.3908C61.3088 34.3908 61.1824 33.7868 60.81 33.4006C60.2676 32.8353 59.4069 33.0834 58.8034 32.6786C58.0368 32.1643 59.1041 31.1311 59.5185 30.8245C60.0131 30.458 61.1096 29.8688 61.9846 29.8688C62.3899 29.8688 62.7474 29.9952 62.9748 30.3278C63.4046 30.9563 62.6895 31.75 62.8702 32.4555C62.9461 32.7482 63.1299 32.8491 63.3478 32.8491C63.8115 32.8491 64.4262 32.3912 64.4687 32.3476C64.7514 32.0539 65.0556 31.7817 65.3787 31.5332C63.7637 31.1757 63.6267 29.3981 63.1661 28.0243" fill="white"/>
<path d="M49.9241 26.7004C49.9241 26.7004 51.3208 27.9324 51.9174 27.9324C52.0316 27.9324 52.1171 27.8872 52.157 27.7778C53.0155 25.427 54.8307 22.7405 56.016 22.7405C56.5329 22.7405 56.9297 23.2521 57.0742 24.5271C57.2612 26.1777 56.1196 28.6793 56.6683 29.2494C56.6803 29.2614 56.6947 29.2709 56.7105 29.2771C56.7263 29.2833 56.7433 29.2862 56.7602 29.2855C57.377 29.2855 59.8139 26.1649 61.8996 26.1649C62.0601 26.1645 62.22 26.1843 62.3756 26.2239C64.2546 26.7057 63.4402 29.9097 64.9654 30.825C65.218 30.9789 65.5075 31.0613 65.8032 31.0636C66.3652 31.0636 66.8784 30.7432 67.0012 30.0808C67.3109 28.4084 61.9994 25.1667 64.873 25.1667C65.2852 25.1667 65.8659 25.2331 66.6553 25.3808C67.1255 22.1593 66.9613 21.2663 66.5406 21.2663C66.0608 21.2663 65.247 22.426 64.6546 22.6257C64.6375 22.6315 64.6196 22.6345 64.6015 22.6348C64.2631 22.6348 64.2748 21.4161 63.6957 21.4161C63.3217 21.4161 62.7017 21.9245 61.5829 23.5958C61.006 24.458 60.5741 24.7991 60.233 24.7991C58.9357 24.7991 58.9724 19.8367 57.4158 19.8367C57.1013 19.8367 56.722 20.0391 56.2534 20.5252C55.5341 21.2721 54.8626 21.5367 54.2342 21.5367C52.7036 21.5367 51.4355 19.9647 50.3959 19.9647C49.9857 19.9647 49.6102 20.2096 49.2691 20.8939C48.5631 22.3128 50.9537 22.2395 49.9241 26.7004V26.7004ZM51.7532 27.339C51.4738 27.2136 50.9776 26.8779 50.5122 26.4954C50.5983 26.0741 50.6514 25.6958 50.6822 25.3473C50.8134 25.1274 50.9749 24.9106 51.172 24.7098C51.9747 23.8912 53.0032 23.6325 53.5074 24.1053C52.7886 25.096 52.1559 26.3089 51.7532 27.339V27.339ZM63.5528 25.2278C63.2904 25.8488 63.8009 26.5044 64.5824 27.3613C64.5279 27.4209 64.4644 27.4716 64.3943 27.5116C64.3199 27.5529 64.2391 27.5814 64.1552 27.5961C63.9066 26.7567 63.4896 25.9508 62.5052 25.6985C62.3605 25.6632 62.2129 25.6413 62.0642 25.6331C61.7976 24.7661 61.9213 23.9517 62.4266 23.6702C62.9833 23.3583 63.7951 23.8035 64.3492 24.6673C64.0405 24.7263 63.7047 24.8687 63.5528 25.2278" fill="white"/>
<path d="M67.5037 30.0923C67.3874 30.8525 68.4924 30.9885 67.9643 32.2338C67.6934 32.8708 65.3989 34.3391 65.5678 34.6605C65.8181 35.1307 66.1187 35.3135 66.4232 35.3135C67.0256 35.3135 67.6392 34.5984 67.8862 33.979C68.2097 33.1688 68.2932 31.0422 69.0815 30.648C69.2149 30.5805 69.3466 30.5508 69.4768 30.5508C70.2551 30.5508 70.9823 31.6032 71.6836 31.7456C71.8547 30.9838 71.7325 30.1933 71.9067 29.4272C68.9466 29.39 73.5515 25.3445 70.9202 23.694C70.7783 23.6052 70.6593 23.5654 70.5552 23.5659C69.727 23.5659 69.9198 26.1021 67.8272 26.1021C67.6604 26.1021 67.4782 26.0856 67.2801 26.0506C66.5145 25.9156 65.9859 25.853 65.6401 25.853C63.6245 25.854 67.8304 27.9742 67.5037 30.0923" fill="white"/>
<path d="M72.7472 26.1182C72.8226 25.6619 72.8266 25.1966 72.7588 24.7391C72.5687 23.4646 71.5726 22.4276 70.5388 22.4271C70.1855 22.4271 69.3397 22.5743 68.9397 23.8296C68.6707 23.7172 68.3991 23.6109 68.1253 23.5109C68.3617 21.9198 68.273 20.8291 67.8485 20.2718C67.7461 20.1324 67.6123 20.0191 67.4578 19.9412C67.3034 19.8633 67.1327 19.8229 66.9597 19.8235C66.404 19.8235 65.7798 20.1953 65.0042 20.9906L64.976 20.9152C64.8113 20.47 64.5362 19.7252 63.7977 19.7252C63.293 19.7252 62.6247 20.0365 61.2201 22.0839C60.8127 22.054 60.4048 22.0322 59.9966 22.0186L59.9212 21.7445C59.4829 20.1353 58.9857 18.3121 57.5848 18.3115H57.5842C57.0131 18.3115 56.4123 18.6478 55.7466 19.339C55.251 19.8543 54.7606 20.1045 54.2469 20.1045C53.6206 20.1045 52.9793 19.7454 52.3588 19.3985C51.7314 19.0478 51.0833 18.685 50.4129 18.685C49.6181 18.685 48.9721 19.1721 48.4377 20.1746C47.8273 21.32 48.1667 22.0765 48.4951 22.8086C48.6385 23.1278 48.7888 23.4662 48.8956 23.8817C45.3378 25.4096 43.0625 27.7231 43.0625 30.3172C43.0625 37.5066 50.1982 45.9376 59 45.9376C67.8023 45.9376 74.9375 37.5066 74.9375 30.3172C74.9375 28.7841 74.1311 27.3518 72.7472 26.1182ZM59 44.8544C52.3004 44.8544 46.667 39.5971 44.7933 34.0918C47.4278 36.7953 52.7982 38.6478 59 38.6478C65.2018 38.6478 70.5712 36.7953 73.2056 34.0923C71.3319 39.5966 65.6991 44.8544 59 44.8544ZM64.9155 35.5649C64.7874 35.9676 64.3895 36.5796 63.896 37.0105C63.1342 37.6751 62.2056 37.818 61.763 37.3536C61.3912 36.9616 61.4522 36.2332 61.8794 35.5516C62.7538 34.1555 64.0076 33.8495 64.5516 34.1258C64.5409 34.164 64.5261 34.2007 64.5186 34.2416C64.4432 34.6661 64.5797 35.1112 64.9155 35.5649V35.5649ZM73.0797 28.7394C72.5596 28.7394 72.3094 30.1802 72.2722 31.086C72.2393 31.8844 72.0087 32.1506 71.6788 32.1506C71.2039 32.1506 70.5228 31.6002 69.9283 31.2889C69.7382 31.189 69.5921 31.1449 69.4773 31.1449C69.1368 31.1449 69.0746 31.5428 68.9577 32.106C68.7607 33.0564 68.5258 34.0424 68.0105 34.8621C67.6323 35.464 67.0474 35.8826 66.4614 35.8826C66.0762 35.8826 65.6906 35.702 65.3623 35.2743C64.0713 33.5966 66.9071 33.2535 67.4724 32.1033C67.7996 31.4382 67.695 31.2066 67.3953 31.2066C66.8057 31.2066 65.4611 32.1065 65.1837 32.361C64.6939 32.8088 64.1313 33.4686 63.4428 33.4686C63.3265 33.4686 63.2059 33.4495 63.0816 33.4075C62.3511 33.161 62.2486 32.242 62.4032 31.5593C62.5317 30.9887 62.8277 30.4761 62.0648 30.4469C62.0379 30.4458 62.011 30.4453 61.984 30.4453C61.4926 30.4453 60.9906 30.6068 60.5449 30.8086C60.0041 31.0541 59.2561 31.4929 59.06 32.1373C58.9989 32.3355 60.3106 32.5421 60.5146 32.6207C61.5367 33.0202 62.0366 34.9439 60.9672 34.9439C60.8291 34.9439 60.6649 34.9115 60.4721 34.8414C59.8017 34.5911 59.1275 34.2373 58.4257 34.2373C58.1952 34.2373 57.9619 34.2756 57.7255 34.3686C57.2357 34.5609 56.968 35.1096 56.5823 35.4534C56.0117 35.9655 55.507 36.2407 55.1107 36.2407C54.5646 36.2407 54.2246 35.7179 54.2028 34.5699C54.1837 33.637 54.0047 33.3347 53.7151 33.3347C53.1988 33.3347 52.3317 34.299 51.4005 34.3701C51.3734 34.3717 51.3473 34.3728 51.3224 34.3728C50.0798 34.3728 50.5632 32.0103 50.6599 31.282C50.7656 30.4878 50.2864 30.2057 49.5485 30.2057C48.7192 30.2057 47.5659 30.5616 46.5502 30.9478C46.599 30.9914 46.65 31.0296 46.6968 31.0775C47.6265 32.005 47.9319 33.2285 47.381 33.8081C46.8291 34.3866 45.629 34.1035 44.7003 33.1748C43.7717 32.2462 43.4652 31.0227 44.0172 30.4437C44.4884 29.9459 45.221 30.1132 45.8441 30.4453C46.6585 30.1717 47.4846 29.9331 47.4655 29.5485C47.3205 26.6394 48.1455 26.0965 48.7825 26.097C49.0253 26.103 49.2628 26.1693 49.4736 26.2898C50.0484 22.5876 47.8921 22.3363 48.9052 20.4349C49.3849 19.5355 49.8859 19.2285 50.4139 19.2285C51.5492 19.2285 52.8088 20.6474 54.248 20.6474C54.8424 20.6474 55.4677 20.4046 56.127 19.7199C56.7183 19.1057 57.1943 18.8545 57.5858 18.8545C59.3373 18.855 59.3841 23.8854 60.3855 23.8854C60.5778 23.8854 60.8057 23.7 61.0868 23.258C62.5557 20.9513 63.3371 20.2676 63.7983 20.2676C64.4708 20.2676 64.4618 21.7221 64.9064 21.7221C64.9978 21.7221 65.1094 21.66 65.2496 21.5107C65.9875 20.725 66.5554 20.3653 66.9603 20.3653C67.9149 20.3653 67.9622 22.3634 67.1844 25.476C67.1844 25.476 67.3582 25.5201 67.6126 25.5201C68.155 25.5201 69.0619 25.3208 69.4168 24.0756C69.6404 23.2915 70.0755 22.9695 70.5398 22.9695C71.2729 22.9695 72.0778 23.7717 72.2345 24.8209C72.5198 26.7371 71.2559 28.0945 71.3548 28.6725C71.3718 28.775 71.4222 28.8154 71.4977 28.8154C71.7808 28.8154 72.4167 28.239 72.9719 28.239C73.3857 28.239 73.7555 28.5604 73.8978 29.6835C73.5727 29.0029 73.3018 28.7394 73.0797 28.7394" fill="white"/>
</svg>
