<svg width="115" height="84" viewBox="0 0 115 84" fill="none" xmlns="http://www.w3.org/2000/svg">
<path d="M44.9154 81.112C44.094 81.112 43.358 80.9787 42.7074 80.712C42.0567 80.4453 41.534 80.0507 41.1394 79.528C40.7554 79.0053 40.5527 78.376 40.5314 77.64H43.4434C43.486 78.056 43.63 78.376 43.8754 78.6C44.1207 78.8133 44.4407 78.92 44.8354 78.92C45.2407 78.92 45.5607 78.8293 45.7954 78.648C46.03 78.456 46.1474 78.1947 46.1474 77.864C46.1474 77.5867 46.0514 77.3573 45.8594 77.176C45.678 76.9947 45.4487 76.8453 45.1714 76.728C44.9047 76.6107 44.5207 76.4773 44.0194 76.328C43.294 76.104 42.702 75.88 42.2434 75.656C41.7847 75.432 41.39 75.1013 41.0594 74.664C40.7287 74.2267 40.5634 73.656 40.5634 72.952C40.5634 71.9067 40.942 71.0907 41.6994 70.504C42.4567 69.9067 43.4434 69.608 44.6594 69.608C45.8967 69.608 46.894 69.9067 47.6514 70.504C48.4087 71.0907 48.814 71.912 48.8674 72.968H45.9074C45.886 72.6053 45.7527 72.3227 45.5074 72.12C45.262 71.9067 44.9474 71.8 44.5634 71.8C44.2327 71.8 43.966 71.8907 43.7634 72.072C43.5607 72.2427 43.4594 72.4933 43.4594 72.824C43.4594 73.1867 43.63 73.4693 43.9714 73.672C44.3127 73.8747 44.846 74.0933 45.5714 74.328C46.2967 74.5733 46.8834 74.808 47.3314 75.032C47.79 75.256 48.1847 75.5813 48.5154 76.008C48.846 76.4347 49.0114 76.984 49.0114 77.656C49.0114 78.296 48.846 78.8773 48.5154 79.4C48.1954 79.9227 47.726 80.3387 47.1074 80.648C46.4887 80.9573 45.758 81.112 44.9154 81.112ZM52.0711 71.144C51.5911 71.144 51.1965 71.0053 50.8871 70.728C50.5885 70.44 50.4391 70.088 50.4391 69.672C50.4391 69.2453 50.5885 68.8933 50.8871 68.616C51.1965 68.328 51.5911 68.184 52.0711 68.184C52.5405 68.184 52.9245 68.328 53.2231 68.616C53.5325 68.8933 53.6871 69.2453 53.6871 69.672C53.6871 70.088 53.5325 70.44 53.2231 70.728C52.9245 71.0053 52.5405 71.144 52.0711 71.144ZM53.4311 72.072V81H50.6951V72.072H53.4311ZM54.8699 76.52C54.8699 75.6027 55.0405 74.7973 55.3819 74.104C55.7339 73.4107 56.2085 72.8773 56.8059 72.504C57.4032 72.1307 58.0699 71.944 58.8059 71.944C59.3925 71.944 59.9259 72.0667 60.4059 72.312C60.8965 72.5573 61.2805 72.888 61.5579 73.304V69.16H64.2939V81H61.5579V79.72C61.3019 80.1467 60.9339 80.488 60.4539 80.744C59.9845 81 59.4352 81.128 58.8059 81.128C58.0699 81.128 57.4032 80.9413 56.8059 80.568C56.2085 80.184 55.7339 79.6453 55.3819 78.952C55.0405 78.248 54.8699 77.4373 54.8699 76.52ZM61.5579 76.536C61.5579 75.8533 61.3659 75.3147 60.9819 74.92C60.6085 74.5253 60.1499 74.328 59.6059 74.328C59.0619 74.328 58.5979 74.5253 58.2139 74.92C57.8405 75.304 57.6539 75.8373 57.6539 76.52C57.6539 77.2027 57.8405 77.7467 58.2139 78.152C58.5979 78.5467 59.0619 78.744 59.6059 78.744C60.1499 78.744 60.6085 78.5467 60.9819 78.152C61.3659 77.7573 61.5579 77.2187 61.5579 76.536ZM74.6892 76.392C74.6892 76.648 74.6733 76.9147 74.6413 77.192H68.4493C68.4919 77.7467 68.6679 78.1733 68.9773 78.472C69.2973 78.76 69.6866 78.904 70.1453 78.904C70.8279 78.904 71.3026 78.616 71.5693 78.04H74.4813C74.3319 78.6267 74.0599 79.1547 73.6653 79.624C73.2813 80.0933 72.7959 80.4613 72.2093 80.728C71.6226 80.9947 70.9666 81.128 70.2413 81.128C69.3666 81.128 68.5879 80.9413 67.9053 80.568C67.2226 80.1947 66.6893 79.6613 66.3053 78.968C65.9213 78.2747 65.7293 77.464 65.7293 76.536C65.7293 75.608 65.9159 74.7973 66.2893 74.104C66.6733 73.4107 67.2066 72.8773 67.8893 72.504C68.5719 72.1307 69.3559 71.944 70.2413 71.944C71.1053 71.944 71.8733 72.1253 72.5453 72.488C73.2173 72.8507 73.7399 73.368 74.1133 74.04C74.4973 74.712 74.6892 75.496 74.6892 76.392ZM71.8893 75.672C71.8893 75.2027 71.7293 74.8293 71.4093 74.552C71.0893 74.2747 70.6893 74.136 70.2093 74.136C69.7506 74.136 69.3613 74.2693 69.0413 74.536C68.7319 74.8027 68.5399 75.1813 68.4653 75.672H71.8893Z" fill="black"/>
<circle cx="59" cy="32" r="32" fill="#092C4C"/>
<path d="M59.8642 15.24C59.6245 15.0317 59.3176 14.917 59 14.917C58.6824 14.917 58.3756 15.0317 58.1358 15.24C57.059 16.1724 56.1893 17.3199 55.5825 18.6086C54.9757 19.8973 54.6453 21.2988 54.6126 22.7228C54.6118 22.8551 54.6484 22.985 54.718 23.0975C54.7877 23.21 54.8876 23.3006 55.0064 23.3589C55.868 23.8072 56.676 24.3519 57.4148 24.9824C57.7803 25.2927 58.1118 25.6171 58.4121 25.9472C58.7238 26.29 59.2763 26.29 59.5879 25.9472C59.8897 25.6171 60.2212 25.2927 60.5853 24.9838C61.3238 24.353 62.1318 23.8084 62.9936 23.3603C63.1126 23.3022 63.2129 23.2117 63.2828 23.0992C63.3527 22.9867 63.3895 22.8567 63.3888 22.7242C63.3563 21.3 63.026 19.8982 62.4192 18.6093C61.8125 17.3203 60.9426 16.1726 59.8656 15.24H59.8642ZM59 37.561C60.1373 35.5588 61.8464 33.9418 63.9085 32.9171C65.9705 31.8923 68.2915 31.5066 70.5742 31.8093C71.2655 31.9 71.7826 32.5177 71.7288 33.2317C71.5207 35.935 70.2997 38.4602 68.3101 40.3022C66.3205 42.1442 63.7089 43.1672 60.9975 43.1667H57.0025C54.2914 43.1669 51.6801 42.1437 49.6908 40.3017C47.7015 38.4598 46.4808 35.9348 46.2727 33.2317C46.2469 32.8919 46.3522 32.5553 46.5669 32.2908C46.7817 32.0262 47.0895 31.854 47.4273 31.8093C49.7099 31.5064 52.031 31.8921 54.0931 32.9168C56.1552 33.9415 57.8643 35.5587 59.0014 37.561H59ZM69.8318 30.3176C67.2153 30.1731 64.6553 30.8559 62.57 31.968C61.3205 32.6338 60.1758 33.4909 59.2805 34.4769C59.2449 34.5159 59.2016 34.5471 59.1533 34.5684C59.105 34.5897 59.0528 34.6007 59 34.6007C58.9472 34.6007 58.895 34.5897 58.8467 34.5684C58.7984 34.5471 58.7551 34.5159 58.7195 34.4769C57.827 33.4895 56.6809 32.6338 55.4314 31.968C53.3503 30.8587 50.7989 30.1773 48.1894 30.3176C47.1553 28.6884 46.4469 26.8184 46.2769 24.9342C46.261 24.7561 46.2804 24.5766 46.3341 24.406C46.3878 24.2354 46.4746 24.0771 46.5897 23.9402C46.7048 23.8032 46.8458 23.6904 47.0046 23.6082C47.1634 23.5259 47.3369 23.4759 47.5151 23.4609C50.993 23.1705 53.8958 23.8576 56.4996 26.0633C57.6754 27.0592 58.4631 28.2549 59.0014 29.2749C59.5383 28.2549 60.3274 27.0592 61.5018 26.0633C64.1085 23.8562 67.0311 23.1705 70.5062 23.4609C70.6845 23.4757 70.8582 23.5256 71.0171 23.6078C71.1761 23.69 71.3173 23.8028 71.4325 23.9397C71.5477 24.0766 71.6347 24.235 71.6884 24.4057C71.7422 24.5764 71.7617 24.756 71.7458 24.9342C71.5743 26.8184 70.866 28.6898 69.8333 30.3176H69.8318Z" fill="white"/>
</svg>
