<svg width="115" height="86" viewBox="0 0 115 86" fill="none" xmlns="http://www.w3.org/2000/svg">
<path d="M41.7201 81.112C40.8987 81.112 40.1627 80.9787 39.5121 80.712C38.8614 80.4453 38.3387 80.0507 37.9441 79.528C37.5601 79.0053 37.3574 78.376 37.3361 77.64H40.2481C40.2907 78.056 40.4347 78.376 40.6801 78.6C40.9254 78.8133 41.2454 78.92 41.6401 78.92C42.0454 78.92 42.3654 78.8293 42.6001 78.648C42.8347 78.456 42.9521 78.1947 42.9521 77.864C42.9521 77.5867 42.8561 77.3573 42.6641 77.176C42.4827 76.9947 42.2534 76.8453 41.9761 76.728C41.7094 76.6107 41.3254 76.4773 40.8241 76.328C40.0987 76.104 39.5067 75.88 39.0481 75.656C38.5894 75.432 38.1947 75.1013 37.8641 74.664C37.5334 74.2267 37.3681 73.656 37.3681 72.952C37.3681 71.9067 37.7467 71.0907 38.5041 70.504C39.2614 69.9067 40.2481 69.608 41.4641 69.608C42.7014 69.608 43.6987 69.9067 44.4561 70.504C45.2134 71.0907 45.6187 71.912 45.6721 72.968H42.7121C42.6907 72.6053 42.5574 72.3227 42.3121 72.12C42.0667 71.9067 41.7521 71.8 41.3681 71.8C41.0374 71.8 40.7707 71.8907 40.5681 72.072C40.3654 72.2427 40.2641 72.4933 40.2641 72.824C40.2641 73.1867 40.4347 73.4693 40.7761 73.672C41.1174 73.8747 41.6507 74.0933 42.3761 74.328C43.1014 74.5733 43.6881 74.808 44.1361 75.032C44.5947 75.256 44.9894 75.5813 45.3201 76.008C45.6507 76.4347 45.8161 76.984 45.8161 77.656C45.8161 78.296 45.6507 78.8773 45.3201 79.4C45.0001 79.9227 44.5307 80.3387 43.9121 80.648C43.2934 80.9573 42.5627 81.112 41.7201 81.112ZM51.5638 81.128C50.6891 81.128 49.8998 80.9413 49.1958 80.568C48.5025 80.1947 47.9531 79.6613 47.5478 78.968C47.1531 78.2747 46.9558 77.464 46.9558 76.536C46.9558 75.6187 47.1585 74.8133 47.5638 74.12C47.9691 73.416 48.5238 72.8773 49.2278 72.504C49.9318 72.1307 50.7211 71.944 51.5958 71.944C52.4705 71.944 53.2598 72.1307 53.9638 72.504C54.6678 72.8773 55.2225 73.416 55.6278 74.12C56.0331 74.8133 56.2358 75.6187 56.2358 76.536C56.2358 77.4533 56.0278 78.264 55.6118 78.968C55.2065 79.6613 54.6465 80.1947 53.9318 80.568C53.2278 80.9413 52.4385 81.128 51.5638 81.128ZM51.5638 78.76C52.0865 78.76 52.5291 78.568 52.8918 78.184C53.2651 77.8 53.4518 77.2507 53.4518 76.536C53.4518 75.8213 53.2705 75.272 52.9078 74.888C52.5558 74.504 52.1185 74.312 51.5958 74.312C51.0625 74.312 50.6198 74.504 50.2678 74.888C49.9158 75.2613 49.7398 75.8107 49.7398 76.536C49.7398 77.2507 49.9105 77.8 50.2518 78.184C50.6038 78.568 51.0411 78.76 51.5638 78.76ZM66.5033 72.072V81H63.7673V79.784C63.49 80.1787 63.1113 80.4987 62.6313 80.744C62.162 80.9787 61.6393 81.096 61.0633 81.096C60.3806 81.096 59.778 80.9467 59.2553 80.648C58.7326 80.3387 58.3273 79.896 58.0393 79.32C57.7513 78.744 57.6073 78.0667 57.6073 77.288V72.072H60.3273V76.92C60.3273 77.5173 60.482 77.9813 60.7913 78.312C61.1006 78.6427 61.5166 78.808 62.0393 78.808C62.5726 78.808 62.994 78.6427 63.3033 78.312C63.6126 77.9813 63.7673 77.5173 63.7673 76.92V72.072H66.5033ZM71.2046 73.336C71.4712 72.92 71.8392 72.584 72.3086 72.328C72.7779 72.072 73.3272 71.944 73.9566 71.944C74.6926 71.944 75.3592 72.1307 75.9566 72.504C76.5539 72.8773 77.0232 73.4107 77.3646 74.104C77.7166 74.7973 77.8926 75.6027 77.8926 76.52C77.8926 77.4373 77.7166 78.248 77.3646 78.952C77.0232 79.6453 76.5539 80.184 75.9566 80.568C75.3592 80.9413 74.6926 81.128 73.9566 81.128C73.3379 81.128 72.7886 81 72.3086 80.744C71.8392 80.488 71.4712 80.1573 71.2046 79.752V85.256H68.4686V72.072H71.2046V73.336ZM75.1086 76.52C75.1086 75.8373 74.9166 75.304 74.5326 74.92C74.1592 74.5253 73.6952 74.328 73.1406 74.328C72.5966 74.328 72.1326 74.5253 71.7486 74.92C71.3752 75.3147 71.1886 75.8533 71.1886 76.536C71.1886 77.2187 71.3752 77.7573 71.7486 78.152C72.1326 78.5467 72.5966 78.744 73.1406 78.744C73.6846 78.744 74.1486 78.5467 74.5326 78.152C74.9166 77.7467 75.1086 77.2027 75.1086 76.52Z" fill="black"/>
<circle cx="59" cy="32" r="32" fill="#092C4C"/>
<path d="M52.916 22.0833C52.4343 22.8625 52.3493 23.4575 52.3493 24.0383C52.3493 25.1292 53.766 27.75 53.766 29.1667C53.766 30.5125 53.1993 31.2917 53.1993 31.2917H51.0743C51.0743 31.2917 51.641 30.5125 51.641 29.1667C51.641 27.75 50.2243 25.1292 50.2243 24.0383C50.2243 23.4575 50.3093 22.8625 50.791 22.0833H52.916V22.0833ZM59.9993 22.0833C59.5176 22.8625 59.4326 23.4575 59.4326 24.0383C59.4326 25.1292 60.8493 27.75 60.8493 29.1667C60.8493 30.5125 60.2826 31.2917 60.2826 31.2917H62.4076C62.4076 31.2917 62.9743 30.5125 62.9743 29.1667C62.9743 27.75 61.5576 25.1292 61.5576 24.0383C61.5576 23.4575 61.6426 22.8625 62.1243 22.0833H59.9993V22.0833ZM55.3951 22.0833C54.9135 22.8625 54.8285 23.4575 54.8285 24.0383C54.8285 25.1292 56.2451 27.7642 56.2451 29.1667C56.2451 30.5125 55.6785 31.2917 55.6785 31.2917H57.8035C57.8035 31.2917 58.3701 30.5125 58.3701 29.1667C58.3701 27.75 56.9535 25.1292 56.9535 24.0383C56.9535 23.4575 57.0385 22.8625 57.5201 22.0833H55.3951V22.0833ZM74.2651 21.375C74.2651 21.375 74.4493 19.8733 74.4493 19.25C74.4493 16.9125 72.5368 15 70.1993 15C68.0176 15 66.2185 16.6433 65.9776 18.7542L64.4335 33.4167H48.0001C47.9718 38.8992 52.3776 43.3333 57.6618 43.3333C62.5918 43.3333 66.6435 39.4658 67.1676 34.5075L68.7968 19.1083C68.8676 18.3858 69.4626 17.8333 70.1993 17.8333C70.9785 17.8333 71.616 18.4708 71.616 19.25C71.616 19.675 71.4743 21.0208 71.4743 21.0208L74.2651 21.375V21.375Z" fill="white"/>
</svg>
