<svg width="115" height="86" viewBox="0 0 115 86" fill="none" xmlns="http://www.w3.org/2000/svg">
<circle cx="59" cy="32" r="32" fill="#092C4C"/>
<path d="M10.2517 69.768V71.96H7.27569V81H4.53969V71.96H1.56369V69.768H10.2517ZM17.1128 71.976C18.1368 71.976 18.9581 72.3173 19.5768 73C20.1955 73.672 20.5048 74.6 20.5048 75.784V81H17.7848V76.152C17.7848 75.5547 17.6301 75.0907 17.3208 74.76C17.0115 74.4293 16.5955 74.264 16.0728 74.264C15.5501 74.264 15.1341 74.4293 14.8248 74.76C14.5155 75.0907 14.3608 75.5547 14.3608 76.152V81H11.6248V69.16H14.3608V73.272C14.6381 72.8773 15.0168 72.5627 15.4968 72.328C15.9768 72.0933 16.5155 71.976 17.1128 71.976ZM21.8621 76.52C21.8621 75.6027 22.0327 74.7973 22.3741 74.104C22.7261 73.4107 23.2007 72.8773 23.7981 72.504C24.3954 72.1307 25.0621 71.944 25.7981 71.944C26.4274 71.944 26.9767 72.072 27.4461 72.328C27.9261 72.584 28.2941 72.92 28.5501 73.336V72.072H31.2861V81H28.5501V79.736C28.2834 80.152 27.9101 80.488 27.4301 80.744C26.9607 81 26.4114 81.128 25.7821 81.128C25.0567 81.128 24.3954 80.9413 23.7981 80.568C23.2007 80.184 22.7261 79.6453 22.3741 78.952C22.0327 78.248 21.8621 77.4373 21.8621 76.52ZM28.5501 76.536C28.5501 75.8533 28.3581 75.3147 27.9741 74.92C27.6007 74.5253 27.1421 74.328 26.5981 74.328C26.0541 74.328 25.5901 74.5253 25.2061 74.92C24.8327 75.304 24.6461 75.8373 24.6461 76.52C24.6461 77.2027 24.8327 77.7467 25.2061 78.152C25.5901 78.5467 26.0541 78.744 26.5981 78.744C27.1421 78.744 27.6007 78.5467 27.9741 78.152C28.3581 77.7573 28.5501 77.2187 28.5501 76.536ZM38.7054 71.976C39.7508 71.976 40.5828 72.3173 41.2014 73C41.8308 73.672 42.1454 74.6 42.1454 75.784V81H39.4254V76.152C39.4254 75.5547 39.2708 75.0907 38.9614 74.76C38.6521 74.4293 38.2361 74.264 37.7134 74.264C37.1908 74.264 36.7748 74.4293 36.4654 74.76C36.1561 75.0907 36.0014 75.5547 36.0014 76.152V81H33.2654V72.072H36.0014V73.256C36.2788 72.8613 36.6521 72.552 37.1214 72.328C37.5908 72.0933 38.1188 71.976 38.7054 71.976ZM49.5027 81L46.7827 77.256V81H44.0467V69.16H46.7827V75.704L49.4867 72.072H52.8627L49.1507 76.552L52.8947 81H49.5027ZM57.5693 81.128C56.7906 81.128 56.0973 80.9947 55.4893 80.728C54.8813 80.4613 54.4013 80.0987 54.0493 79.64C53.6973 79.1707 53.5 78.648 53.4573 78.072H56.1613C56.1933 78.3813 56.3373 78.632 56.5933 78.824C56.8493 79.016 57.164 79.112 57.5373 79.112C57.8786 79.112 58.14 79.048 58.3213 78.92C58.5133 78.7813 58.6093 78.6053 58.6093 78.392C58.6093 78.136 58.476 77.9493 58.2093 77.832C57.9426 77.704 57.5106 77.5653 56.9133 77.416C56.2733 77.2667 55.74 77.112 55.3133 76.952C54.8866 76.7813 54.5186 76.52 54.2093 76.168C53.9 75.8053 53.7453 75.32 53.7453 74.712C53.7453 74.2 53.884 73.736 54.1613 73.32C54.4493 72.8933 54.8653 72.5573 55.4093 72.312C55.964 72.0667 56.62 71.944 57.3773 71.944C58.4973 71.944 59.3773 72.2213 60.0173 72.776C60.668 73.3307 61.0413 74.0667 61.1373 74.984H58.6093C58.5666 74.6747 58.428 74.4293 58.1933 74.248C57.9693 74.0667 57.6706 73.976 57.2973 73.976C56.9773 73.976 56.732 74.04 56.5613 74.168C56.3906 74.2853 56.3053 74.4507 56.3053 74.664C56.3053 74.92 56.4386 75.112 56.7053 75.24C56.9826 75.368 57.4093 75.496 57.9853 75.624C58.6466 75.7947 59.1853 75.9653 59.6013 76.136C60.0173 76.296 60.38 76.5627 60.6893 76.936C61.0093 77.2987 61.1746 77.7893 61.1853 78.408C61.1853 78.9307 61.036 79.4 60.7373 79.816C60.4493 80.2213 60.028 80.5413 59.4733 80.776C58.9293 81.0107 58.2946 81.128 57.5693 81.128ZM66.2512 71.944C66.8805 71.944 67.4299 72.072 67.8992 72.328C68.3792 72.584 68.7472 72.92 69.0032 73.336V72.072H71.7392V80.984C71.7392 81.8053 71.5739 82.5467 71.2432 83.208C70.9232 83.88 70.4272 84.4133 69.7552 84.808C69.0939 85.2027 68.2672 85.4 67.2752 85.4C65.9525 85.4 64.8805 85.0853 64.0592 84.456C63.2379 83.8373 62.7685 82.9947 62.6512 81.928H65.3552C65.4405 82.2693 65.6432 82.536 65.9632 82.728C66.2832 82.9307 66.6779 83.032 67.1472 83.032C67.7125 83.032 68.1605 82.8667 68.4912 82.536C68.8325 82.216 69.0032 81.6987 69.0032 80.984V79.72C68.7365 80.136 68.3685 80.4773 67.8992 80.744C67.4299 81 66.8805 81.128 66.2512 81.128C65.5152 81.128 64.8485 80.9413 64.2512 80.568C63.6539 80.184 63.1792 79.6453 62.8272 78.952C62.4859 78.248 62.3152 77.4373 62.3152 76.52C62.3152 75.6027 62.4859 74.7973 62.8272 74.104C63.1792 73.4107 63.6539 72.8773 64.2512 72.504C64.8485 72.1307 65.5152 71.944 66.2512 71.944ZM69.0032 76.536C69.0032 75.8533 68.8112 75.3147 68.4272 74.92C68.0539 74.5253 67.5952 74.328 67.0512 74.328C66.5072 74.328 66.0432 74.5253 65.6592 74.92C65.2859 75.304 65.0992 75.8373 65.0992 76.52C65.0992 77.2027 65.2859 77.7467 65.6592 78.152C66.0432 78.5467 66.5072 78.744 67.0512 78.744C67.5952 78.744 68.0539 78.5467 68.4272 78.152C68.8112 77.7573 69.0032 77.2187 69.0032 76.536ZM75.0946 71.144C74.6146 71.144 74.2199 71.0053 73.9106 70.728C73.6119 70.44 73.4626 70.088 73.4626 69.672C73.4626 69.2453 73.6119 68.8933 73.9106 68.616C74.2199 68.328 74.6146 68.184 75.0946 68.184C75.5639 68.184 75.9479 68.328 76.2466 68.616C76.5559 68.8933 76.7106 69.2453 76.7106 69.672C76.7106 70.088 76.5559 70.44 76.2466 70.728C75.9479 71.0053 75.5639 71.144 75.0946 71.144ZM76.4546 72.072V81H73.7186V72.072H76.4546ZM82.4533 78.44L84.3893 72.072H87.3013L84.1333 81H80.7573L77.5893 72.072H80.5173L82.4533 78.44ZM89.8289 71.144C89.3489 71.144 88.9543 71.0053 88.6449 70.728C88.3463 70.44 88.1969 70.088 88.1969 69.672C88.1969 69.2453 88.3463 68.8933 88.6449 68.616C88.9543 68.328 89.3489 68.184 89.8289 68.184C90.2983 68.184 90.6823 68.328 90.9809 68.616C91.2903 68.8933 91.4449 69.2453 91.4449 69.672C91.4449 70.088 91.2903 70.44 90.9809 70.728C90.6823 71.0053 90.2983 71.144 89.8289 71.144ZM91.1889 72.072V81H88.4529V72.072H91.1889ZM98.6117 71.976C99.657 71.976 100.489 72.3173 101.108 73C101.737 73.672 102.052 74.6 102.052 75.784V81H99.3317V76.152C99.3317 75.5547 99.177 75.0907 98.8677 74.76C98.5584 74.4293 98.1424 74.264 97.6197 74.264C97.097 74.264 96.681 74.4293 96.3717 74.76C96.0624 75.0907 95.9077 75.5547 95.9077 76.152V81H93.1717V72.072H95.9077V73.256C96.185 72.8613 96.5584 72.552 97.0277 72.328C97.497 72.0933 98.025 71.976 98.6117 71.976ZM107.345 71.944C107.974 71.944 108.524 72.072 108.993 72.328C109.473 72.584 109.841 72.92 110.097 73.336V72.072H112.833V80.984C112.833 81.8053 112.668 82.5467 112.337 83.208C112.017 83.88 111.521 84.4133 110.849 84.808C110.188 85.2027 109.361 85.4 108.369 85.4C107.046 85.4 105.974 85.0853 105.153 84.456C104.332 83.8373 103.862 82.9947 103.745 81.928H106.449C106.534 82.2693 106.737 82.536 107.057 82.728C107.377 82.9307 107.772 83.032 108.241 83.032C108.806 83.032 109.254 82.8667 109.585 82.536C109.926 82.216 110.097 81.6987 110.097 80.984V79.72C109.83 80.136 109.462 80.4773 108.993 80.744C108.524 81 107.974 81.128 107.345 81.128C106.609 81.128 105.942 80.9413 105.345 80.568C104.748 80.184 104.273 79.6453 103.921 78.952C103.58 78.248 103.409 77.4373 103.409 76.52C103.409 75.6027 103.58 74.7973 103.921 74.104C104.273 73.4107 104.748 72.8773 105.345 72.504C105.942 72.1307 106.609 71.944 107.345 71.944ZM110.097 76.536C110.097 75.8533 109.905 75.3147 109.521 74.92C109.148 74.5253 108.689 74.328 108.145 74.328C107.601 74.328 107.137 74.5253 106.753 74.92C106.38 75.304 106.193 75.8373 106.193 76.52C106.193 77.2027 106.38 77.7467 106.753 78.152C107.137 78.5467 107.601 78.744 108.145 78.744C108.689 78.744 109.148 78.5467 109.521 78.152C109.905 77.7573 110.097 77.2187 110.097 76.536Z" fill="black"/>
<path d="M74.6648 26.6455H73.0386L74.4475 25.8077C75.025 25.463 75.2247 24.7017 74.89 24.1067L72.9977 20.7332C72.6646 20.1361 71.9241 19.9316 71.3466 20.2774L69.9388 21.1142L70.7511 19.6644C71.0847 19.0688 70.8871 18.306 70.3085 17.9623L67.0328 16.0152C66.4538 15.6704 65.7143 15.875 65.3812 16.471L64.5678 17.9219V16.2474C64.5668 15.5578 64.0249 15 63.3566 15H59.5757C58.9074 15 58.3655 15.5578 58.3655 16.2463V17.9208L57.5522 16.471C57.2185 15.875 56.478 15.6704 55.8994 16.0152L53.2188 17.609C52.9834 17.1845 52.7587 16.9869 52.6248 16.8721C51.9847 16.3223 51.2638 16.0312 50.5407 16.0312C49.1765 16.0312 47.8866 17.0033 46.7072 18.9201C46.6155 19.0696 46.5385 19.2276 46.4772 19.3918L46.3152 19.4561C43.9245 20.4012 43.9968 23.4633 44.001 23.5935L44.0329 24.5583L44.7852 24.0079C45.1501 23.7407 45.8195 23.3608 46.1659 23.3523C46.3539 23.3523 46.5239 23.4532 46.6599 23.534C46.7258 23.5733 46.7901 23.6105 46.8592 23.6381C46.7364 23.9962 46.5223 24.4074 46.1744 24.9014L46.0676 25.0513C45.3993 25.982 44.3888 27.3888 45.2149 28.3105C45.2941 28.3992 45.4168 28.4938 45.5799 28.5591C43.8873 33.6001 47.9668 37.9888 51.8986 40.0059C51.701 40.0638 51.4975 40.0963 51.2839 40.0963C50.7819 40.0963 50.2793 39.948 49.7476 39.7913C49.1871 39.625 48.608 39.454 47.9976 39.454C47.5584 39.4515 47.1242 39.5487 46.7279 39.7382C46.6901 39.757 46.6572 39.7845 46.6321 39.8184C46.6069 39.8523 46.5901 39.8917 46.583 39.9333C46.576 39.975 46.5789 40.0177 46.5915 40.0581C46.6041 40.0984 46.6261 40.1351 46.6557 40.1653C46.7136 40.2237 48.1044 41.6066 50.2294 41.7341C51.0141 41.7808 51.0305 42.0486 51.0661 42.6335C51.1054 43.2752 51.1596 44.1545 52.4458 44.741C52.5499 44.7883 52.6291 44.8095 52.7024 44.8095C52.7523 44.8104 52.8018 44.7994 52.8466 44.7773C52.8914 44.7552 52.9303 44.7227 52.96 44.6825C53.078 44.5232 53.0286 44.3383 52.9388 44.002C52.7683 43.3629 52.449 42.1506 53.053 40.5324C53.299 40.6307 53.5428 40.7205 53.7813 40.7975C53.7776 40.8177 53.7713 40.8379 53.7713 40.8597C53.7713 41.8547 54.8571 43.2131 56.0413 43.6843C55.6051 44.4121 54.9145 44.7351 54.0337 45.1437C53.3866 45.4449 52.6524 45.7859 51.8981 46.3629C51.8584 46.3937 51.8282 46.435 51.8109 46.4822C51.7936 46.5293 51.79 46.5804 51.8003 46.6296C51.81 46.6784 51.8336 46.7235 51.8681 46.7593C51.9027 46.7952 51.9468 46.8204 51.9953 46.832C52.0139 46.8362 52.1961 46.875 52.5558 46.875C53.1056 46.875 54.0544 46.7842 55.4553 46.3528C55.909 46.2125 56.2809 46.2858 56.8297 46.4192C57.3652 46.5488 58.0988 46.7268 59.2697 46.7268C59.4833 46.7268 59.6203 46.6529 59.6761 46.5074C59.7712 46.2572 59.5821 46.0755 59.1672 45.6792C58.7156 45.2467 58.0181 44.5731 57.5437 43.6726C58.0568 43.4182 58.5541 42.9193 58.9616 42.3477C60.1914 42.8758 61.3602 43.1653 62.2628 43.1653C63.8167 43.1653 64.2236 42.3705 64.3793 41.4233L65.3796 43.2067C65.7138 43.8023 66.4533 44.0073 67.0313 43.6609L70.3069 41.7155C70.8855 41.3707 71.0842 40.6084 70.7495 40.0134L69.9361 38.5625L71.345 39.4003C71.9235 39.744 72.6641 39.5411 72.9967 38.9445L74.8884 35.5711C75.2221 34.9755 75.0244 34.2127 74.4448 33.8695L73.0392 33.0333H74.6643C75.3326 33.0322 75.875 32.4739 75.8739 31.7859V27.8908C75.8755 27.2023 75.3326 26.6445 74.6648 26.6455V26.6455ZM46.176 22.8248H46.1526C45.4976 22.8413 44.4993 23.5744 44.4993 23.5744C44.4993 23.5744 44.4186 20.9282 46.3306 20.0256C46.2758 20.6653 46.4968 21.2183 46.6791 21.6624C46.8693 22.1267 47.0435 22.5581 46.9792 23.117C46.8246 23.0325 46.5378 22.8248 46.176 22.8248V22.8248ZM46.7752 25.3727C49.1898 21.9429 46.1919 21.2061 47.3346 19.3509C48.4678 17.5102 49.5685 16.8217 50.5407 16.8217C51.1336 16.8217 51.6787 17.0777 52.1531 17.4857C53.419 18.5711 53.4164 22.6665 53.3834 24.2661C53.351 25.8641 51.0204 25.1182 50.2703 25.4948C49.3645 25.948 49.0623 29.1727 48.1209 29.1727C48.0905 29.1726 48.0603 29.1694 48.0306 29.1631C47.52 29.0553 47.6651 26.9988 47.6651 26.9988C47.6651 26.9988 46.5261 27.8483 45.9778 27.8483C45.8848 27.8483 45.8089 27.8244 45.7584 27.7675C45.3313 27.2905 46.4033 25.8997 46.7752 25.3727V25.3727ZM52.4442 44.1412L52.449 44.1571C51.6436 43.7135 51.6091 43.1483 51.5751 42.6C51.5389 42.013 51.4943 41.2815 50.2576 41.2082C48.8944 41.1258 47.843 40.4564 47.3394 40.067C48.0454 39.8715 48.8556 40.0755 49.6052 40.2971C50.1476 40.457 50.7091 40.6227 51.2829 40.6227C51.7318 40.6227 52.1424 40.5197 52.5329 40.313L52.5797 40.3332C51.9103 42.1251 52.2721 43.4952 52.4442 44.1412ZM58.8192 46.0654L58.9547 46.195C58.0276 46.1679 57.4342 46.0239 56.9476 45.906C56.3584 45.7631 55.8654 45.676 55.3092 45.8481C54.1989 46.1908 53.3935 46.3092 52.857 46.3395C53.3415 46.0436 53.8122 45.8247 54.2435 45.6244C55.178 45.1909 56.0222 44.7904 56.5412 43.8251C56.6469 43.8421 56.7516 43.8543 56.8557 43.8543C56.9178 43.8543 56.9805 43.8389 57.0438 43.8293C57.5543 44.8483 58.3241 45.591 58.8192 46.0654" fill="white"/>
<path d="M44.7221 20.5704C44.8961 20.5704 45.0372 20.4938 45.0372 20.3993C45.0372 20.3049 44.8961 20.2283 44.7221 20.2283C44.5481 20.2283 44.4071 20.3049 44.4071 20.3993C44.4071 20.4938 44.5481 20.5704 44.7221 20.5704Z" fill="white"/>
<path d="M48.1907 17.9453C46.7244 18.1695 46.9061 19.4466 46.9061 19.4466C48.6396 20.1325 48.1907 17.9453 48.1907 17.9453" fill="white"/>
</svg>
