<svg width="93" height="82" viewBox="0 0 93 82" fill="none" xmlns="http://www.w3.org/2000/svg">
<path d="M79 32C79 40.4869 75.6286 48.6263 69.6274 54.6274C63.6263 60.6286 55.4869 64 47 64C38.5131 64 30.3737 60.6286 24.3726 54.6274C18.3714 48.6263 15 40.4869 15 32C15 23.5131 18.3714 15.3737 24.3726 9.37258C30.3737 3.37142 38.5131 0 47 0C55.4869 0 63.6263 3.37142 69.6274 9.37258C75.6286 15.3737 79 23.5131 79 32ZM47 14C47 13.4696 46.7893 12.9609 46.4142 12.5858C46.0391 12.2107 45.5304 12 45 12C44.4696 12 43.9609 12.2107 43.5858 12.5858C43.2107 12.9609 43 13.4696 43 14V36C43.0001 36.3525 43.0934 36.6988 43.2704 37.0036C43.4474 37.3085 43.7019 37.5611 44.008 37.736L58.008 45.736C58.4674 45.9843 59.0058 46.043 59.5079 45.8997C60.0101 45.7563 60.4363 45.4222 60.6954 44.9688C60.9545 44.5154 61.026 43.9786 60.8945 43.4732C60.7631 42.9677 60.4392 42.5338 59.992 42.264L47 34.84V14Z" fill="#092C4C"/>
<path d="M53.9499 32.0895C55.4201 32.0895 56.4716 31.2809 56.4684 30.1623C56.4716 29.3473 55.9538 28.7656 54.9918 28.6442V28.593C55.7237 28.462 56.2287 27.9442 56.2255 27.2092C56.2287 26.1768 55.3242 25.3651 53.9691 25.3651C52.6268 25.3651 51.6168 26.1513 51.5977 27.2827H52.924C52.94 26.7841 53.397 26.4613 53.9627 26.4613C54.522 26.4613 54.896 26.8001 54.8928 27.2923C54.896 27.8068 54.4581 28.1552 53.8285 28.1552H53.218V29.1715H53.8285C54.57 29.1715 55.0334 29.5423 55.0302 30.0696C55.0334 30.5906 54.5859 30.9485 53.9531 30.9485C53.3427 30.9485 52.8857 30.6289 52.8601 30.1495H51.4666C51.489 31.2937 52.5117 32.0895 53.9499 32.0895ZM60.0296 32.1438C61.6755 32.1438 62.6695 30.891 62.6727 28.7337C62.6759 26.5923 61.6691 25.3651 60.0296 25.3651C58.3868 25.3651 57.3896 26.5891 57.3865 28.7337C57.3801 30.8846 58.3804 32.1406 60.0296 32.1438ZM60.0296 30.9964C59.2785 30.9964 58.7927 30.2422 58.7959 28.7337C58.7991 27.2475 59.2817 26.4996 60.0296 26.4996C60.7742 26.4996 61.26 27.2475 61.26 28.7337C61.2632 30.2422 60.7774 30.9964 60.0296 30.9964Z" fill="white"/>
<path d="M14.8785 72.616C14.9212 71.4747 15.2945 70.5947 15.9985 69.976C16.7025 69.3573 17.6572 69.048 18.8625 69.048C19.6625 69.048 20.3452 69.1867 20.9105 69.464C21.4865 69.7413 21.9185 70.12 22.2065 70.6C22.5052 71.08 22.6545 71.6187 22.6545 72.216C22.6545 72.92 22.4785 73.496 22.1265 73.944C21.7745 74.3813 21.3638 74.68 20.8945 74.84V74.904C21.5025 75.1067 21.9825 75.4427 22.3345 75.912C22.6865 76.3813 22.8625 76.984 22.8625 77.72C22.8625 78.3813 22.7078 78.968 22.3985 79.48C22.0998 79.9813 21.6572 80.376 21.0705 80.664C20.4945 80.952 19.8065 81.096 19.0065 81.096C17.7265 81.096 16.7025 80.7813 15.9345 80.152C15.1772 79.5227 14.7772 78.5733 14.7345 77.304H17.3905C17.4012 77.7733 17.5345 78.1467 17.7905 78.424C18.0465 78.6907 18.4198 78.824 18.9105 78.824C19.3265 78.824 19.6465 78.7067 19.8705 78.472C20.1052 78.2267 20.2225 77.9067 20.2225 77.512C20.2225 77 20.0572 76.632 19.7265 76.408C19.4065 76.1733 18.8892 76.056 18.1745 76.056H17.6625V73.832H18.1745C18.7185 73.832 19.1558 73.7413 19.4865 73.56C19.8278 73.368 19.9985 73.032 19.9985 72.552C19.9985 72.168 19.8918 71.8693 19.6785 71.656C19.4652 71.4427 19.1718 71.336 18.7985 71.336C18.3932 71.336 18.0892 71.4587 17.8865 71.704C17.6945 71.9493 17.5825 72.2533 17.5505 72.616H14.8785ZM24.47 75C24.47 73.1653 24.822 71.72 25.526 70.664C26.2407 69.608 27.3873 69.08 28.966 69.08C30.5447 69.08 31.686 69.608 32.39 70.664C33.1047 71.72 33.462 73.1653 33.462 75C33.462 76.856 33.1047 78.312 32.39 79.368C31.686 80.424 30.5447 80.952 28.966 80.952C27.3873 80.952 26.2407 80.424 25.526 79.368C24.822 78.312 24.47 76.856 24.47 75ZM30.774 75C30.774 73.9227 30.6567 73.096 30.422 72.52C30.1873 71.9333 29.702 71.64 28.966 71.64C28.23 71.64 27.7447 71.9333 27.51 72.52C27.2753 73.096 27.158 73.9227 27.158 75C27.158 75.7253 27.2007 76.328 27.286 76.808C27.3713 77.2773 27.542 77.6613 27.798 77.96C28.0647 78.248 28.454 78.392 28.966 78.392C29.478 78.392 29.862 78.248 30.118 77.96C30.3847 77.6613 30.5607 77.2773 30.646 76.808C30.7313 76.328 30.774 75.7253 30.774 75ZM49.9621 71.976C51.0715 71.976 51.9515 72.312 52.6021 72.984C53.2635 73.656 53.5941 74.5893 53.5941 75.784V81H50.8741V76.152C50.8741 75.576 50.7195 75.1333 50.4101 74.824C50.1115 74.504 49.6955 74.344 49.1621 74.344C48.6288 74.344 48.2075 74.504 47.8981 74.824C47.5995 75.1333 47.4501 75.576 47.4501 76.152V81H44.7301V76.152C44.7301 75.576 44.5755 75.1333 44.2661 74.824C43.9675 74.504 43.5515 74.344 43.0181 74.344C42.4848 74.344 42.0635 74.504 41.7541 74.824C41.4555 75.1333 41.3061 75.576 41.3061 76.152V81H38.5701V72.072H41.3061V73.192C41.5835 72.8187 41.9461 72.5253 42.3941 72.312C42.8421 72.088 43.3488 71.976 43.9141 71.976C44.5861 71.976 45.1835 72.12 45.7061 72.408C46.2395 72.696 46.6555 73.1067 46.9541 73.64C47.2635 73.1493 47.6848 72.7493 48.2181 72.44C48.7515 72.1307 49.3328 71.976 49.9621 71.976ZM56.8836 71.144C56.4036 71.144 56.009 71.0053 55.6996 70.728C55.401 70.44 55.2516 70.088 55.2516 69.672C55.2516 69.2453 55.401 68.8933 55.6996 68.616C56.009 68.328 56.4036 68.184 56.8836 68.184C57.353 68.184 57.737 68.328 58.0356 68.616C58.345 68.8933 58.4996 69.2453 58.4996 69.672C58.4996 70.088 58.345 70.44 58.0356 70.728C57.737 71.0053 57.353 71.144 56.8836 71.144ZM58.2436 72.072V81H55.5076V72.072H58.2436ZM65.6664 71.976C66.7117 71.976 67.5437 72.3173 68.1624 73C68.7917 73.672 69.1064 74.6 69.1064 75.784V81H66.3864V76.152C66.3864 75.5547 66.2317 75.0907 65.9224 74.76C65.613 74.4293 65.197 74.264 64.6744 74.264C64.1517 74.264 63.7357 74.4293 63.4264 74.76C63.117 75.0907 62.9624 75.5547 62.9624 76.152V81H60.2264V72.072H62.9624V73.256C63.2397 72.8613 63.613 72.552 64.0824 72.328C64.5517 72.0933 65.0797 71.976 65.6664 71.976ZM74.6396 81.128C73.861 81.128 73.1676 80.9947 72.5596 80.728C71.9516 80.4613 71.4716 80.0987 71.1196 79.64C70.7676 79.1707 70.5703 78.648 70.5276 78.072H73.2316C73.2636 78.3813 73.4076 78.632 73.6636 78.824C73.9196 79.016 74.2343 79.112 74.6076 79.112C74.949 79.112 75.2103 79.048 75.3916 78.92C75.5836 78.7813 75.6796 78.6053 75.6796 78.392C75.6796 78.136 75.5463 77.9493 75.2796 77.832C75.013 77.704 74.581 77.5653 73.9836 77.416C73.3436 77.2667 72.8103 77.112 72.3836 76.952C71.957 76.7813 71.589 76.52 71.2796 76.168C70.9703 75.8053 70.8156 75.32 70.8156 74.712C70.8156 74.2 70.9543 73.736 71.2316 73.32C71.5196 72.8933 71.9356 72.5573 72.4796 72.312C73.0343 72.0667 73.6903 71.944 74.4476 71.944C75.5676 71.944 76.4476 72.2213 77.0876 72.776C77.7383 73.3307 78.1116 74.0667 78.2076 74.984H75.6796C75.637 74.6747 75.4983 74.4293 75.2636 74.248C75.0396 74.0667 74.741 73.976 74.3676 73.976C74.0476 73.976 73.8023 74.04 73.6316 74.168C73.461 74.2853 73.3756 74.4507 73.3756 74.664C73.3756 74.92 73.509 75.112 73.7756 75.24C74.053 75.368 74.4796 75.496 75.0556 75.624C75.717 75.7947 76.2556 75.9653 76.6716 76.136C77.0876 76.296 77.4503 76.5627 77.7596 76.936C78.0796 77.2987 78.245 77.7893 78.2556 78.408C78.2556 78.9307 78.1063 79.4 77.8076 79.816C77.5196 80.2213 77.0983 80.5413 76.5436 80.776C75.9996 81.0107 75.365 81.128 74.6396 81.128Z" fill="black"/>
</svg>
