<svg width="93" height="84" viewBox="0 0 93 84" fill="none" xmlns="http://www.w3.org/2000/svg">
<path d="M78 32C78 40.4869 74.6286 48.6263 68.6274 54.6274C62.6263 60.6286 54.4869 64 46 64C37.5131 64 29.3737 60.6286 23.3726 54.6274C17.3714 48.6263 14 40.4869 14 32C14 23.5131 17.3714 15.3737 23.3726 9.37258C29.3737 3.37142 37.5131 0 46 0C54.4869 0 62.6263 3.37142 68.6274 9.37258C74.6286 15.3737 78 23.5131 78 32V32ZM46 14C46 13.4696 45.7893 12.9609 45.4142 12.5858C45.0391 12.2107 44.5304 12 44 12C43.4696 12 42.9609 12.2107 42.5858 12.5858C42.2107 12.9609 42 13.4696 42 14V36C42.0001 36.3525 42.0934 36.6988 42.2704 37.0036C42.4474 37.3085 42.7019 37.5611 43.008 37.736L57.008 45.736C57.4674 45.9843 58.0058 46.043 58.5079 45.8997C59.0101 45.7563 59.4363 45.4222 59.6954 44.9688C59.9545 44.5154 60.026 43.9786 59.8945 43.4732C59.7631 42.9677 59.4392 42.5338 58.992 42.264L46 34.84V14Z" fill="#092C4C"/>
<path d="M51.5895 35H56.7741V33.7429H53.7202V33.6932L54.782 32.6527C56.277 31.2891 56.6783 30.6072 56.6783 29.7798C56.6783 28.5192 55.6484 27.6278 54.0895 27.6278C52.5625 27.6278 51.5149 28.5405 51.5185 29.968H52.978C52.9744 29.272 53.4148 28.8459 54.0788 28.8459C54.718 28.8459 55.1939 29.2436 55.1939 29.8828C55.1939 30.4616 54.8388 30.8594 54.1783 31.495L51.5895 33.892V35ZM60.0616 33.892H61.3329V32.0135H63.2115V30.7422H61.3329V28.8636H60.0616V30.7422H58.1831V32.0135H60.0616V33.892Z" fill="white"/>
<path d="M20.8662 80.808C21.2289 80.52 21.3942 80.3867 21.3622 80.408C22.4075 79.544 23.2289 78.8347 23.8262 78.28C24.4342 77.7253 24.9462 77.144 25.3622 76.536C25.7782 75.928 25.9862 75.336 25.9862 74.76C25.9862 74.3227 25.8849 73.9813 25.6822 73.736C25.4795 73.4907 25.1755 73.368 24.7702 73.368C24.3649 73.368 24.0449 73.5227 23.8102 73.832C23.5862 74.1307 23.4742 74.5573 23.4742 75.112H20.8342C20.8555 74.2053 21.0475 73.448 21.4102 72.84C21.7835 72.232 22.2689 71.784 22.8662 71.496C23.4742 71.208 24.1462 71.064 24.8822 71.064C26.1515 71.064 27.1062 71.3893 27.7462 72.04C28.3969 72.6907 28.7222 73.5387 28.7222 74.584C28.7222 75.7253 28.3329 76.7867 27.5542 77.768C26.7755 78.7387 25.7835 79.688 24.5782 80.616H28.8982V82.84H20.8662V80.808ZM39.2534 73.976C40.2774 73.976 41.0988 74.3173 41.7174 75C42.3361 75.672 42.6454 76.6 42.6454 77.784V83H39.9254V78.152C39.9254 77.5547 39.7708 77.0907 39.4614 76.76C39.1521 76.4293 38.7361 76.264 38.2134 76.264C37.6908 76.264 37.2748 76.4293 36.9654 76.76C36.6561 77.0907 36.5014 77.5547 36.5014 78.152V83H33.7654V71.16H36.5014V75.272C36.7788 74.8773 37.1574 74.5627 37.6374 74.328C38.1174 74.0933 38.6561 73.976 39.2534 73.976ZM47.2827 75.56C47.6027 75.0693 48.0027 74.6853 48.4827 74.408C48.9627 74.12 49.496 73.976 50.0827 73.976V76.872H49.3307C48.648 76.872 48.136 77.0213 47.7947 77.32C47.4534 77.608 47.2827 78.12 47.2827 78.856V83H44.5467V74.072H47.2827V75.56ZM55.0224 83.128C54.2438 83.128 53.5504 82.9947 52.9424 82.728C52.3344 82.4613 51.8544 82.0987 51.5024 81.64C51.1504 81.1707 50.9531 80.648 50.9104 80.072H53.6144C53.6464 80.3813 53.7904 80.632 54.0464 80.824C54.3024 81.016 54.6171 81.112 54.9904 81.112C55.3318 81.112 55.5931 81.048 55.7744 80.92C55.9664 80.7813 56.0624 80.6053 56.0624 80.392C56.0624 80.136 55.9291 79.9493 55.6624 79.832C55.3958 79.704 54.9638 79.5653 54.3664 79.416C53.7264 79.2667 53.1931 79.112 52.7664 78.952C52.3398 78.7813 51.9718 78.52 51.6624 78.168C51.3531 77.8053 51.1984 77.32 51.1984 76.712C51.1984 76.2 51.3371 75.736 51.6144 75.32C51.9024 74.8933 52.3184 74.5573 52.8624 74.312C53.4171 74.0667 54.0731 73.944 54.8304 73.944C55.9504 73.944 56.8304 74.2213 57.4704 74.776C58.1211 75.3307 58.4944 76.0667 58.5904 76.984H56.0624C56.0198 76.6747 55.8811 76.4293 55.6464 76.248C55.4224 76.0667 55.1238 75.976 54.7504 75.976C54.4304 75.976 54.1851 76.04 54.0144 76.168C53.8438 76.2853 53.7584 76.4507 53.7584 76.664C53.7584 76.92 53.8918 77.112 54.1584 77.24C54.4358 77.368 54.8624 77.496 55.4384 77.624C56.0998 77.7947 56.6384 77.9653 57.0544 78.136C57.4704 78.296 57.8331 78.5627 58.1424 78.936C58.4624 79.2987 58.6278 79.7893 58.6384 80.408C58.6384 80.9307 58.4891 81.4 58.1904 81.816C57.9024 82.2213 57.4811 82.5413 56.9264 82.776C56.3824 83.0107 55.7478 83.128 55.0224 83.128ZM71.8149 78.632H69.0309V81.48H66.4389V78.632H63.6549V76.184H66.4389V73.32H69.0309V76.184H71.8149V78.632Z" fill="black"/>
</svg>
