<svg width="115" height="86" viewBox="0 0 115 86" fill="none" xmlns="http://www.w3.org/2000/svg">
<path d="M31.4344 69.768L27.4504 81H24.0264L20.0424 69.768H22.9544L25.7384 78.248L28.5384 69.768H31.4344ZM40.9939 76.392C40.9939 76.648 40.9779 76.9147 40.9459 77.192H34.7539C34.7966 77.7467 34.9726 78.1733 35.2819 78.472C35.6019 78.76 35.9913 78.904 36.4499 78.904C37.1326 78.904 37.6073 78.616 37.8739 78.04H40.7859C40.6366 78.6267 40.3646 79.1547 39.9699 79.624C39.5859 80.0933 39.1006 80.4613 38.5139 80.728C37.9273 80.9947 37.2713 81.128 36.5459 81.128C35.6713 81.128 34.8926 80.9413 34.2099 80.568C33.5273 80.1947 32.9939 79.6613 32.6099 78.968C32.2259 78.2747 32.0339 77.464 32.0339 76.536C32.0339 75.608 32.2206 74.7973 32.5939 74.104C32.9779 73.4107 33.5113 72.8773 34.1939 72.504C34.8766 72.1307 35.6606 71.944 36.5459 71.944C37.4099 71.944 38.1779 72.1253 38.8499 72.488C39.5219 72.8507 40.0446 73.368 40.4179 74.04C40.8019 74.712 40.9939 75.496 40.9939 76.392ZM38.1939 75.672C38.1939 75.2027 38.0339 74.8293 37.7139 74.552C37.3939 74.2747 36.9939 74.136 36.5139 74.136C36.0553 74.136 35.6659 74.2693 35.3459 74.536C35.0366 74.8027 34.8446 75.1813 34.7699 75.672H38.1939ZM45.8293 71.944C46.4586 71.944 47.008 72.072 47.4773 72.328C47.9573 72.584 48.3253 72.92 48.5813 73.336V72.072H51.3173V80.984C51.3173 81.8053 51.152 82.5467 50.8213 83.208C50.5013 83.88 50.0053 84.4133 49.3333 84.808C48.672 85.2027 47.8453 85.4 46.8533 85.4C45.5306 85.4 44.4586 85.0853 43.6373 84.456C42.816 83.8373 42.3466 82.9947 42.2293 81.928H44.9333C45.0186 82.2693 45.2213 82.536 45.5413 82.728C45.8613 82.9307 46.256 83.032 46.7253 83.032C47.2906 83.032 47.7386 82.8667 48.0693 82.536C48.4106 82.216 48.5813 81.6987 48.5813 80.984V79.72C48.3146 80.136 47.9466 80.4773 47.4773 80.744C47.008 81 46.4586 81.128 45.8293 81.128C45.0933 81.128 44.4266 80.9413 43.8293 80.568C43.232 80.184 42.7573 79.6453 42.4053 78.952C42.064 78.248 41.8933 77.4373 41.8933 76.52C41.8933 75.6027 42.064 74.7973 42.4053 74.104C42.7573 73.4107 43.232 72.8773 43.8293 72.504C44.4266 72.1307 45.0933 71.944 45.8293 71.944ZM48.5813 76.536C48.5813 75.8533 48.3893 75.3147 48.0053 74.92C47.632 74.5253 47.1733 74.328 46.6293 74.328C46.0853 74.328 45.6213 74.5253 45.2373 74.92C44.864 75.304 44.6773 75.8373 44.6773 76.52C44.6773 77.2027 44.864 77.7467 45.2373 78.152C45.6213 78.5467 46.0853 78.744 46.6293 78.744C47.1733 78.744 47.632 78.5467 48.0053 78.152C48.3893 77.7573 48.5813 77.2187 48.5813 76.536ZM58.2727 78.68V81H56.8807C55.8887 81 55.1154 80.76 54.5607 80.28C54.006 79.7893 53.7287 78.9947 53.7287 77.896V74.344H52.6407V72.072H53.7287V69.896H56.4647V72.072H58.2567V74.344H56.4647V77.928C56.4647 78.1947 56.5287 78.3867 56.6567 78.504C56.7847 78.6213 56.998 78.68 57.2967 78.68H58.2727ZM59.2527 76.52C59.2527 75.6027 59.4234 74.7973 59.7647 74.104C60.1167 73.4107 60.5914 72.8773 61.1887 72.504C61.786 72.1307 62.4527 71.944 63.1887 71.944C63.818 71.944 64.3674 72.072 64.8367 72.328C65.3167 72.584 65.6847 72.92 65.9407 73.336V72.072H68.6767V81H65.9407V79.736C65.674 80.152 65.3007 80.488 64.8207 80.744C64.3514 81 63.802 81.128 63.1727 81.128C62.4474 81.128 61.786 80.9413 61.1887 80.568C60.5914 80.184 60.1167 79.6453 59.7647 78.952C59.4234 78.248 59.2527 77.4373 59.2527 76.52ZM65.9407 76.536C65.9407 75.8533 65.7487 75.3147 65.3647 74.92C64.9914 74.5253 64.5327 74.328 63.9887 74.328C63.4447 74.328 62.9807 74.5253 62.5967 74.92C62.2234 75.304 62.0367 75.8373 62.0367 76.52C62.0367 77.2027 62.2234 77.7467 62.5967 78.152C62.9807 78.5467 63.4447 78.744 63.9887 78.744C64.5327 78.744 64.9914 78.5467 65.3647 78.152C65.7487 77.7573 65.9407 77.2187 65.9407 76.536ZM73.3921 73.336C73.6481 72.92 74.0161 72.584 74.4961 72.328C74.9761 72.072 75.5254 71.944 76.1441 71.944C76.8801 71.944 77.5467 72.1307 78.1441 72.504C78.7414 72.8773 79.2107 73.4107 79.5521 74.104C79.9041 74.7973 80.0801 75.6027 80.0801 76.52C80.0801 77.4373 79.9041 78.248 79.5521 78.952C79.2107 79.6453 78.7414 80.184 78.1441 80.568C77.5467 80.9413 76.8801 81.128 76.1441 81.128C75.5147 81.128 74.9654 81.0053 74.4961 80.76C74.0267 80.504 73.6587 80.168 73.3921 79.752V81H70.6561V69.16H73.3921V73.336ZM77.2961 76.52C77.2961 75.8373 77.1041 75.304 76.7201 74.92C76.3467 74.5253 75.8827 74.328 75.3281 74.328C74.7841 74.328 74.3201 74.5253 73.9361 74.92C73.5627 75.3147 73.3761 75.8533 73.3761 76.536C73.3761 77.2187 73.5627 77.7573 73.9361 78.152C74.3201 78.5467 74.7841 78.744 75.3281 78.744C75.8721 78.744 76.3361 78.5467 76.7201 78.152C77.1041 77.7467 77.2961 77.2027 77.2961 76.52ZM84.2514 69.16V81H81.5154V69.16H84.2514ZM94.6502 76.392C94.6502 76.648 94.6342 76.9147 94.6022 77.192H88.4102C88.4529 77.7467 88.6289 78.1733 88.9382 78.472C89.2582 78.76 89.6475 78.904 90.1062 78.904C90.7889 78.904 91.2635 78.616 91.5302 78.04H94.4422C94.2929 78.6267 94.0209 79.1547 93.6262 79.624C93.2422 80.0933 92.7569 80.4613 92.1702 80.728C91.5835 80.9947 90.9275 81.128 90.2022 81.128C89.3275 81.128 88.5489 80.9413 87.8662 80.568C87.1835 80.1947 86.6502 79.6613 86.2662 78.968C85.8822 78.2747 85.6902 77.464 85.6902 76.536C85.6902 75.608 85.8769 74.7973 86.2502 74.104C86.6342 73.4107 87.1675 72.8773 87.8502 72.504C88.5329 72.1307 89.3169 71.944 90.2022 71.944C91.0662 71.944 91.8342 72.1253 92.5062 72.488C93.1782 72.8507 93.7009 73.368 94.0742 74.04C94.4582 74.712 94.6502 75.496 94.6502 76.392ZM91.8502 75.672C91.8502 75.2027 91.6902 74.8293 91.3702 74.552C91.0502 74.2747 90.6502 74.136 90.1702 74.136C89.7115 74.136 89.3222 74.2693 89.0022 74.536C88.6929 74.8027 88.5009 75.1813 88.4262 75.672H91.8502Z" fill="black"/>
<circle cx="59" cy="32" r="32" fill="#092C4C"/>
<path d="M51.5 41.959C53.3875 43.727 66.05 35.888 67.925 32.586C68.825 31 67.7625 28.673 66.025 26.814C68 25.449 69.7375 29.7 71.3875 28.803C72.1375 28.387 72.625 27.1 72.2625 26.307C71.6125 24.903 69.45 24.903 67.9875 24.734C69.025 24.474 71.5125 23.369 71.5625 21.809C71.6125 20.613 70.15 19.248 69 19.391C67.4875 19.573 66.9375 21.835 66.425 23.291C66.3625 22.368 66.175 20.34 65.2 19.456C63.9 18.273 62.3375 19.391 62.3 20.821C62.25 22.55 65.825 23.512 64.7 25.592C62.8 24.071 60.5625 23.239 59.125 24.11C58.5125 24.513 57.8125 25.293 57.0875 26.307C58.2 27.529 59.7375 28.998 60.95 29.843C61.2 30.025 61.275 30.389 61.0875 30.649C60.9125 30.922 60.5625 30.987 60.3125 30.805C59.075 29.934 57.5625 28.491 56.4375 27.282C55.875 28.153 55.3 29.141 54.7625 30.181C55.825 31.299 57.175 32.56 58.25 33.314C58.5 33.496 58.5625 33.86 58.3875 34.12C58.2125 34.393 57.8625 34.458 57.6 34.276C56.5375 33.522 55.275 32.352 54.2125 31.26C52 35.797 50.375 40.919 51.5 41.959Z" fill="white"/>
</svg>
